<svg width="21" height="21" viewBox="0 0 21 21" fill="none" xmlns="http://www.w3.org/2000/svg">
<path d="M5.661 6.3734C5.49848 6.37942 5.34467 6.44845 5.23215 6.56588L1.92006 9.93061C1.80364 10.0489 1.73898 10.2086 1.74029 10.3746C1.7416 10.5406 1.80877 10.6993 1.92704 10.8157L5.29177 14.1278C5.34993 14.1875 5.41939 14.2349 5.4961 14.2673C5.5728 14.2997 5.65521 14.3166 5.73849 14.3167C5.82178 14.3169 5.90426 14.3005 5.98112 14.2684C6.05797 14.2363 6.12765 14.1892 6.18607 14.1299C6.2445 14.0705 6.29049 14.0001 6.32136 13.9228C6.35223 13.8454 6.36736 13.7627 6.36586 13.6794C6.36435 13.5961 6.34625 13.514 6.31261 13.4378C6.27896 13.3616 6.23046 13.2929 6.16993 13.2357L3.88214 10.9837L16.9766 10.8805C17.0596 10.881 17.1418 10.865 17.2185 10.8335C17.2952 10.802 17.3649 10.7555 17.4236 10.6968C17.4822 10.6381 17.5285 10.5683 17.5599 10.4915C17.5914 10.4147 17.6072 10.3325 17.6065 10.2495C17.6059 10.1666 17.5887 10.0846 17.5561 10.0083C17.5235 9.93203 17.4761 9.863 17.4165 9.80522C17.357 9.74745 17.2866 9.70208 17.2094 9.67176C17.1321 9.64143 17.0497 9.62676 16.9667 9.62858L3.87227 9.73183L6.12427 7.44404C6.21388 7.35538 6.27463 7.24173 6.29859 7.11797C6.32254 6.9942 6.30857 6.86609 6.25851 6.7504C6.20845 6.63471 6.12463 6.53682 6.01802 6.46956C5.91141 6.40229 5.78698 6.36877 5.661 6.3734Z" fill="white"/>
</svg>
