<svg width="20" height="20" viewBox="0 0 20 20" fill="none" xmlns="http://www.w3.org/2000/svg">
<path d="M12.72 17.7996C12.24 17.7996 11.76 17.7196 11.36 17.6396C10.84 17.7196 10.36 17.7996 9.92 17.7996C9.44 17.7996 8.96 17.7196 8.56 17.6396C8.04 17.7196 7.56 17.7996 7.12 17.7996C3.2 17.7996 0 14.5996 0 10.7196C0 6.83961 3.2 3.59961 7.12 3.59961C7.56 3.59961 8.04 3.63961 8.52 3.75961H8.6C9 3.67961 9.44 3.59961 9.96 3.59961C10.4 3.59961 10.88 3.63961 11.36 3.75961H11.44C11.84 3.67961 12.28 3.59961 12.8 3.59961C16.72 3.59961 19.92 6.79961 19.92 10.7196C19.92 14.6396 16.6 17.7996 12.72 17.7996ZM7.12 4.19961C3.52 4.19961 0.64 7.11961 0.64 10.6796C0.64 14.2396 3.52 17.1996 7.12 17.1996C7.56 17.1996 7.96 17.1596 8.36 17.0796C8.44 17.0396 8.48 17.0396 8.52 17.0396C11.52 16.3596 13.6 13.7596 13.6 10.7196C13.6 7.67961 11.52 5.07961 8.56 4.39961H8.52C8.48 4.39961 8.44 4.39961 8.36 4.35961C7.92 4.23961 7.52 4.19961 7.12 4.19961ZM10.4 4.43961C12.76 5.67961 14.2 8.07961 14.2 10.7196C14.2 13.3596 12.76 15.7596 10.4 16.9996L9.84 17.1996L10.48 17.1596H10.56C10.76 17.1596 10.96 17.1196 11.16 17.0796C11.24 17.0396 11.28 17.0396 11.32 17.0396C14.32 16.3596 16.4 13.7596 16.4 10.7196C16.4 7.67961 14.32 5.07961 11.36 4.39961H11.32C11.28 4.39961 11.24 4.39961 11.16 4.35961C10.92 4.31961 10.72 4.27961 10.56 4.27961H9.96L10.4 4.43961ZM13.2 4.43961C15.56 5.67961 17 8.07961 17 10.7196C17 13.3596 15.56 15.7596 13.2 16.9996L12.72 17.1996L13.28 17.1596C16.64 16.8796 19.2 14.0796 19.2 10.7196C19.2 7.35961 16.64 4.51961 13.24 4.23961L12.64 4.19961L13.2 4.43961Z" fill="white"/>
<path fill-rule="evenodd" clip-rule="evenodd" d="M8.84 13.3996C7.36 13.3996 6.12 12.1996 6.12 10.6796C6.12 9.15961 7.32 7.95961 8.84 7.95961C10.36 7.95961 11.56 9.15961 11.56 10.6796C11.56 12.1996 10.36 13.3996 8.84 13.3996ZM8.84 8.59961C7.68 8.59961 6.76 9.55961 6.76 10.6796C6.76 11.7996 7.72 12.7596 8.84 12.7596C9.96 12.7596 10.92 11.7996 10.92 10.6796C10.92 9.55961 10 8.59961 8.84 8.59961Z" fill="white"/>
<path fill-rule="evenodd" clip-rule="evenodd" d="M5.64 13.3996C4.16 13.3996 2.92 12.1996 2.92 10.6796C2.92 9.15961 4.12 7.95961 5.64 7.95961C7.16 7.95961 8.36 9.15961 8.36 10.6796C8.36 12.1996 7.16 13.3996 5.64 13.3996ZM5.64 8.59961C4.48 8.59961 3.56 9.55961 3.56 10.6796C3.56 11.7996 4.52 12.7596 5.64 12.7596C6.76 12.7596 7.72 11.7996 7.72 10.6796C7.72 9.55961 6.8 8.59961 5.64 8.59961Z" fill="white"/>
</svg>
