<svg width="20" height="20" viewBox="0 0 20 20" fill="none" xmlns="http://www.w3.org/2000/svg">
<path d="M16.8501 9.78835C18.4259 9.78835 19.6986 8.51562 19.6986 6.93987V6.60653C19.6986 6.48532 19.6077 6.36411 19.4562 6.36411H19.1229C18.1229 6.36411 17.2441 6.87926 16.7289 7.66714V6.69744L16.8804 6.54593C18.0017 5.45502 18.0017 3.63684 16.8804 2.54593L16.638 2.3035C16.5471 2.21259 16.3956 2.21259 16.3047 2.3035L16.0623 2.54593C15.5168 3.09138 15.2441 3.78835 15.2441 4.54593C15.2441 5.3035 15.5471 6.00047 16.0623 6.54593L16.2138 6.69744V7.66714C15.6986 6.87926 14.8198 6.36411 13.8198 6.36411H13.4865C13.3653 6.36411 13.2441 6.45502 13.2441 6.60653V6.97017C13.2441 8.54593 14.5168 9.81865 16.0926 9.81865H16.1835V11.0914C15.6683 10.3035 14.7895 9.78835 13.7895 9.78835H13.4562C13.335 9.78835 13.2138 9.87926 13.2138 10.0308V10.3035C13.2138 11.8793 14.4865 13.152 16.0623 13.152H16.1532V14.4247C15.638 13.6368 14.7592 13.1217 13.7592 13.1217H13.4259C13.3047 13.1217 13.1835 13.2126 13.1835 13.3641V13.6974C13.1835 15.2732 14.4562 16.5459 16.032 16.5459H16.1229V17.849C14.0926 17.1217 12.0623 16.758 10.032 16.7277V14.6065H10.1229C11.6986 14.6065 12.9714 13.3338 12.9714 11.758V11.4247C12.9714 11.3035 12.8804 11.1823 12.7289 11.1823H12.3956C11.3956 11.1823 10.5168 11.6974 10.0017 12.4853V11.2126H10.0926C11.6683 11.2126 12.9411 9.93987 12.9411 8.36411V8.03078C12.9411 7.90956 12.8501 7.78835 12.6986 7.78835H12.3653C11.3653 7.78835 10.4865 8.3035 9.97135 9.09138V7.81865H10.0623C11.638 7.81865 12.9107 6.54593 12.9107 4.97017V4.63684C12.9107 4.51562 12.8198 4.39441 12.6683 4.39441H12.335C11.335 4.39441 10.4562 4.90956 9.94105 5.69744V4.72775L10.0926 4.57623C11.2138 3.48532 11.2138 1.66714 10.0926 0.576231L9.85014 0.333807C9.75923 0.242898 9.60772 0.242898 9.51681 0.333807L9.60772 0.606534C8.48651 1.72775 8.48651 3.51562 9.60772 4.60653L9.75923 4.75805V5.75805C9.24408 4.97017 8.36529 4.45502 7.36529 4.45502H7.03196C6.91075 4.45502 6.78954 4.54593 6.78954 4.69744V5.03078C6.78954 6.60653 8.06226 7.87926 9.63802 7.87926H9.72893V9.15199C9.21378 8.36411 8.33499 7.84896 7.33499 7.84896H7.00166C6.88045 7.84896 6.75923 7.93987 6.75923 8.09138V8.42471C6.75923 10.0005 8.03196 11.2732 9.60772 11.2732H9.69863V12.5459C9.18348 11.758 8.30469 11.2429 7.30469 11.2429H6.97135C6.85014 11.2429 6.72893 11.3338 6.72893 11.4853V11.8187C6.72893 13.3944 8.00166 14.6671 9.57742 14.6671H9.66832V16.7883C7.63802 16.8187 5.60772 17.1823 3.57741 17.8793V16.5762H3.66832C5.24408 16.5762 6.51681 15.3035 6.51681 13.7277V13.3944C6.51681 13.2732 6.4259 13.152 6.27438 13.152H5.94105C4.94105 13.152 4.06226 13.6671 3.54711 14.455V13.1823H3.63802C5.21378 13.1823 6.48651 11.9096 6.48651 10.3338V10.0005C6.48651 9.87926 6.3956 9.75805 6.24408 9.75805H5.91075C4.91075 9.75805 4.03196 10.2732 3.51681 11.0611V9.78835H3.60772C5.18348 9.78835 6.4562 8.51562 6.4562 6.93987V6.60653C6.4562 6.48532 6.36529 6.36411 6.21378 6.36411H5.88045C4.88045 6.36411 4.00166 6.87926 3.48651 7.66714V6.69744L3.63802 6.54593C4.75923 5.45502 4.75923 3.63684 3.63802 2.54593V2.3035C3.54711 2.21259 3.3956 2.21259 3.30469 2.3035L3.06226 2.54593C2.51681 3.09138 2.24408 3.78835 2.24408 4.54593C2.24408 5.3035 2.54711 6.00047 3.06226 6.54593L3.21378 6.69744V7.66714C2.69863 6.87926 1.81984 6.36411 0.819839 6.36411H0.547112C0.4259 6.36411 0.304688 6.45502 0.304688 6.60653V6.97017C0.304688 8.54593 1.57741 9.81865 3.15317 9.81865H3.24408V11.0914C2.72893 10.3035 1.85014 9.78835 0.850142 9.78835H0.547112C0.395597 9.75805 0.304688 9.84896 0.304688 10.0005V10.3035C0.304688 11.8793 1.57741 13.152 3.15317 13.152H3.24408V14.4247C2.72893 13.6368 1.85014 13.1217 0.850142 13.1217H0.547112C0.4259 13.1217 0.304688 13.2126 0.304688 13.3641V13.6974C0.304688 15.2732 1.57741 16.5459 3.15317 16.5459H3.24408V18.0005C2.30469 18.3641 1.36529 18.7883 0.4259 19.3035C0.304687 19.3641 0.274384 19.5156 0.334991 19.6065C0.395597 19.7277 0.547112 19.758 0.638021 19.6974C6.78954 16.3338 13.0623 16.3338 19.3653 19.6974H19.4865C19.5774 19.6974 19.638 19.6671 19.6986 19.5762C19.7592 19.455 19.7289 19.3338 19.6077 19.2732C18.6683 18.758 17.7289 18.3338 16.7895 18.0005V16.5156H16.8804C18.4562 16.5156 19.7289 15.2429 19.7289 13.6671V13.3338C19.7289 13.2126 19.638 13.0914 19.4865 13.0914H19.1532C18.1532 13.0914 17.2744 13.6065 16.7592 14.3944V13.1217H16.8501C18.4259 13.1217 19.6986 11.849 19.6986 10.2732V10.0005C19.6986 9.87926 19.6077 9.75805 19.4562 9.75805H19.1229C18.1229 9.75805 17.2441 10.2732 16.7289 11.0611V9.78835H16.8501Z" fill="#9BB0CF"/>
</svg>
