<svg width="20" height="20" viewBox="0 0 20 20" fill="none" xmlns="http://www.w3.org/2000/svg">
<path d="M13.5796 19.8996C10.0996 19.8996 7.25957 17.0596 7.25957 13.5796C7.25957 13.3396 7.29957 13.0596 7.33957 12.7396V12.6196H7.21957C6.93957 12.6596 6.65957 12.6596 6.37957 12.6596C2.89957 12.6996 0.0595703 9.85961 0.0595703 6.41961C0.0595703 2.97961 2.89957 0.0996094 6.37957 0.0996094C9.85957 0.0996094 12.6996 2.93961 12.6996 6.41961C12.6996 6.69961 12.6996 6.97961 12.6596 7.25961V7.37961H12.7796C13.0996 7.33961 13.3796 7.29961 13.6196 7.29961C17.0996 7.29961 19.9396 10.1396 19.9396 13.6196C19.9396 17.0996 17.0196 19.8996 13.5796 19.8996ZM13.5796 7.89961C10.4196 7.89961 7.89957 10.4596 7.89957 13.5796C7.89957 16.6996 10.4196 19.2996 13.5796 19.2996C16.7396 19.2996 19.2596 16.7396 19.2596 13.6196C19.2596 10.4996 16.6996 7.89961 13.5796 7.89961ZM6.37957 0.699609C3.21957 0.699609 0.65957 3.25961 0.65957 6.41961C0.65957 9.57961 3.21957 12.0996 6.37957 12.0996C6.77957 12.0996 7.09957 12.0596 7.41957 12.0196H7.45957V11.9796C8.05957 9.85961 9.73957 8.17961 11.8596 7.57961H11.8996V7.53961C11.9796 7.21961 11.9796 6.89961 11.9796 6.49961C12.0596 3.25961 9.49957 0.699609 6.37957 0.699609ZM3.41957 19.2996L4.81957 17.8996H3.17957C1.69957 17.8996 0.45957 16.6996 0.45957 15.1796V12.8996H1.05957V15.2196C1.05957 16.3796 2.01957 17.2996 3.13957 17.2996H4.81957L3.41957 15.8996L3.85957 15.4596L6.01957 17.6196L3.85957 19.7796L3.41957 19.2996ZM6.37957 10.2996C6.33957 10.2996 6.29957 10.2996 6.25957 10.2596C6.21957 10.2596 6.17957 10.2196 6.17957 10.1796C6.13957 10.1396 6.13957 10.0996 6.09957 10.0996C6.09957 10.0596 6.05957 10.0196 6.05957 9.97961V9.21961H5.97957C5.49957 9.13961 5.09957 8.93961 4.81957 8.65961C4.49957 8.33961 4.29957 7.89961 4.25957 7.33961H4.81957C4.81957 7.81961 5.01957 8.13961 5.17957 8.25961C5.37957 8.45961 5.61957 8.57961 5.93957 8.69961L6.05957 8.73961V6.17961H5.97957C5.69957 6.09961 5.49957 6.05961 5.33957 5.97961C5.09957 5.89961 4.93957 5.77961 4.81957 5.65961C4.65957 5.53961 4.57957 5.41961 4.53957 5.25961C4.45957 5.05961 4.41957 4.85961 4.41957 4.57961C4.41957 4.29961 4.45957 4.05961 4.57957 3.89961C4.61957 3.69961 4.73957 3.57961 4.85957 3.41961L4.93957 3.29961C5.09957 3.13961 5.29957 3.01961 5.49957 2.93961C5.65957 2.89961 5.81957 2.85961 5.93957 2.81961H6.01957V2.01961C6.01957 1.93961 6.05957 1.85961 6.09957 1.81961C6.21957 1.73961 6.25957 1.69961 6.33957 1.69961C6.37957 1.69961 6.41957 1.69961 6.45957 1.69961C6.49957 1.69961 6.53957 1.73961 6.53957 1.77961C6.57957 1.81961 6.57957 1.85961 6.61957 1.85961C6.61957 1.89961 6.65957 1.93961 6.65957 1.97961V2.77961H6.73957C7.13957 2.81961 7.49957 2.97961 7.77957 3.25961C8.01957 3.49961 8.21957 3.85961 8.33957 4.33961H7.77957C7.65957 3.77961 7.33957 3.45961 6.81957 3.33961L6.65957 3.29961V5.69961L7.17957 5.85961C7.29957 5.89961 7.41957 5.93961 7.57957 6.01961C7.73957 6.09961 7.89957 6.17961 8.01957 6.33961C8.17957 6.45961 8.29957 6.61961 8.33957 6.77961C8.45957 6.97961 8.49957 7.17961 8.49957 7.45961C8.49957 7.77961 8.45957 8.01961 8.33957 8.17961C8.25957 8.37961 8.13957 8.57961 7.93957 8.77961C7.81957 8.89961 7.61957 9.01961 7.37957 9.17961C7.17957 9.25961 6.97957 9.29961 6.73957 9.33961H6.65957V10.0996C6.65957 10.1396 6.65957 10.1796 6.61957 10.2196C6.61957 10.2596 6.57957 10.2996 6.53957 10.2996C6.49957 10.3396 6.45957 10.3396 6.45957 10.3796C6.41957 10.2996 6.37957 10.2996 6.37957 10.2996ZM6.65957 8.77961L6.81957 8.73961C6.89957 8.69961 7.01957 8.69961 7.09957 8.65961C7.21957 8.61961 7.41957 8.53961 7.49957 8.41961C7.61957 8.33961 7.73957 8.17961 7.77957 8.01961C7.81957 7.89961 7.85957 7.69961 7.85957 7.49961C7.85957 7.33961 7.81957 7.13961 7.77957 7.01961C7.73957 6.85961 7.61957 6.77961 7.49957 6.69961C7.37957 6.61961 7.25957 6.53961 7.09957 6.49961C7.01957 6.45961 6.93957 6.45961 6.85957 6.41961L6.65957 6.33961V8.77961ZM5.93957 3.33961C5.77957 3.37961 5.53957 3.41961 5.33957 3.61961C5.13957 3.77961 5.01957 4.05961 5.01957 4.45961C5.01957 4.61961 5.05957 4.77961 5.09957 4.89961C5.13957 5.05961 5.25957 5.13961 5.33957 5.21961C5.37957 5.25961 5.45957 5.29961 5.53957 5.33961C5.57957 5.37961 5.61957 5.37961 5.65957 5.41961C5.73957 5.45961 5.81957 5.49961 5.89957 5.49961L6.01957 5.53961L6.05957 5.41961V3.33961H5.93957ZM18.8596 7.09961V4.77961C18.8596 3.61961 17.8996 2.69961 16.7796 2.69961H14.6996L16.0996 4.09961L15.6596 4.53961L13.4996 2.37961L15.6596 0.259609L16.0996 0.699609L14.6996 2.09961H16.7796C18.2596 2.09961 19.4996 3.29961 19.4996 4.81961V7.13961H18.8596V7.09961Z" fill="#9BB0CF"/>
<path fill-rule="evenodd" clip-rule="evenodd" d="M14.8768 11.585C14.4308 11.585 14.0198 11.7168 13.68 11.9443C13.3402 11.7168 12.9292 11.585 12.4832 11.585C11.291 11.585 10.3486 12.5273 10.3486 13.7195C10.3486 14.9127 11.3219 15.8541 12.4832 15.8541C12.932 15.8541 13.3455 15.7205 13.6866 15.4903C14.0287 15.7205 14.4394 15.8541 14.8768 15.8541C16.069 15.8541 17.0113 14.9117 17.0113 13.7195C17.0113 12.5273 16.069 11.585 14.8768 11.585ZM14.8768 15.1753C14.6352 15.1753 14.404 15.1112 14.1998 14.9994C14.4631 14.6445 14.6177 14.2025 14.6177 13.7195C14.6177 13.2342 14.4616 12.7903 14.196 12.4346C14.3985 12.3259 14.6299 12.2637 14.8768 12.2637C15.688 12.2637 16.3326 12.9357 16.3326 13.7195C16.3326 14.502 15.6593 15.1753 14.8768 15.1753ZM12.4832 12.2637C12.73 12.2637 12.9614 12.3259 13.1639 12.4346C12.8984 12.7903 12.7422 13.2342 12.7422 13.7195C12.7422 14.2011 12.9008 14.6418 13.1663 14.996C12.9607 15.1099 12.7272 15.1753 12.4832 15.1753C11.7007 15.1753 11.0274 14.502 11.0274 13.7195C11.0274 12.9357 11.672 12.2637 12.4832 12.2637ZM13.939 13.7195C13.939 14.0159 13.8425 14.2965 13.68 14.5309C13.5175 14.2965 13.4209 14.0159 13.4209 13.7195C13.4209 13.418 13.5164 13.1329 13.68 12.8964C13.8436 13.1329 13.939 13.418 13.939 13.7195Z" fill="#9BB0CF"/>
</svg>
