<svg width="21" height="20" viewBox="0 0 21 20" fill="none" xmlns="http://www.w3.org/2000/svg">
<g clip-path="url(#clip0_10323_57596)">
<path d="M14.0805 19.8996C10.6005 19.8996 7.76055 17.0596 7.76055 13.5796C7.76055 13.3396 7.80055 13.0596 7.84055 12.7396V12.6196H7.72055C7.44055 12.6596 7.16055 12.6596 6.88055 12.6596C3.40055 12.6996 0.560547 9.85961 0.560547 6.41961C0.560547 2.97961 3.40055 0.0996094 6.88055 0.0996094C10.3605 0.0996094 13.2005 2.93961 13.2005 6.41961C13.2005 6.69961 13.2005 6.97961 13.1605 7.25961V7.37961H13.2805C13.6005 7.33961 13.8805 7.29961 14.1205 7.29961C17.6005 7.29961 20.4405 10.1396 20.4405 13.6196C20.4405 17.0996 17.5205 19.8996 14.0805 19.8996ZM14.0805 7.89961C10.9205 7.89961 8.40055 10.4596 8.40055 13.5796C8.40055 16.6996 10.9205 19.2996 14.0805 19.2996C17.2405 19.2996 19.7605 16.7396 19.7605 13.6196C19.7605 10.4996 17.2005 7.89961 14.0805 7.89961ZM6.88055 0.699609C3.72055 0.699609 1.16055 3.25961 1.16055 6.41961C1.16055 9.57961 3.72055 12.0996 6.88055 12.0996C7.28055 12.0996 7.60055 12.0596 7.92055 12.0196H7.96055V11.9796C8.56055 9.85961 10.2405 8.17961 12.3605 7.57961H12.4005V7.53961C12.4805 7.21961 12.4805 6.89961 12.4805 6.49961C12.5605 3.25961 10.0005 0.699609 6.88055 0.699609ZM3.92055 19.2996L5.32055 17.8996H3.68055C2.20055 17.8996 0.960547 16.6996 0.960547 15.1796V12.8996H1.56055V15.2196C1.56055 16.3796 2.52055 17.2996 3.64055 17.2996H5.32055L3.92055 15.8996L4.36055 15.4596L6.52055 17.6196L4.36055 19.7796L3.92055 19.2996ZM6.88055 10.2996C6.84055 10.2996 6.80055 10.2996 6.76055 10.2596C6.72055 10.2596 6.68055 10.2196 6.68055 10.1796C6.64055 10.1396 6.64055 10.0996 6.60055 10.0996C6.60055 10.0596 6.56055 10.0196 6.56055 9.97961V9.21961H6.48055C6.00055 9.13961 5.60055 8.93961 5.32055 8.65961C5.00055 8.33961 4.80055 7.89961 4.76055 7.33961H5.32055C5.32055 7.81961 5.52055 8.13961 5.68055 8.25961C5.88055 8.45961 6.12055 8.57961 6.44055 8.69961L6.56055 8.73961V6.17961H6.48055C6.20055 6.09961 6.00055 6.05961 5.84055 5.97961C5.60055 5.89961 5.44055 5.77961 5.32055 5.65961C5.16055 5.53961 5.08055 5.41961 5.04055 5.25961C4.96055 5.05961 4.92055 4.85961 4.92055 4.57961C4.92055 4.29961 4.96055 4.05961 5.08055 3.89961C5.12055 3.69961 5.24055 3.57961 5.36055 3.41961L5.44055 3.29961C5.60055 3.13961 5.80055 3.01961 6.00055 2.93961C6.16055 2.89961 6.32055 2.85961 6.44055 2.81961H6.52055V2.01961C6.52055 1.93961 6.56055 1.85961 6.60055 1.81961C6.72055 1.73961 6.76055 1.69961 6.84055 1.69961C6.88055 1.69961 6.92055 1.69961 6.96055 1.69961C7.00055 1.69961 7.04055 1.73961 7.04055 1.77961C7.08055 1.81961 7.08055 1.85961 7.12055 1.85961C7.12055 1.89961 7.16055 1.93961 7.16055 1.97961V2.77961H7.24055C7.64055 2.81961 8.00055 2.97961 8.28055 3.25961C8.52055 3.49961 8.72055 3.85961 8.84055 4.33961H8.28055C8.16055 3.77961 7.84055 3.45961 7.32055 3.33961L7.16055 3.29961V5.69961L7.68055 5.85961C7.80055 5.89961 7.92055 5.93961 8.08055 6.01961C8.24055 6.09961 8.40055 6.17961 8.52055 6.33961C8.68055 6.45961 8.80055 6.61961 8.84055 6.77961C8.96055 6.97961 9.00055 7.17961 9.00055 7.45961C9.00055 7.77961 8.96055 8.01961 8.84055 8.17961C8.76055 8.37961 8.64055 8.57961 8.44055 8.77961C8.32055 8.89961 8.12055 9.01961 7.88055 9.17961C7.68055 9.25961 7.48055 9.29961 7.24055 9.33961H7.16055V10.0996C7.16055 10.1396 7.16055 10.1796 7.12055 10.2196C7.12055 10.2596 7.08055 10.2996 7.04055 10.2996C7.00055 10.3396 6.96055 10.3396 6.96055 10.3796C6.92055 10.2996 6.88055 10.2996 6.88055 10.2996ZM7.16055 8.77961L7.32055 8.73961C7.40055 8.69961 7.52055 8.69961 7.60055 8.65961C7.72055 8.61961 7.92055 8.53961 8.00055 8.41961C8.12055 8.33961 8.24055 8.17961 8.28055 8.01961C8.32055 7.89961 8.36055 7.69961 8.36055 7.49961C8.36055 7.33961 8.32055 7.13961 8.28055 7.01961C8.24055 6.85961 8.12055 6.77961 8.00055 6.69961C7.88055 6.61961 7.76055 6.53961 7.60055 6.49961C7.52055 6.45961 7.44055 6.45961 7.36055 6.41961L7.16055 6.33961V8.77961ZM6.44055 3.33961C6.28055 3.37961 6.04055 3.41961 5.84055 3.61961C5.64055 3.77961 5.52055 4.05961 5.52055 4.45961C5.52055 4.61961 5.56055 4.77961 5.60055 4.89961C5.64055 5.05961 5.76055 5.13961 5.84055 5.21961C5.88055 5.25961 5.96055 5.29961 6.04055 5.33961C6.08055 5.37961 6.12055 5.37961 6.16055 5.41961C6.24055 5.45961 6.32055 5.49961 6.40055 5.49961L6.52055 5.53961L6.56055 5.41961V3.33961H6.44055ZM19.3605 7.09961V4.77961C19.3605 3.61961 18.4005 2.69961 17.2805 2.69961H15.2005L16.6005 4.09961L16.1605 4.53961L14.0005 2.37961L16.1605 0.259609L16.6005 0.699609L15.2005 2.09961H17.2805C18.7605 2.09961 20.0005 3.29961 20.0005 4.81961V7.13961H19.3605V7.09961Z" fill="#1B1B1B"/>
<path fill-rule="evenodd" clip-rule="evenodd" d="M15.3778 11.585C14.9318 11.585 14.5208 11.7168 14.181 11.9443C13.8412 11.7168 13.4301 11.585 12.9842 11.585C11.792 11.585 10.8496 12.5273 10.8496 13.7195C10.8496 14.9127 11.8229 15.8541 12.9842 15.8541C13.433 15.8541 13.8465 15.7205 14.1875 15.4903C14.5296 15.7205 14.9404 15.8541 15.3778 15.8541C16.5699 15.8541 17.5123 14.9117 17.5123 13.7195C17.5123 12.5273 16.5699 11.585 15.3778 11.585ZM15.3778 15.1753C15.1361 15.1753 14.905 15.1112 14.7008 14.9994C14.9641 14.6445 15.1187 14.2025 15.1187 13.7195C15.1187 13.2342 14.9626 12.7903 14.697 12.4346C14.8995 12.3259 15.1309 12.2637 15.3778 12.2637C16.189 12.2637 16.8336 12.9357 16.8336 13.7195C16.8336 14.502 16.1603 15.1753 15.3778 15.1753ZM12.9842 12.2637C13.231 12.2637 13.4624 12.3259 13.6649 12.4346C13.3993 12.7903 13.2432 13.2342 13.2432 13.7195C13.2432 14.2011 13.4018 14.6418 13.6673 14.996C13.4616 15.1099 13.2282 15.1753 12.9842 15.1753C12.2016 15.1753 11.5283 14.502 11.5283 13.7195C11.5283 12.9357 12.173 12.2637 12.9842 12.2637ZM14.44 13.7195C14.44 14.0159 14.3434 14.2965 14.181 14.5309C14.0185 14.2965 13.9219 14.0159 13.9219 13.7195C13.9219 13.418 14.0173 13.1329 14.181 12.8964C14.3446 13.1329 14.44 13.418 14.44 13.7195Z" fill="#1B1B1B"/>
</g>
<defs>
<clipPath id="clip0_10323_57596">
<rect width="20" height="20" fill="white" transform="translate(0.5)"/>
</clipPath>
</defs>
</svg>
