<svg width="80" height="80" viewBox="0 0 80 80" fill="none" xmlns="http://www.w3.org/2000/svg">
<circle cx="40" cy="40" r="40" fill="#1B1B1B"/>
<path d="M47.7536 62.5C39.9536 62.5 33.5536 56.4 33.0536 48.7C33.0536 48.5 33.1536 48.3 33.2536 48.2C33.3536 48.1 33.5536 48 33.7536 47.9C34.1536 47.9 34.5536 48.2 34.5536 48.6C34.9536 55.5 40.7536 61 47.7536 61C55.0536 61 60.9536 55.1 60.9536 47.8C60.9536 40.8 55.4536 35 48.5536 34.6H48.4536C48.0536 34.6 47.7536 34.3 47.6536 33.9C47.6536 33.7 47.6536 33.5 47.8536 33.3C47.9536 33.1 48.1536 33 48.3536 33H48.5536C56.3536 33.5 62.4536 39.9 62.4536 47.7C62.4536 55.9 55.8536 62.5 47.7536 62.5ZM18.7536 61.5C18.3536 61.5 17.9536 61.2 17.9536 60.7C17.9536 60.2 18.2536 60 18.7536 60C19.2536 60 19.5536 60.3 19.5536 60.8C19.5536 61.3 19.1536 61.5 18.7536 61.5ZM21.7536 58.5C21.3536 58.5 20.9536 58.2 20.9536 57.7C20.9536 57.2 21.2536 57 21.7536 57C22.2536 57 22.5536 57.3 22.5536 57.8C22.5536 58.3 22.1536 58.5 21.7536 58.5ZM24.7536 55.5C24.3536 55.5 23.9536 55.2 23.9536 54.7C23.9536 54.2 24.2536 54 24.7536 54C25.2536 54 25.5536 54.3 25.5536 54.8C25.5536 55.3 25.1536 55.5 24.7536 55.5ZM46.9536 53.4V46.1H44.1536V44.9C45.9536 44.8 47.0536 43.4 47.3536 42.7H48.7536V53.4H46.9536ZM27.7536 52.5C27.3536 52.5 26.9536 52.2 26.9536 51.7C26.9536 51.2 27.2536 50.9 27.7536 50.9C28.2536 50.9 28.5536 51.2 28.5536 51.7C28.5536 52.2 28.1536 52.5 27.7536 52.5ZM30.7536 49.5C30.3536 49.5 29.9536 49.2 29.9536 48.7C29.9536 48.2 30.2536 47.9 30.7536 47.9C31.2536 47.9 31.5536 48.2 31.5536 48.7C31.5536 49.2 31.1536 49.5 30.7536 49.5ZM33.7536 46.5C33.3536 46.5 32.9536 46.2 32.9536 45.7C32.9536 45.2 33.2536 44.9 33.7536 44.9C34.2536 44.9 34.5536 45.2 34.5536 45.7C34.5536 46.2 34.1536 46.5 33.7536 46.5ZM30.7536 46.5C23.0536 46 16.9536 39.5 16.9536 31.8C16.9536 23.6 23.5536 17 31.7536 17C39.4536 17 45.9536 23.1 46.4536 30.8C46.4536 31 46.3536 31.2 46.2536 31.3C46.1536 31.4 45.9536 31.5 45.7536 31.6C45.3536 31.6 44.9536 31.3 44.9536 30.9C44.4536 24 38.6536 18.5 31.7536 18.5C24.3536 18.5 18.4536 24.4 18.4536 31.8C18.4536 38.8 23.9536 44.6 30.8536 45C31.2536 45 31.5536 45.4 31.5536 45.8C31.5536 46.2 31.2536 46.5 30.7536 46.5ZM36.7536 43.5C36.3536 43.5 35.9536 43.2 35.9536 42.7C35.9536 42.2 36.2536 41.9 36.7536 41.9C37.2536 41.9 37.5536 42.2 37.5536 42.7C37.5536 43.2 37.1536 43.5 36.7536 43.5ZM39.7536 40.5C39.3536 40.5 38.9536 40.2 38.9536 39.7C38.9536 39.2 39.2536 38.9 39.7536 38.9C40.2536 38.9 40.5536 39.2 40.5536 39.7C40.5536 40.2 40.1536 40.5 39.7536 40.5ZM42.7536 37.5C42.3536 37.5 41.9536 37.2 41.9536 36.7C41.9536 36.2 42.2536 35.9 42.7536 35.9C43.2536 35.9 43.5536 36.2 43.5536 36.7C43.5536 37.2 43.1536 37.5 42.7536 37.5ZM31.5536 37C30.2536 37 29.2536 36.6 28.5536 35.9C27.8536 35.2 27.6536 34.4 27.6536 33.9H29.4536C29.6536 34.6 30.1536 35.6 31.5536 35.6C33.1536 35.6 33.7536 34.1 33.7536 33.2C33.7536 30.9 31.7536 30.9 31.5536 30.9C30.4536 30.9 29.9536 31.5 29.7536 31.8H28.1536L29.1536 26.1H34.9536V27.5H30.3536L29.8536 30.4L30.1536 30.7L30.3536 30.6C30.6536 30.3 31.1536 29.8 32.3536 29.8C35.5536 29.8 35.5536 33.2 35.5536 33.4C35.4536 34.7 34.4536 37 31.5536 37ZM45.7536 34.5C45.3536 34.5 44.9536 34.2 44.9536 33.7C44.9536 33.2 45.2536 32.9 45.7536 32.9C46.2536 32.9 46.5536 33.2 46.5536 33.7C46.5536 34.2 46.1536 34.5 45.7536 34.5ZM48.7536 31.5C48.3536 31.5 47.9536 31.2 47.9536 30.7C47.9536 30.2 48.2536 29.9 48.7536 29.9C49.2536 29.9 49.5536 30.2 49.5536 30.7C49.5536 31.2 49.1536 31.5 48.7536 31.5ZM51.7536 28.5C51.3535 28.5 50.9536 28.2 50.9536 27.7C50.9536 27.2 51.2536 26.9 51.7536 26.9C52.2536 26.9 52.5536 27.2 52.5536 27.7C52.5536 28.2 52.1536 28.5 51.7536 28.5ZM54.7536 25.5C54.3535 25.5 53.9536 25.2 53.9536 24.7C53.9536 24.2 54.2536 24 54.7536 24C55.2536 24 55.5536 24.3 55.5536 24.8C55.5536 25.3 55.1536 25.5 54.7536 25.5ZM57.7536 22.5C57.3535 22.5 56.9536 22.2 56.9536 21.7C56.9536 21.2 57.2536 21 57.7536 21C58.2536 21 58.5536 21.3 58.5536 21.8C58.5536 22.3 58.1536 22.5 57.7536 22.5ZM60.7536 19.5C60.3535 19.5 59.9536 19.2 59.9536 18.7C59.9536 18.2 60.2536 18 60.7536 18C61.2536 18 61.5536 18.3 61.5536 18.8C61.5536 19.3 61.1536 19.5 60.7536 19.5Z" fill="#01CDFD"/>
</svg>
