<svg width="80" height="80" viewBox="0 0 80 80" fill="none" xmlns="http://www.w3.org/2000/svg">
<circle cx="40" cy="40" r="40" fill="#1B1B1B"/>
<path d="M39.8 63.5C26.7 63.5 16 52.8 16 39.8C16 26.8 26.7 16 39.8 16C52.9 16 63.6 26.7 63.6 39.8C63.6 52.9 52.8 63.5 39.8 63.5ZM37.5 61.9H37.7C38.4 62 39.1 62 39.7 62C40.3 62 41 62 41.7 61.9H41.9V54.3H41.6C40.9 54.4 40.2 54.4 39.6 54.4C39 54.4 38.4 54.4 37.6 54.3H37.3V61.9H37.5ZM22.6 54L22.8 54.2C26.1 58.1 30.7 60.7 35.7 61.6L36 61.7V54L35.8 53.9C33.4 53.2 31.2 52 29.4 50.2L29.3 50.1L22.6 54ZM50.1 50.2C48.3 52 46.1 53.2 43.7 53.9L43.5 54V61.7L43.8 61.6C48.8 60.7 53.4 58 56.7 54.1L56.9 53.9L50.3 50L50.1 50.2ZM39.8 26.5C32.5 26.5 26.6 32.4 26.6 39.7C26.6 47 32.4 53 39.8 53C47.2 53 53 47.1 53 39.8C53 32.5 47.1 26.5 39.8 26.5ZM19.5 48.9L19.6 49.1C20.2 50.3 20.9 51.5 21.6 52.6L21.7 52.8L28.3 49L28.1 48.8C27.3 47.7 26.6 46.6 26.1 45.4L26 45.1L19.5 48.9ZM53.4 45.3C52.9 46.5 52.2 47.6 51.4 48.7L51.2 48.9L57.8 52.7L57.9 52.5C58.7 51.4 59.4 50.2 59.9 49L60 48.8L53.5 45L53.4 45.3ZM18.8 32.3C17.9 34.7 17.5 37.2 17.5 39.8C17.5 42.4 17.9 44.9 18.8 47.3L18.9 47.6L25.6 43.7V43.5C25.2 42.2 25 41 25 39.8C25 38.6 25.2 37.3 25.5 36.1V35.9L18.9 32L18.8 32.3ZM54 35.9V36.1C54.3 37.3 54.5 38.6 54.5 39.8C54.5 41 54.3 42.2 54 43.5V43.7L60.7 47.6L60.8 47.3C61.6 44.9 62.1 42.4 62.1 39.9C62.1 37.4 61.7 34.9 60.8 32.5L60.7 32.2L54 35.9ZM51.2 30.6L51.4 30.8C52.2 31.9 52.9 33 53.4 34.2L53.5 34.5L60.1 30.7L60 30.4C59.4 29.2 58.8 28 58 26.9L57.9 26.7L51.2 30.6ZM21.6 26.9C20.8 28 20.1 29.2 19.6 30.4L19.5 30.6L26 34.4L26.1 34.1C26.6 32.9 27.3 31.8 28.1 30.7L28.3 30.5L21.7 26.7L21.6 26.9ZM43.5 25.5L43.7 25.6C46.1 26.3 48.3 27.6 50.1 29.3L50.2 29.4L56.8 25.5L56.6 25.3C53.3 21.4 48.7 18.8 43.7 17.8L43.4 17.7V25.5H43.5ZM35.7 17.9C30.7 18.8 26.2 21.4 22.8 25.3L22.6 25.5L29.3 29.4L29.4 29.3C31.2 27.6 33.4 26.3 35.8 25.6L36 25.5V17.8L35.7 17.9ZM39.8 25C40.4 25 41 25 41.8 25.1H42.1V17.6H41.9C41.2 17.5 40.5 17.5 39.9 17.5C39.3 17.5 38.6 17.5 37.9 17.6H37.7V25.2H38C38.5 25 39.2 25 39.8 25Z" fill="#01CDFD"/>
</svg>
