<svg width="20" height="20" viewBox="0 0 20 20" fill="none" xmlns="http://www.w3.org/2000/svg">
<path d="M12.75 0C10.769 0 8.97259 0.800273 7.66309 2.09277C8.40459 1.87277 9.188 1.75 10 1.75C10.3105 1.75 10.6169 1.77069 10.9189 1.80469C11.4949 1.61019 12.109 1.5 12.75 1.5C15.9205 1.5 18.5 4.0795 18.5 7.25C18.5 7.891 18.3898 8.50505 18.1953 9.08105C18.2293 9.38305 18.25 9.6895 18.25 10C18.25 10.812 18.1272 11.5954 17.9072 12.3369C19.1997 11.0274 20 9.231 20 7.25C20 3.2525 16.7475 0 12.75 0ZM10 2.75C8.019 2.75 6.22259 3.55027 4.91309 4.84277C5.65459 4.62277 6.438 4.5 7.25 4.5C7.5605 4.5 7.86695 4.52069 8.16895 4.55469C8.74495 4.36019 9.359 4.25 10 4.25C13.1705 4.25 15.75 6.8295 15.75 10C15.75 10.641 15.6398 11.2551 15.4453 11.8311C15.4793 12.1331 15.5 12.4395 15.5 12.75C15.5 13.562 15.3772 14.3454 15.1572 15.0869C16.4497 13.7774 17.25 11.981 17.25 10C17.25 6.0025 13.9975 2.75 10 2.75ZM7.25 5.5C3.25482 5.5 0 8.75482 0 12.75C0 16.7452 3.25482 20 7.25 20C11.2452 20 14.5 16.7452 14.5 12.75C14.5 8.75482 11.2452 5.5 7.25 5.5ZM7.25 7C10.4345 7 13 9.56548 13 12.75C13 15.9345 10.4345 18.5 7.25 18.5C4.06548 18.5 1.5 15.9345 1.5 12.75C1.5 9.56548 4.06548 7 7.25 7Z" fill="#9BB0CF"/>
</svg>
