<svg width="24" height="24" viewBox="0 0 24 24" fill="none" xmlns="http://www.w3.org/2000/svg">
<path d="M3.66667 0C1.65348 0 0 1.65348 0 3.66667V20.3333C0 22.3465 1.65348 24 3.66667 24H20.3333C22.3465 24 24 22.3465 24 20.3333V3.66667C24 1.65348 22.3465 0 20.3333 0H3.66667ZM3.66667 2H20.3333C21.2655 2 22 2.73452 22 3.66667V20.3333C22 21.2655 21.2655 22 20.3333 22H3.66667C2.73452 22 2 21.2655 2 20.3333V3.66667C2 2.73452 2.73452 2 3.66667 2ZM18.9805 3.99089C18.9443 3.99197 18.9082 3.99501 18.8724 4H11.6667C11.5342 3.99813 11.4026 4.02261 11.2796 4.07202C11.1567 4.12143 11.0447 4.1948 10.9504 4.28784C10.856 4.38088 10.7811 4.49176 10.7299 4.61401C10.6788 4.73627 10.6524 4.86748 10.6524 5C10.6524 5.13253 10.6788 5.26373 10.7299 5.38599C10.7811 5.50824 10.856 5.61912 10.9504 5.71216C11.0447 5.8052 11.1567 5.87857 11.2796 5.92798C11.4026 5.97739 11.5342 6.00187 11.6667 6H16.5859L6.29297 16.293C6.197 16.3851 6.12038 16.4955 6.06759 16.6176C6.01481 16.7397 5.98693 16.8712 5.98557 17.0042C5.98422 17.1372 6.00943 17.2692 6.05972 17.3924C6.11001 17.5156 6.18437 17.6275 6.27845 17.7216C6.37252 17.8156 6.48443 17.89 6.6076 17.9403C6.73078 17.9906 6.86275 18.0158 6.99579 18.0144C7.12883 18.0131 7.26026 17.9852 7.38239 17.9324C7.50452 17.8796 7.61489 17.803 7.70703 17.707L18 7.41406V12.3333C17.9981 12.4658 18.0226 12.5974 18.072 12.7204C18.1214 12.8433 18.1948 12.9553 18.2878 13.0496C18.3809 13.144 18.4918 13.2189 18.614 13.2701C18.7363 13.3212 18.8675 13.3476 19 13.3476C19.1325 13.3476 19.2637 13.3212 19.386 13.2701C19.5082 13.2189 19.6191 13.144 19.7122 13.0496C19.8052 12.9553 19.8786 12.8433 19.928 12.7204C19.9774 12.5974 20.0019 12.4658 20 12.3333V5.1263C20.0197 4.98243 20.0078 4.83599 19.9652 4.69716C19.9226 4.55833 19.8503 4.43044 19.7533 4.32239C19.6563 4.21434 19.5369 4.12871 19.4034 4.07147C19.27 4.01422 19.1256 3.98672 18.9805 3.99089Z" fill="white"/>
</svg>
