<svg width="42" height="15" viewBox="0 0 42 15" fill="none" xmlns="http://www.w3.org/2000/svg">
<rect width="42" height="15" rx="7.5" fill="#DEDFE2"/>
<path d="M6.68756 12V3.6H10.0956C10.8316 3.6 11.4116 3.788 11.8356 4.164C12.2596 4.54 12.4716 5.056 12.4716 5.712C12.4716 6.112 12.3716 6.464 12.1716 6.768C11.9796 7.072 11.7076 7.304 11.3556 7.464C11.8276 7.624 12.2036 7.884 12.4836 8.244C12.7716 8.604 12.9156 9.032 12.9156 9.528C12.9156 10.288 12.6716 10.892 12.1836 11.34C11.6956 11.78 11.0396 12 10.2156 12H6.68756ZM7.63556 7.2H10.0236C10.4556 7.2 10.8116 7.076 11.0916 6.828C11.3716 6.572 11.5116 6.252 11.5116 5.868C11.5116 5.46 11.3716 5.136 11.0916 4.896C10.8196 4.648 10.4356 4.524 9.93956 4.524H7.63556V7.2ZM7.63556 11.076H10.1436C10.6796 11.076 11.1116 10.94 11.4396 10.668C11.7676 10.396 11.9316 10.028 11.9316 9.564C11.9316 9.124 11.7596 8.776 11.4156 8.52C11.0716 8.256 10.6276 8.124 10.0836 8.124H7.63556V11.076ZM15.3383 12V3.6H20.4263V4.524H16.2863V7.212H19.7543V8.136H16.2863V11.076H20.4023V12H15.3383ZM24.6697 12V4.524H22.2577V3.6H28.1017V4.524H25.6177V12H24.6697ZM28.7625 12L31.9905 3.6H33.0585L36.2505 12H35.2185L34.3545 9.684H30.6105L29.7345 12H28.7625ZM31.7745 6.624L30.9585 8.76H34.0065L33.1785 6.564C33.0825 6.308 32.9665 5.992 32.8305 5.616C32.7025 5.232 32.5865 4.88 32.4825 4.56C32.3705 4.904 32.2545 5.252 32.1345 5.604C32.0145 5.956 31.8945 6.296 31.7745 6.624Z" fill="#23293E"/>
</svg>
