<svg width="20" height="20" viewBox="0 0 20 20" fill="none" xmlns="http://www.w3.org/2000/svg">
<path d="M10 0C4.48603 0 0 4.48604 0 10C0 15.514 4.48603 20 10 20C15.514 20 20 15.514 20 10C20 4.48604 15.514 0 10 0ZM10 1.5C12.08 1.5 13.9572 2.27174 15.4326 3.50684L3.50684 15.4316C2.27203 13.9563 1.5 12.0797 1.5 10C1.5 5.2967 5.29669 1.5 10 1.5ZM16.4932 4.56738C17.7283 6.04278 18.5 7.92003 18.5 10C18.5 14.7033 14.7033 18.5 10 18.5C7.9203 18.5 6.04367 17.728 4.56836 16.4932L16.4932 4.56738Z" fill="#919191"/>
</svg>
