<svg width="72" height="72" viewBox="0 0 72 72" fill="none" xmlns="http://www.w3.org/2000/svg">
<circle cx="36" cy="36" r="36" fill="#1A1A1B"/>
<path d="M37.6981 16.836L38.9731 18.308L40.6571 17.329C41.8401 16.641 43.3571 17.162 43.8691 18.432L44.5971 20.238L46.5071 19.859C47.8491 19.593 49.1151 20.578 49.1871 21.945L49.2891 23.89L51.2191 24.152C52.5751 24.336 53.4521 25.679 53.0761 26.995L52.5411 28.867L54.2811 29.741C55.5041 30.355 55.8971 31.911 55.1151 33.033L54.0011 34.63L55.3631 36.022C56.3201 37 56.1871 38.599 55.0831 39.406L53.5111 40.555L54.3471 42.314C54.9351 43.55 54.2901 45.019 52.9831 45.424L51.1231 46L51.3431 47.935C51.4971 49.294 50.4111 50.475 49.0431 50.433L47.0971 50.374L46.6771 52.275C46.3821 53.611 44.9711 54.375 43.6911 53.891L41.8691 53.203L40.8541 54.865C40.1411 56.033 38.5581 56.297 37.5051 55.424L36.0001 54.18L34.5001 55.422C33.4461 56.295 31.8641 56.031 31.1511 54.863L30.1361 53.201L28.3141 53.889C27.0341 54.372 25.6231 53.609 25.3281 52.273L24.9081 50.372L22.9621 50.431C21.5941 50.473 20.5081 49.292 20.6621 47.933L20.8821 45.998L19.0221 45.422C17.7151 45.017 17.0701 43.548 17.6581 42.312L18.4941 40.553L16.9221 39.404C15.8161 38.599 15.6841 37 16.6411 36.022L18.0031 34.63L16.8891 33.033C16.1061 31.911 16.5001 30.356 17.7231 29.741L19.4631 28.867L18.9281 26.995C18.5521 25.68 19.4291 24.336 20.7851 24.152L22.7151 23.89L22.8171 21.945C22.8881 20.579 24.1551 19.593 25.4971 19.859L27.4071 20.238L28.1351 18.432C28.6461 17.163 30.1641 16.642 31.3471 17.329L33.0311 18.308L34.3061 16.836C35.1981 15.802 36.8021 15.802 37.6981 16.836Z" fill="url(#paint0_linear)"/>
<path opacity="0.05" d="M48.9001 37.4411V34.5581H49.0881V31.1461H42.6471V37.4411H40.7581V31.1461H37.0231V36.7531L35.0291 31.1461H31.5651L29.6971 36.2751C29.5661 36.0121 29.4071 35.7621 29.1971 35.5421C29.1401 35.4831 29.0821 35.4271 29.0221 35.3721L29.6831 35.8331V31.6221L29.0381 31.3761C28.7121 31.2531 28.3561 31.1601 27.9811 31.1011C27.6251 31.0451 27.2141 31.0171 26.7601 31.0171C26.2741 31.0171 25.8041 31.0711 25.3651 31.1751C24.8861 31.2911 24.4521 31.4781 24.0751 31.7301C23.6671 32.0051 23.3411 32.3601 23.1061 32.7821C22.8601 33.2201 22.7361 33.7321 22.7361 34.3041C22.7361 35.0181 22.9411 35.6451 23.3441 36.1711L22.7681 35.6871V40.1641L23.3131 40.4431C23.6731 40.6281 24.0971 40.7661 24.5731 40.8571C25.0101 40.9401 25.4781 40.9821 25.9661 40.9821C26.4491 40.9821 26.9141 40.9341 27.3451 40.8411C27.6251 40.7821 27.8831 40.6931 28.1281 40.5871L28.0341 40.8461H32.0751L32.6181 39.1331H33.8941L34.4421 40.8461H37.0241H38.4801H42.6481H43.6111H49.2671V37.4401H48.9001V37.4411Z" fill="#049000"/>
<g opacity="0.07">
<path opacity="0.07" d="M29.2121 39.0101C29.4171 38.6461 29.5201 38.1991 29.5201 37.6841C29.5201 37.3031 29.4621 36.9751 29.3451 36.6821C29.2291 36.3891 29.0591 36.1241 28.8371 35.8911C28.6281 35.6751 28.3801 35.4821 28.1021 35.3201C27.8421 35.1641 27.5411 35.0141 27.2051 34.8741C26.9911 34.7871 26.7991 34.6991 26.6301 34.6171C26.4811 34.5441 26.3531 34.4711 26.2481 34.3931C26.1701 34.3361 26.1151 34.2831 26.0821 34.2341L26.0721 34.1121C26.0921 34.0811 26.1261 34.0501 26.1731 34.0211C26.2351 33.9831 26.3241 33.9501 26.4301 33.9251C26.5561 33.8961 26.7001 33.8811 26.8551 33.8811C26.9771 33.8811 27.1051 33.8921 27.2421 33.9091C27.3801 33.9281 27.5171 33.9571 27.6561 33.9951C27.7931 34.0331 27.9261 34.0801 28.0551 34.1381C28.1781 34.1941 28.2911 34.2561 28.3961 34.3281L29.1821 34.8761V31.9681L28.8601 31.8451C28.5671 31.7341 28.2451 31.6501 27.9031 31.5961C27.5731 31.5441 27.1881 31.5181 26.7591 31.5181C26.3111 31.5181 25.8811 31.5671 25.4821 31.6631C25.0621 31.7651 24.6831 31.9261 24.3551 32.1451C24.0131 32.3761 23.7391 32.6731 23.5421 33.0271C23.3391 33.3891 23.2361 33.8191 23.2361 34.3051C23.2361 34.9341 23.4231 35.4821 23.7921 35.9321C24.1391 36.3571 24.6571 36.7141 25.3341 36.9951C25.5651 37.0911 25.7801 37.1841 25.9771 37.2721C26.1521 37.3531 26.3051 37.4341 26.4361 37.5241C26.5351 37.5901 26.6111 37.6601 26.6611 37.7281C26.6851 37.7611 26.6951 37.7931 26.6811 37.8991C26.6681 37.9221 26.6411 37.9481 26.5981 37.9741C26.5571 38.0011 26.4801 38.0391 26.3451 38.0721C26.2221 38.1021 26.0691 38.1171 25.8911 38.1171C25.5721 38.1171 25.2651 38.0621 24.9531 37.9511C24.6441 37.8401 24.3531 37.6721 24.0911 37.4511L23.2691 36.7611V39.8591L23.5411 39.9991C23.8621 40.1631 24.2411 40.2861 24.6661 40.3671C25.0721 40.4441 25.5091 40.4831 25.9651 40.4831C26.4131 40.4831 26.8431 40.4391 27.2411 40.3531C27.6731 40.2621 28.0581 40.1081 28.3841 39.8961C28.7311 39.6721 29.0101 39.3731 29.2121 39.0101Z" fill="black"/>
<path opacity="0.07" d="M45.8801 37.941V37.18H48.4001V34.772H45.8801V34.059H48.5871V31.647H43.1461V37.942H40.2571V31.647H37.5221V39.652L34.6751 31.647H31.9141L28.7461 40.348H31.7061L32.2491 38.635H34.2571L34.8051 40.348H37.5221H37.7701H43.1461H43.3091H48.7661V37.942H45.8801V37.941ZM32.9391 36.303L33.2401 35.364L33.5401 36.303H32.9391Z" fill="black"/>
</g>
<path d="M23.7669 39.5531V37.8341C24.0789 38.0961 24.4169 38.2911 24.7829 38.4221C25.1489 38.5531 25.5159 38.6171 25.8889 38.6171C26.1069 38.6171 26.2979 38.5971 26.4599 38.5581C26.6229 38.5191 26.7599 38.4641 26.8679 38.3941C26.9769 38.3261 27.0589 38.2421 27.1129 38.1481C27.1669 38.0521 27.1929 37.9511 27.1929 37.8391C27.1929 37.6891 27.1499 37.5541 27.0639 37.4351C26.9779 37.3181 26.8609 37.2081 26.7119 37.1091C26.5639 37.0071 26.3869 36.9121 26.1829 36.8181C25.9789 36.7261 25.7589 36.6301 25.5229 36.5331C24.9209 36.2831 24.4719 35.9761 24.1769 35.6151C23.8809 35.2541 23.7339 34.8161 23.7339 34.3041C23.7339 33.9041 23.8149 33.5581 23.9759 33.2711C24.1369 32.9821 24.3559 32.7461 24.6329 32.5581C24.9109 32.3721 25.2329 32.2361 25.5979 32.1481C25.9629 32.0601 26.3499 32.0171 26.7579 32.0171C27.1579 32.0171 27.5139 32.0401 27.8229 32.0891C28.1339 32.1381 28.4189 32.2121 28.6799 32.3121V33.9171C28.5509 33.8271 28.4099 33.7491 28.2579 33.6811C28.1059 33.6131 27.9489 33.5581 27.7879 33.5131C27.6269 33.4681 27.4669 33.4351 27.3069 33.4131C27.1479 33.3921 26.9959 33.3801 26.8539 33.3801C26.6569 33.3801 26.4779 33.4001 26.3169 33.4371C26.1559 33.4741 26.0189 33.5271 25.9089 33.5951C25.7979 33.6631 25.7119 33.7451 25.6509 33.8391C25.5889 33.9351 25.5589 34.0401 25.5589 34.1591C25.5589 34.2881 25.5929 34.4031 25.6619 34.5051C25.7289 34.6091 25.8259 34.7041 25.9519 34.7961C26.0769 34.8881 26.2289 34.9761 26.4079 35.0641C26.5879 35.1521 26.7899 35.2441 27.0149 35.3351C27.3229 35.4641 27.5989 35.6011 27.8439 35.7471C28.0899 35.8921 28.2999 36.0561 28.4759 36.2371C28.6509 36.4211 28.7859 36.6301 28.8779 36.8641C28.9719 37.0981 29.0179 37.3701 29.0179 37.6821C29.0179 38.1121 28.9369 38.4731 28.7739 38.7641C28.6109 39.0571 28.3899 39.2931 28.1109 39.4731C27.8319 39.6551 27.5069 39.7841 27.1349 39.8621C26.7649 39.9421 26.3729 39.9811 25.9619 39.9811C25.5389 39.9811 25.1369 39.9461 24.7559 39.8741C24.3759 39.8031 24.0459 39.6951 23.7669 39.5531Z" fill="white"/>
<path d="M37.061 39.848H35.17L34.622 38.135H31.883L31.34 39.848H29.46L32.264 32.147H34.322L37.061 39.848ZM34.225 36.803L33.398 34.213C33.336 34.02 33.294 33.789 33.269 33.522H33.226C33.207 33.747 33.163 33.971 33.091 34.192L32.253 36.803H34.225Z" fill="white"/>
<path d="M42.609 39.848H38.022V32.147H39.757V38.442H42.609V39.848Z" fill="white"/>
<path d="M48.265 39.848H43.646V32.147H48.087V33.559H45.38V35.272H47.9V36.68H45.38V38.442H48.265V39.848Z" fill="white"/>
<defs>
<linearGradient id="paint0_linear" x1="22.0441" y1="22.25" x2="50.3101" y2="50.514" gradientUnits="userSpaceOnUse">
<stop stop-color="#F44F5A"/>
<stop offset="0.443" stop-color="#EE3D4A"/>
<stop offset="1" stop-color="#E52030"/>
</linearGradient>
</defs>
</svg>
