<svg width="18" height="18" viewBox="0 0 18 18" fill="none" xmlns="http://www.w3.org/2000/svg">
<path d="M2.75 0C1.24011 0 0 1.24011 0 2.75V15.25C0 16.7599 1.24011 18 2.75 18H15.25C16.7599 18 18 16.7599 18 15.25V2.75C18 1.24011 16.7599 0 15.25 0H2.75ZM2.75 1.5H15.25C15.9491 1.5 16.5 2.05089 16.5 2.75V15.25C16.5 15.9491 15.9491 16.5 15.25 16.5H2.75C2.05089 16.5 1.5 15.9491 1.5 15.25V2.75C1.5 2.05089 2.05089 1.5 2.75 1.5ZM14.2354 2.99316C14.2082 2.99397 14.1812 2.99626 14.1543 3H8.75C8.65062 2.99859 8.55194 3.01696 8.45972 3.05402C8.36749 3.09108 8.28355 3.1461 8.21277 3.21588C8.142 3.28566 8.08579 3.36882 8.04743 3.46051C8.00907 3.5522 7.98932 3.65061 7.98932 3.75C7.98932 3.84939 8.00907 3.9478 8.04743 4.03949C8.08579 4.13118 8.142 4.21434 8.21277 4.28412C8.28355 4.3539 8.36749 4.40892 8.45972 4.44598C8.55194 4.48304 8.65062 4.50141 8.75 4.5H12.4395L4.71973 12.2197C4.64775 12.2888 4.59028 12.3716 4.5507 12.4632C4.51111 12.5548 4.4902 12.6534 4.48918 12.7532C4.48817 12.8529 4.50707 12.9519 4.54479 13.0443C4.58251 13.1367 4.63828 13.2206 4.70883 13.2912C4.77939 13.3617 4.86332 13.4175 4.9557 13.4552C5.04808 13.4929 5.14706 13.5118 5.24684 13.5108C5.34662 13.5098 5.4452 13.4889 5.53679 13.4493C5.62839 13.4097 5.71116 13.3523 5.78027 13.2803L13.5 5.56055V9.25C13.4986 9.34938 13.517 9.44806 13.554 9.54028C13.5911 9.63251 13.6461 9.71645 13.7159 9.78723C13.7857 9.858 13.8688 9.91421 13.9605 9.95257C14.0522 9.99093 14.1506 10.0107 14.25 10.0107C14.3494 10.0107 14.4478 9.99093 14.5395 9.95257C14.6312 9.91421 14.7143 9.858 14.7841 9.78723C14.8539 9.71645 14.9089 9.63251 14.946 9.54028C14.983 9.44806 15.0014 9.34938 15 9.25V3.84473C15.0148 3.73682 15.0059 3.62699 14.9739 3.52287C14.942 3.41875 14.8877 3.32283 14.815 3.24179C14.7422 3.16076 14.6527 3.09654 14.5526 3.0536C14.4525 3.01066 14.3442 2.99004 14.2354 2.99316Z" fill="#01CDFD"/>
</svg>
