<svg width="24" height="24" viewBox="0 0 24 24" fill="none" xmlns="http://www.w3.org/2000/svg">
<rect x="0.5" y="0.5" width="3.5" height="3.5" rx="1.5" stroke="#C4C4C4"/>
<rect x="7" y="0.5" width="3.5" height="3.5" rx="1.5" stroke="#C4C4C4"/>
<rect x="13.5" y="0.5" width="3.5" height="3.5" rx="1.5" stroke="#C4C4C4"/>
<rect x="20" y="0.5" width="3.5" height="3.5" rx="1.5" stroke="#C4C4C4"/>
<rect x="0.5" y="7" width="3.5" height="3.5" rx="1.5" stroke="#C4C4C4"/>
<rect x="7" y="7" width="3.5" height="3.5" rx="1.5" stroke="#C4C4C4"/>
<rect x="13.5" y="7" width="3.5" height="3.5" rx="1.5" stroke="#C4C4C4"/>
<rect x="20" y="7" width="3.5" height="3.5" rx="1.5" stroke="#C4C4C4"/>
<rect x="0.5" y="13.5" width="3.5" height="3.5" rx="1.5" stroke="#C4C4C4"/>
<rect x="7" y="13.5" width="3.5" height="3.5" rx="1.5" stroke="#C4C4C4"/>
<rect x="13.5" y="13.5" width="3.5" height="3.5" rx="1.5" stroke="#C4C4C4"/>
<rect x="20" y="13.5" width="3.5" height="3.5" rx="1.5" stroke="#C4C4C4"/>
<rect x="0.5" y="20" width="3.5" height="3.5" rx="1.5" stroke="#C4C4C4"/>
<rect x="7" y="20" width="3.5" height="3.5" rx="1.5" stroke="#C4C4C4"/>
<rect x="13.5" y="20" width="3.5" height="3.5" rx="1.5" stroke="#C4C4C4"/>
<rect x="20" y="20" width="3.5" height="3.5" rx="1.5" stroke="#C4C4C4"/>
</svg>
