<svg width="19" height="19" viewBox="0 0 19 19" fill="none" xmlns="http://www.w3.org/2000/svg">
<path d="M9.81054 0.99318C9.61576 0.998857 9.43083 1.08011 9.29491 1.21974L9.02441 1.48927C8.9602 1.53607 8.90383 1.59276 8.85741 1.65724L5.48925 5.02443C5.42512 5.07093 5.36875 5.12729 5.32226 5.19142L5.05175 5.46193C4.92403 5.58671 4.84502 5.75295 4.82891 5.93077C4.8128 6.1086 4.86065 6.28634 4.96386 6.43203C5.06708 6.57773 5.21888 6.68183 5.39198 6.72562C5.56508 6.76941 5.74812 6.75001 5.9082 6.67091L7.083 7.84572C7.13212 7.91462 7.19254 7.97471 7.26171 8.02345L8.07323 8.83595C4.88356 11.5498 1.90951 14.1227 0.615226 15.417C-0.198239 16.2305 -0.198239 17.5723 0.615226 18.3858C1.42869 19.1992 2.77051 19.1992 3.58398 18.3858C4.87492 17.0948 7.45674 14.1044 10.1621 10.9248L10.9726 11.7354C11.0217 11.8046 11.0821 11.865 11.1514 11.9141L12.3291 13.0918C12.25 13.2519 12.2306 13.4349 12.2744 13.608C12.3182 13.7811 12.4223 13.9329 12.568 14.0361C12.7137 14.1394 12.8914 14.1872 13.0692 14.1711C13.2471 14.155 13.4133 14.076 13.5381 13.9483L13.8115 13.6748C13.8735 13.6294 13.9282 13.5747 13.9736 13.5127L17.3408 10.1445C17.4071 10.097 17.4651 10.0389 17.5127 9.97267L17.7803 9.70509C17.9075 9.5803 17.9862 9.41426 18.0022 9.23673C18.0181 9.0592 17.9704 8.88179 17.8674 8.73629C17.7644 8.59079 17.613 8.4867 17.4403 8.44269C17.2676 8.39868 17.0848 8.41762 16.9248 8.49611L15.7451 7.31642C15.6978 7.25059 15.64 7.19288 15.5742 7.14552L11.8564 3.42775C11.8089 3.3615 11.7508 3.30344 11.6846 3.25588L10.5039 2.07521C10.5612 1.95927 10.5875 1.83048 10.5803 1.70136C10.5732 1.57224 10.5327 1.44716 10.463 1.33828C10.3932 1.22939 10.2964 1.1404 10.1821 1.07993C10.0678 1.01946 9.93981 0.98958 9.81054 0.99318ZM9.47167 3.16408L10.1787 3.87111L7.70409 6.34572L6.99706 5.63869L9.47167 3.16408ZM11.2392 4.93166L14.0684 7.76076L11.5937 10.2354L10.7402 9.38185C10.6939 9.31814 10.6379 9.26212 10.5742 9.21584L8.76464 7.40627L11.2392 4.93166ZM15.1289 8.82131L15.8359 9.52834L13.3613 12.0029L12.6543 11.2959L15.1289 8.82131ZM8.83105 10.167C6.22192 13.2277 3.67666 16.171 2.52343 17.3242C2.28289 17.5648 1.91631 17.5648 1.67577 17.3242C1.43524 17.0837 1.43524 16.7181 1.67577 16.4776C2.83208 15.3212 5.7608 12.784 8.83105 10.167ZM9.24999 17.5C9.15061 17.4986 9.05194 17.517 8.95971 17.554C8.86748 17.5911 8.78354 17.6461 8.71276 17.7159C8.64199 17.7857 8.58578 17.8688 8.54742 17.9605C8.50906 18.0522 8.48931 18.1506 8.48931 18.25C8.48931 18.3494 8.50906 18.4478 8.54742 18.5395C8.58578 18.6312 8.64199 18.7144 8.71276 18.7841C8.78354 18.8539 8.86748 18.9089 8.95971 18.946C9.05194 18.9831 9.15061 19.0014 9.24999 19H17.25C17.3494 19.0014 17.448 18.9831 17.5403 18.946C17.6325 18.9089 17.7164 18.8539 17.7872 18.7841C17.858 18.7144 17.9142 18.6312 17.9526 18.5395C17.9909 18.4478 18.0107 18.3494 18.0107 18.25C18.0107 18.1506 17.9909 18.0522 17.9526 17.9605C17.9142 17.8688 17.858 17.7857 17.7872 17.7159C17.7164 17.6461 17.6325 17.5911 17.5403 17.554C17.448 17.517 17.3494 17.4986 17.25 17.5H9.24999Z" fill="#919191"/>
</svg>
