<svg width="20" height="22" viewBox="0 0 20 22" fill="none" xmlns="http://www.w3.org/2000/svg">
<path d="M10 0.5C9.22917 0.5 8.55607 0.816067 8.12695 1.29883C7.69783 1.78159 7.5 2.39583 7.5 3C7.5 3.17344 7.55449 3.34287 7.58789 3.51465L4.69238 5.16895C4.26449 4.77503 3.68451 4.50098 3 4.50098C2.22933 4.50098 1.55599 4.81616 1.12695 5.29883C0.697915 5.7815 0.500977 6.39596 0.500977 7C0.500977 7.60404 0.697915 8.2185 1.12695 8.70117C1.55599 9.18384 2.22933 9.49902 3 9.49902C3.68451 9.49902 4.26449 9.22497 4.69238 8.83105L7.58789 10.4854C7.55449 10.6571 7.5 10.8266 7.5 11C7.5 11.6042 7.69783 12.2184 8.12695 12.7012C8.40489 13.0139 8.8071 13.2135 9.25 13.3457V16.6543C8.88355 16.7637 8.56584 16.9312 8.30762 17.1689L5.41211 15.5137C5.44535 15.3423 5.49902 15.173 5.49902 15C5.49902 14.396 5.30208 13.7815 4.87305 13.2988C4.44401 12.8162 3.77067 12.501 3 12.501C2.22933 12.501 1.55599 12.8162 1.12695 13.2988C0.697915 13.7815 0.500977 14.396 0.500977 15C0.500977 15.604 0.697915 16.2185 1.12695 16.7012C1.55599 17.1838 2.22933 17.499 3 17.499C3.68451 17.499 4.26449 17.225 4.69238 16.8311L7.58789 18.4854C7.55449 18.6571 7.5 18.8266 7.5 19C7.5 19.6042 7.69783 20.2184 8.12695 20.7012C8.55607 21.1839 9.22917 21.5 10 21.5C10.7708 21.5 11.4439 21.1839 11.873 20.7012C12.3022 20.2184 12.5 19.6042 12.5 19C12.5 18.8266 12.4455 18.6571 12.4121 18.4854L15.3076 16.8311C15.7355 17.225 16.3155 17.499 17 17.499C17.7707 17.499 18.444 17.1838 18.873 16.7012C19.3021 16.2185 19.499 15.604 19.499 15C19.499 14.396 19.3021 13.7815 18.873 13.2988C18.444 12.8162 17.7707 12.501 17 12.501C16.2293 12.501 15.556 12.8162 15.127 13.2988C14.6979 13.7815 14.501 14.396 14.501 15C14.501 15.173 14.5546 15.3423 14.5879 15.5137L11.6924 17.1689C11.4342 16.9312 11.1165 16.7637 10.75 16.6543V13.3457C11.1929 13.2135 11.5951 13.0139 11.873 12.7012C12.3022 12.2184 12.5 11.6042 12.5 11C12.5 10.8266 12.4455 10.6571 12.4121 10.4854L15.3076 8.83105C15.7355 9.22497 16.3155 9.49902 17 9.49902C17.7707 9.49902 18.444 9.18384 18.873 8.70117C19.3021 8.2185 19.499 7.60404 19.499 7C19.499 6.39596 19.3021 5.7815 18.873 5.29883C18.444 4.81616 17.7707 4.50098 17 4.50098C16.2293 4.50098 15.556 4.81616 15.127 5.29883C14.6979 5.7815 14.501 6.39596 14.501 7C14.501 7.17303 14.5546 7.34229 14.5879 7.51367L11.6924 9.16895C11.2644 8.77496 10.6847 8.5 10 8.5C9.31534 8.5 8.73559 8.77496 8.30762 9.16895L5.41211 7.51367C5.44535 7.34229 5.49902 7.17303 5.49902 7C5.49902 6.82697 5.44535 6.65771 5.41211 6.48633L8.30762 4.83105C8.73559 5.22504 9.31534 5.5 10 5.5C10.7708 5.5 11.4439 5.18393 11.873 4.70117C12.3022 4.21841 12.5 3.60417 12.5 3C12.5 2.39583 12.3022 1.78159 11.873 1.29883C11.4439 0.816067 10.7708 0.5 10 0.5ZM10 2C10.3958 2 10.5977 2.12143 10.752 2.29492C10.9062 2.46841 11 2.72917 11 3C11 3.27083 10.9062 3.53159 10.752 3.70508C10.5977 3.87857 10.3958 4 10 4C9.60417 4 9.40226 3.87857 9.24805 3.70508C9.09383 3.53159 9 3.27083 9 3C9 2.72917 9.09383 2.46841 9.24805 2.29492C9.40226 2.12143 9.60417 2 10 2ZM3 6.00098C3.39567 6.00098 3.59782 6.1225 3.75195 6.2959C3.90608 6.46929 3.99902 6.72929 3.99902 7C3.99902 7.27071 3.90608 7.53071 3.75195 7.7041C3.59782 7.8775 3.39567 7.99902 3 7.99902C2.60433 7.99902 2.40218 7.8775 2.24805 7.7041C2.09392 7.53071 2.00098 7.27071 2.00098 7C2.00098 6.72929 2.09392 6.46929 2.24805 6.2959C2.40218 6.1225 2.60433 6.00098 3 6.00098ZM17 6.00098C17.3957 6.00098 17.5978 6.1225 17.752 6.2959C17.9061 6.46929 17.999 6.72929 17.999 7C17.999 7.27071 17.9061 7.53071 17.752 7.7041C17.5978 7.8775 17.3957 7.99902 17 7.99902C16.6043 7.99902 16.4022 7.8775 16.248 7.7041C16.0939 7.53071 16.001 7.27071 16.001 7C16.001 6.72929 16.0939 6.46929 16.248 6.2959C16.4022 6.1225 16.6043 6.00098 17 6.00098ZM10 10C10.3958 10 10.5977 10.1214 10.752 10.2949C10.9062 10.4684 11 10.7292 11 11C11 11.2708 10.9062 11.5316 10.752 11.7051C10.5977 11.8786 10.3958 12 10 12C9.60417 12 9.40226 11.8786 9.24805 11.7051C9.09383 11.5316 9 11.2708 9 11C9 10.7292 9.09383 10.4684 9.24805 10.2949C9.40226 10.1214 9.60417 10 10 10ZM3 14.001C3.39567 14.001 3.59782 14.1225 3.75195 14.2959C3.90608 14.4693 3.99902 14.7293 3.99902 15C3.99902 15.2707 3.90608 15.5307 3.75195 15.7041C3.59782 15.8775 3.39567 15.999 3 15.999C2.60433 15.999 2.40218 15.8775 2.24805 15.7041C2.09392 15.5307 2.00098 15.2707 2.00098 15C2.00098 14.7293 2.09392 14.4693 2.24805 14.2959C2.40218 14.1225 2.60433 14.001 3 14.001ZM17 14.001C17.3957 14.001 17.5978 14.1225 17.752 14.2959C17.9061 14.4693 17.999 14.7293 17.999 15C17.999 15.2707 17.9061 15.5307 17.752 15.7041C17.5978 15.8775 17.3957 15.999 17 15.999C16.6043 15.999 16.4022 15.8775 16.248 15.7041C16.0939 15.5307 16.001 15.2707 16.001 15C16.001 14.7293 16.0939 14.4693 16.248 14.2959C16.4022 14.1225 16.6043 14.001 17 14.001ZM10 18C10.3958 18 10.5977 18.1214 10.752 18.2949C10.9062 18.4684 11 18.7292 11 19C11 19.2708 10.9062 19.5316 10.752 19.7051C10.5977 19.8786 10.3958 20 10 20C9.60417 20 9.40226 19.8786 9.24805 19.7051C9.09383 19.5316 9 19.2708 9 19C9 18.7292 9.09383 18.4684 9.24805 18.2949C9.40226 18.1214 9.60417 18 10 18Z" fill="#1B1B1B"/>
</svg>
