<svg width="124" height="64" viewBox="0 0 124 64" fill="none" xmlns="http://www.w3.org/2000/svg">
<path opacity="0.85" d="M91.5566 41.9848H102.704V31.8353H107.418C116.221 31.8353 123.28 25.0376 123.28 16.9375C123.28 8.73328 116.065 2.22198 107.418 2.22198H91.5566V41.9848ZM107.418 21.5735L102.704 21.5475V12.5098H107.418C110.387 12.5098 112.523 14.4372 112.523 16.9896C112.523 19.5681 110.413 21.5996 107.418 21.5735Z" fill="white"/>
<mask id="mask0" mask-type="alpha" maskUnits="userSpaceOnUse" x="47" y="0" width="43" height="42">
<path fill-rule="evenodd" clip-rule="evenodd" d="M89.6413 20.9731C89.6413 32.5562 80.2513 41.9461 68.6682 41.9461C62.5716 41.9461 57.0825 39.3448 53.2504 35.1916L47.3063 29.2361C47.3063 29.2361 48.9229 25.6919 48.9229 20.9731C48.9229 16.2543 47.3063 12.6943 47.3063 12.6943H49.3924C52.6033 5.22808 60.0252 0 68.6682 0C80.2513 0 89.6413 9.38996 89.6413 20.9731ZM77.5094 20.9731C77.5094 25.8559 73.5511 29.8143 68.6682 29.8143C63.7853 29.8143 59.827 25.8559 59.827 20.9731C59.827 16.0902 63.7853 12.1319 68.6682 12.1319C73.5511 12.1319 77.5094 16.0902 77.5094 20.9731Z" fill="url(#paint0_linear)"/>
</mask>
<g mask="url(#mask0)">
<path fill-rule="evenodd" clip-rule="evenodd" d="M89.6412 20.9731C89.6412 32.5562 80.2512 41.9461 68.6681 41.9461C62.5715 41.9461 57.0824 39.3448 53.2503 35.1916L47.3062 29.2361C47.3062 29.2361 48.9228 25.6919 48.9228 20.9731C48.9228 16.2543 47.3062 12.6943 47.3062 12.6943H49.3922C52.6032 5.22808 60.0251 0 68.6681 0C80.2512 0 89.6412 9.38996 89.6412 20.9731ZM77.5093 20.9731C77.5093 25.8559 73.551 29.8143 68.6681 29.8143C63.7852 29.8143 59.8269 25.8559 59.8269 20.9731C59.8269 16.0902 63.7852 12.1319 68.6681 12.1319C73.551 12.1319 77.5093 16.0902 77.5093 20.9731Z" fill="url(#paint1_linear)"/>
<path opacity="0.4" d="M47.3062 20.7105V12.7518L47.3158 12.7557C48.783 13.3397 49.9519 14.5944 50.9611 15.6777C51.1686 15.9005 51.3695 16.116 51.5646 16.3169L62.4257 27.2483C62.4929 27.3123 62.5865 27.3972 62.696 27.4928C56.7196 23.3772 53.4042 21.702 47.3062 20.7105Z" fill="#1E2337"/>
</g>
<path d="M44.0474 0C32.4643 0 23.0743 9.38996 23.0743 20.9731C23.0743 32.5562 32.4643 41.9461 44.0474 41.9461C48.647 41.9461 52.9008 40.4655 56.3581 37.9549L47.3158 29.1905C46.3048 29.593 45.2019 29.8143 44.0474 29.8143C39.1646 29.8143 35.2062 25.8559 35.2062 20.9731C35.2062 16.0902 39.1646 12.1319 44.0474 12.1319C45.2019 12.1319 46.3048 12.3532 47.3158 12.7556C49.0846 13.4597 50.4198 15.1387 51.5646 16.3169L62.4256 27.2482C62.6692 27.4803 63.2602 27.9851 63.688 28.2852C63.9258 28.4521 64.3014 28.6754 64.6298 28.844C64.9701 29.0186 65.2592 29.1355 65.2592 29.1355C65.2592 29.1355 63.6425 25.6791 63.6425 20.998C63.6425 16.3169 65.2592 12.8605 65.2592 12.8605L58.4546 6.08377C56.8475 4.47873 55.1746 3.04622 53.1233 2.06008C50.3769 0.739738 47.2986 0 44.0474 0Z" fill="url(#paint2_linear)"/>
<path opacity="0.3" fill-rule="evenodd" clip-rule="evenodd" d="M47.3038 29.203C48.3961 31.6295 50.1057 35.9433 50.1057 41.0657C52.3759 40.3818 54.4838 39.3236 56.3578 37.9627L47.3155 29.1984C47.3116 29.1999 47.3077 29.2015 47.3038 29.203Z" fill="#262D47"/>
<path opacity="0.85" d="M13.0567 31.4857V2.22198L0.906738 2.22198V41.9462H23.655V31.4857H13.0567Z" fill="white"/>
<path opacity="0.7" d="M1.37099 63V53.2072H2.8539L6.05754 58.4254L9.31713 53.2072H10.7161V63H9.20522V58.985C9.20522 58.3601 9.21454 57.7865 9.2332 57.2642C9.26118 56.7419 9.29848 56.2337 9.34511 55.7393L6.47723 60.1881H5.55391L2.74198 55.7533C2.78861 56.2197 2.82125 56.714 2.83991 57.2362C2.86789 57.7492 2.88188 58.3321 2.88188 58.985V63H1.37099ZM20.8343 63L24.6255 53.2072H26.1643L29.9276 63H28.3187L27.3954 60.5658H23.2964L22.3731 63H20.8343ZM24.5975 57.1523L23.856 59.1109H26.8498L26.0804 57.0963C26.0524 57.0311 25.9965 56.8679 25.9125 56.6067C25.8286 56.3456 25.7353 56.0564 25.6327 55.7393C25.5301 55.4222 25.4369 55.1425 25.3529 54.9C25.2783 55.1425 25.1944 55.4083 25.1011 55.6974C25.0079 55.9865 24.9146 56.2616 24.8213 56.5228C24.7374 56.7839 24.6628 56.9938 24.5975 57.1523ZM40.0448 63V53.2072H44.2138C44.7734 53.2072 45.2863 53.3471 45.7526 53.6269C46.2283 53.8974 46.606 54.2704 46.8858 54.7461C47.1656 55.2124 47.3055 55.7393 47.3055 56.3269C47.3055 56.9238 47.1283 57.4741 46.7739 57.9777C46.4195 58.4813 45.9671 58.8497 45.4169 59.0829L47.6972 63.014L45.8645 63L43.7941 59.3207H41.5557V63H40.0448ZM41.5557 57.8658H44.3537C44.764 57.8658 45.0998 57.7166 45.3609 57.4181C45.6314 57.1197 45.7666 56.7513 45.7666 56.3129C45.7666 55.828 45.5941 55.4316 45.249 55.1238C44.9132 54.816 44.4842 54.6621 43.962 54.6621H41.5557V57.8658ZM58.1659 63V53.2072H59.6767V58.0057L64.4752 53.2072H66.4617L62.2369 57.3062L66.5457 63H64.6571L61.1736 58.3414L59.6767 59.7964V63H58.1659ZM76.806 63V53.2072H82.9755V54.6621H78.3169V57.2502H82.2061V58.7052H78.3169V61.5451H82.9755V63H76.806ZM95.6538 63V54.6621H92.9118V53.2072H99.9906V54.6621H97.1646V63H95.6538ZM113.269 63.1399C111.684 63.1399 110.453 62.5057 109.576 61.2373L110.611 60.0482C111.068 60.701 111.506 61.1534 111.926 61.4052C112.346 61.657 112.845 61.7829 113.423 61.7829C113.955 61.7829 114.402 61.6617 114.766 61.4192C115.139 61.1767 115.326 60.8642 115.326 60.4819C115.326 60.0528 115.144 59.7031 114.78 59.4326C114.416 59.1528 113.843 58.9383 113.059 58.7891C111.063 58.3974 110.066 57.4041 110.066 55.8093C110.066 55.2777 110.215 54.8067 110.513 54.3963C110.812 53.986 111.213 53.6642 111.716 53.4311C112.229 53.1886 112.803 53.0673 113.437 53.0673C114.976 53.0673 116.081 53.6409 116.753 54.7881L115.689 55.8373C115.41 55.3803 115.074 55.0305 114.682 54.7881C114.3 54.5456 113.871 54.4243 113.395 54.4243C112.854 54.4243 112.416 54.5502 112.08 54.802C111.744 55.0445 111.576 55.3663 111.576 55.7673C111.576 56.1684 111.726 56.4948 112.024 56.7466C112.332 56.9891 112.854 57.185 113.591 57.3342C114.617 57.5487 115.414 57.8938 115.983 58.3694C116.552 58.8451 116.837 59.4186 116.837 60.0901C116.837 61.0228 116.515 61.7642 115.871 62.3145C115.237 62.8648 114.37 63.1399 113.269 63.1399Z" fill="#E1E2E3"/>
<defs>
<linearGradient id="paint0_linear" x1="81.788" y1="5.82056" x2="56.7485" y2="38.8141" gradientUnits="userSpaceOnUse">
<stop stop-color="#FF52BC"/>
<stop offset="0.516172" stop-color="#C83E93"/>
<stop offset="1" stop-color="#861F5E"/>
</linearGradient>
<linearGradient id="paint1_linear" x1="81.7878" y1="5.82056" x2="56.7483" y2="38.8141" gradientUnits="userSpaceOnUse">
<stop stop-color="#FF52BC"/>
<stop offset="0.516172" stop-color="#C83E93"/>
<stop offset="1" stop-color="#861F5E"/>
</linearGradient>
<linearGradient id="paint2_linear" x1="56.6632" y1="37.5931" x2="28.7208" y2="10.7572" gradientUnits="userSpaceOnUse">
<stop stop-color="#00FFFF"/>
<stop offset="1" stop-color="#01CDFD"/>
</linearGradient>
</defs>
</svg>
