<svg width="170" height="58" viewBox="0 0 170 58" fill="none" xmlns="http://www.w3.org/2000/svg">
<path d="M125.228 57.9998H140.628V43.9788H147.14C159.301 43.9788 169.052 34.5879 169.052 23.3981C169.052 12.0644 159.086 3.06934 147.14 3.06934H125.228V57.9998ZM147.14 29.8026L140.628 29.7666V17.2815H147.14C151.242 17.2815 154.192 19.944 154.192 23.4701C154.192 27.0321 151.278 29.8386 147.14 29.8026Z" fill="white"/>
<path fill-rule="evenodd" clip-rule="evenodd" d="M122.583 28.9733C122.583 44.9748 109.611 57.9466 93.6094 57.9466C85.1872 57.9466 77.6043 54.353 72.3104 48.6155L64.0989 40.3882C64.0989 40.3882 66.3322 35.4921 66.3322 28.9733C66.3322 22.4545 64.0989 17.5366 64.0989 17.5366H66.9807C71.4164 7.22234 81.6695 0 93.6094 0C109.611 0 122.583 12.9718 122.583 28.9733ZM105.823 28.9733C105.823 35.7187 100.355 41.187 93.6094 41.187C86.8639 41.187 81.3957 35.7187 81.3957 28.9733C81.3957 22.2278 86.8639 16.7596 93.6094 16.7596C100.355 16.7596 105.823 22.2278 105.823 28.9733Z" fill="url(#paint0_linear)"/>
<path d="M59.5969 0C43.5953 0 30.6235 12.9718 30.6235 28.9733C30.6235 44.9748 43.5953 57.9466 59.5969 57.9466C65.951 57.9466 71.8273 55.9011 76.6034 52.4328L64.1119 40.3253C62.7152 40.8813 61.1917 41.187 59.5969 41.187C52.8514 41.187 47.3831 35.7187 47.3831 28.9733C47.3831 22.2278 52.8514 16.7596 59.5969 16.7596C61.1917 16.7596 62.7152 17.0653 64.1119 17.6213C66.5554 18.594 68.4 20.9133 69.9815 22.541L84.9855 37.6421C85.3219 37.9628 86.1383 38.6601 86.7293 39.0747C87.0579 39.3052 87.5767 39.6137 88.0304 39.8465C88.5004 40.0877 88.8998 40.2493 88.8998 40.2493C88.8998 40.2493 86.6665 35.4745 86.6665 29.0077C86.6665 22.541 88.8998 17.7661 88.8998 17.7661L79.4997 8.40443C77.2795 6.18715 74.9684 4.2082 72.1347 2.8459C68.3407 1.02191 64.0881 0 59.5969 0Z" fill="url(#paint1_linear)"/>
<path d="M16.7846 43.4957V3.06934L0 3.06934V57.9464H31.4256V43.4957H16.7846Z" fill="white"/>
<defs>
<linearGradient id="paint0_linear" x1="111.734" y1="8.04083" x2="77.1428" y2="53.6198" gradientUnits="userSpaceOnUse">
<stop stop-color="#FF52BC"/>
<stop offset="0.516172" stop-color="#C83E93"/>
<stop offset="1" stop-color="#861F5E"/>
</linearGradient>
<linearGradient id="paint1_linear" x1="77.0249" y1="51.933" x2="38.4238" y2="14.8606" gradientUnits="userSpaceOnUse">
<stop stop-color="#00FFFF"/>
<stop offset="1" stop-color="#01CDFD"/>
</linearGradient>
</defs>
</svg>
