<svg width="23" height="18" viewBox="0 0 23 18" fill="none" xmlns="http://www.w3.org/2000/svg">
<path d="M11.5 0C6.71815 0 2.80568 3.75344 2.52736 8.4668L1.53029 7.46973C1.46038 7.39773 1.37673 7.3405 1.28431 7.30142C1.19188 7.26233 1.09255 7.24219 0.992202 7.24219C0.842941 7.24222 0.697085 7.28679 0.573296 7.37019C0.449506 7.45358 0.353413 7.57202 0.297311 7.71033C0.241208 7.84865 0.227648 8.00056 0.258365 8.14662C0.289082 8.29269 0.36268 8.42627 0.469741 8.53027L2.71974 10.7803C2.8604 10.9209 3.05114 10.9999 3.25001 10.9999C3.44889 10.9999 3.63963 10.9209 3.78029 10.7803L6.03029 8.53027C6.10227 8.46116 6.15973 8.37839 6.19932 8.28679C6.23891 8.1952 6.25982 8.09662 6.26083 7.99684C6.26185 7.89706 6.24294 7.79808 6.20523 7.7057C6.16751 7.61332 6.11174 7.52939 6.04118 7.45883C5.97062 7.38828 5.88669 7.33251 5.79431 7.29479C5.70193 7.25707 5.60295 7.23817 5.50317 7.23918C5.40339 7.24019 5.30482 7.26111 5.21322 7.3007C5.12163 7.34028 5.03885 7.39775 4.96974 7.46973L4.03029 8.40918C4.33103 4.53643 7.54827 1.5 11.5 1.5C14.038 1.5 16.2672 2.75839 17.626 4.68262C17.6828 4.7631 17.7549 4.83161 17.8382 4.88423C17.9215 4.93685 18.0143 4.97255 18.1114 4.98928C18.2085 5.00602 18.3079 5.00347 18.404 4.98178C18.5001 4.96009 18.591 4.91969 18.6715 4.86287C18.7519 4.80605 18.8204 4.73394 18.873 4.65065C18.9257 4.56736 18.9613 4.47452 18.9781 4.37743C18.9948 4.28035 18.9922 4.18092 18.9705 4.08483C18.9488 3.98873 18.9084 3.89786 18.8516 3.81738C17.2234 1.51161 14.535 0 11.5 0ZM19.7393 7C19.5441 7.00285 19.3577 7.08168 19.2197 7.21973L16.9697 9.46973C16.8978 9.53884 16.8403 9.62161 16.8007 9.71321C16.7611 9.8048 16.7402 9.90338 16.7392 10.0032C16.7382 10.1029 16.7571 10.2019 16.7948 10.2943C16.8325 10.3867 16.8883 10.4706 16.9588 10.5412C17.0294 10.6117 17.1133 10.6675 17.2057 10.7052C17.2981 10.7429 17.3971 10.7618 17.4969 10.7608C17.5966 10.7598 17.6952 10.7389 17.7868 10.6993C17.8784 10.6597 17.9612 10.6023 18.0303 10.5303L18.9697 9.59082C18.669 13.4636 15.4518 16.5 11.5 16.5C8.96203 16.5 6.73282 15.2416 5.37404 13.3174C5.31723 13.2369 5.24513 13.1684 5.16184 13.1158C5.07856 13.0632 4.98572 13.0275 4.88864 13.0107C4.79156 12.994 4.69213 12.9965 4.59603 13.0182C4.49994 13.0399 4.40905 13.0803 4.32857 13.1371C4.24809 13.1939 4.17959 13.2661 4.12699 13.3494C4.07438 13.4326 4.03869 13.5255 4.02197 13.6226C4.00524 13.7197 4.0078 13.8191 4.0295 13.9152C4.05121 14.0113 4.09163 14.1021 4.14845 14.1826C5.77667 16.4884 8.46499 18 11.5 18C16.2819 18 20.1943 14.2466 20.4727 9.5332L21.4697 10.5303C21.5389 10.6023 21.6216 10.6597 21.7132 10.6993C21.8048 10.7389 21.9034 10.7598 22.0032 10.7608C22.103 10.7618 22.2019 10.7429 22.2943 10.7052C22.3867 10.6675 22.4706 10.6117 22.5412 10.5412C22.6117 10.4706 22.6675 10.3867 22.7052 10.2943C22.7429 10.2019 22.7618 10.1029 22.7608 10.0032C22.7598 9.90338 22.7389 9.8048 22.6993 9.71321C22.6597 9.62161 22.6023 9.53884 22.5303 9.46973L20.2803 7.21973C20.2094 7.14879 20.125 7.0928 20.032 7.05505C19.9391 7.01731 19.8396 6.99859 19.7393 7Z" fill="#1B1B1B"/>
</svg>
