<svg width="20" height="20" viewBox="0 0 20 20" fill="none" xmlns="http://www.w3.org/2000/svg">
<path d="M10.0048 0.499986C9.86462 0.49911 9.72701 0.537531 9.60757 0.61089C9.48812 0.684249 9.39162 0.78961 9.32901 0.915025L6.75284 6.06737L0.635654 7.00877C0.498729 7.02993 0.37034 7.0886 0.264725 7.17828C0.159109 7.26795 0.0803947 7.38512 0.0373103 7.5168C-0.00577407 7.64848 -0.0115446 7.78953 0.0206387 7.92428C0.0528219 8.05904 0.121701 8.18226 0.219638 8.28026L4.45108 12.5117L3.5087 18.6357C3.48762 18.7727 3.50492 18.9129 3.55868 19.0407C3.61244 19.1685 3.70056 19.2788 3.81325 19.3596C3.92594 19.4403 4.0588 19.4882 4.19708 19.498C4.33536 19.5078 4.47365 19.4791 4.59659 19.415L9.99991 16.5957L15.4032 19.415C15.5262 19.4791 15.6645 19.5078 15.8027 19.498C15.941 19.4882 16.0739 19.4403 16.1866 19.3596C16.2993 19.2788 16.3874 19.1685 16.4411 19.0407C16.4949 18.9129 16.5122 18.7727 16.4911 18.6357L15.5487 12.5117L19.7802 8.28026C19.8781 8.18226 19.947 8.05904 19.9792 7.92428C20.0114 7.78953 20.0056 7.64848 19.9625 7.5168C19.9194 7.38512 19.8407 7.26795 19.7351 7.17828C19.6295 7.0886 19.5011 7.02993 19.3642 7.00877L13.247 6.06737L10.6708 0.915025C10.6089 0.791094 10.514 0.686715 10.3964 0.613457C10.2789 0.5402 10.1433 0.500924 10.0048 0.499986ZM9.99991 2.92674L12.079 7.08495C12.1326 7.19222 12.2111 7.2851 12.3079 7.35578C12.4048 7.42647 12.5172 7.4729 12.6357 7.4912L17.6728 8.26659L14.2196 11.7197C14.1363 11.803 14.0738 11.9048 14.0372 12.0168C14.0005 12.1288 13.9908 12.2478 14.0087 12.3642L14.7831 17.3994L10.3466 15.0849C10.2395 15.0292 10.1206 15 9.99991 15C9.8792 15 9.76027 15.0292 9.65323 15.0849L5.21671 17.3994L5.99112 12.3642C6.00906 12.2478 5.9993 12.1288 5.96266 12.0168C5.92601 11.9048 5.8635 11.803 5.78018 11.7197L2.32706 8.26659L7.36417 7.4912C7.48267 7.4729 7.59505 7.42647 7.69191 7.35578C7.78876 7.2851 7.86725 7.19222 7.92081 7.08495L9.99991 2.92674Z" fill="#919191"/>
</svg>
