<svg width="27" height="26" viewBox="0 0 27 26" fill="none" xmlns="http://www.w3.org/2000/svg">
<path opacity="0.2" d="M26.3804 10.9898C26.5063 10.865 26.5953 10.7067 26.6375 10.5328C26.6797 10.3589 26.6733 10.1764 26.6191 10.006C26.5649 9.83567 26.465 9.68425 26.3308 9.56901C26.1966 9.45377 26.0335 9.37932 25.86 9.35413L18.5169 8.26269C18.3665 8.24007 18.2237 8.18037 18.1009 8.08873C17.9781 7.9971 17.8789 7.87629 17.812 7.73674L14.5405 0.935794C14.4627 0.775637 14.3426 0.640867 14.1939 0.546655C14.0453 0.452442 13.8738 0.402527 13.6988 0.402527C13.5239 0.402527 13.3524 0.452442 13.2037 0.546655C13.055 0.640867 12.935 0.775637 12.8572 0.935794L9.58564 7.73674C9.51872 7.87629 9.41958 7.9971 9.29678 8.08873C9.17397 8.18037 9.0312 8.24007 8.88078 8.26269L1.51391 9.35413C1.26812 9.3903 1.04634 9.52443 0.896989 9.72722C0.747643 9.93002 0.682879 10.185 0.716845 10.4364C0.747395 10.6468 0.84455 10.8412 0.993438 10.9898L6.3052 16.2828C6.4149 16.3906 6.49697 16.5244 6.54417 16.6723C6.59137 16.8202 6.60224 16.9777 6.57584 17.131L5.32077 24.619C5.2914 24.7955 5.31084 24.9768 5.37689 25.1425C5.44294 25.3083 5.55298 25.4519 5.6946 25.5572C5.83622 25.6624 6.00378 25.7251 6.1784 25.7382C6.35303 25.7514 6.52776 25.7144 6.68291 25.6314L13.2497 22.0896C13.3847 22.0176 13.5347 21.9801 13.6869 21.9801C13.8392 21.9801 13.9891 22.0176 14.1241 22.0896L20.691 25.6192C20.8451 25.7012 21.0185 25.7378 21.1919 25.7251C21.3652 25.7123 21.5317 25.6507 21.6728 25.5471C21.8139 25.4435 21.9242 25.3019 21.9913 25.138C22.0585 24.9742 22.0799 24.7945 22.0531 24.619L20.798 17.131C20.7716 16.9777 20.7825 16.8202 20.8297 16.6723C20.8769 16.5244 20.959 16.3906 21.0687 16.2828L26.3804 10.9898Z" fill="black"/>
</svg>
