<svg width="50" height="50" viewBox="0 0 50 50" fill="none" xmlns="http://www.w3.org/2000/svg">
<circle cx="25" cy="25" r="25" fill="#2D2D2D"/>
<path d="M28.2373 21.9413C29.0469 21.1317 29.8507 19.2426 26.4773 21.5365C21.6843 24.8438 16.9601 27.9487 16.9601 27.9487C16.4738 28.1686 15.9481 28.288 15.4146 28.2995C14.881 28.3111 14.3506 28.2148 13.8552 28.0162C11.8312 27.409 9.46839 26.5994 9.46839 26.5994C9.46839 26.5994 7.85506 25.5859 10.6168 24.5065C10.6168 24.5065 22.2929 19.7149 26.3424 18.0267C27.8941 17.3521 33.158 15.1931 33.158 15.1931C33.158 15.1931 35.5883 14.2471 35.3859 16.5425C35.3184 17.487 34.7787 20.7958 34.2389 24.3715C33.4279 29.433 32.5508 34.9682 32.5508 34.9682C32.5508 34.9682 32.4159 36.5199 31.2689 36.7898C30.0412 36.769 28.8549 36.342 27.8956 35.5754C27.6257 35.373 22.8341 32.3355 21.0785 30.8513C20.8999 30.7303 20.7549 30.5661 20.6568 30.374C20.5587 30.1819 20.5108 29.9681 20.5175 29.7525C20.5242 29.5369 20.5854 29.3265 20.6953 29.1409C20.8052 28.9553 20.9602 28.8005 21.146 28.6909C23.5807 26.4645 26.4832 23.6969 28.2373 21.9413Z" fill="#1DA1F2"/>
</svg>
