<svg width="50" height="50" viewBox="0 0 50 50" fill="none" xmlns="http://www.w3.org/2000/svg">
<circle cx="25" cy="25" r="25" fill="#2D2D2D"/>
<path d="M41.0375 16.2625C39.9289 16.7547 38.7406 17.0852 37.4914 17.2352C38.7664 16.4711 39.7461 15.2617 40.2055 13.8227C39.0148 14.5281 37.6906 15.0414 36.2867 15.318C35.1617 14.118 33.5586 13.3703 31.7844 13.3703C28.3766 13.3703 25.6133 16.1313 25.6133 19.5391C25.6133 20.0219 25.6695 20.493 25.775 20.9453C20.6469 20.6875 16.1023 18.2313 13.0578 14.4977C12.5258 15.4117 12.2234 16.4711 12.2234 17.6008C12.2234 19.7406 13.3109 21.6297 14.968 22.7383C13.9555 22.7055 13.0039 22.4266 12.1719 21.9648C12.1719 21.9906 12.1719 22.0164 12.1719 22.0422C12.1719 25.0328 14.3 27.5242 17.1195 28.0938C16.6039 28.2344 16.0578 28.3094 15.4953 28.3094C15.0969 28.3094 14.7102 28.2719 14.3328 28.1969C15.1203 30.6461 17.3984 32.4344 20.0961 32.4836C17.9867 34.1383 15.3266 35.1227 12.4344 35.1227C11.9352 35.1227 11.4453 35.0945 10.9648 35.0359C13.693 36.7891 16.9367 37.8086 20.4219 37.8086C31.7703 37.8086 37.9766 28.4078 37.9766 20.2563C37.9766 19.9891 37.9695 19.7195 37.9602 19.457C39.1648 18.5875 40.2102 17.5 41.0375 16.2625Z" fill="#1DA1F2"/>
</svg>
