<svg width="215" height="154" viewBox="0 0 215 154" fill="none" xmlns="http://www.w3.org/2000/svg">
<path opacity="0.3" d="M88.6294 45.7654L45.9717 132.758L74.1415 134.608C104.395 130.204 121.667 131.942 152.718 140.652L149.74 57.2686C150.779 53.8336 146.625 45.8612 121.701 41.4517C96.7775 37.0421 89.2684 42.4901 88.6294 45.7654Z" fill="url(#paint0_linear_5569:20860)"/>
<path d="M79.4149 55.2043C79.6666 57.3518 78.2434 63.7226 73.0612 70.7304L55.9208 73.108C57.7392 71.0741 61.7388 65.6475 63.1902 60.2123C64.6415 54.7771 65.0425 50.973 65.0616 49.7504C68.3664 49.9065 75.4481 49.6553 77.3364 47.4019" stroke="#01CDFD" stroke-linecap="round"/>
<path d="M104.654 130.302L104.654 130.301C105.407 129.118 105.856 127.326 105.856 124.787C105.856 122.131 105.403 120.291 104.654 119.114L104.649 119.105L104.646 119.101L104.646 119.101L104.64 119.092L104.854 118.962L104.64 119.092C104.293 118.52 103.893 118.115 103.432 117.852C102.97 117.588 102.432 117.457 101.796 117.457C101.175 117.457 100.643 117.587 100.179 117.852C99.7149 118.117 99.3047 118.526 98.9422 119.106C98.9421 119.106 98.9421 119.106 98.9421 119.106L98.94 119.109L98.9389 119.111L98.9367 119.114L104.654 130.302ZM104.654 130.302L104.651 130.306M104.654 130.302L104.651 130.306M104.651 130.306C104.309 130.85 103.911 131.239 103.448 131.494C102.985 131.749 102.442 131.878 101.796 131.878C101.166 131.878 100.629 131.751 100.164 131.495C99.6986 131.239 99.2914 130.847 98.9338 130.296C98.1829 129.113 97.7354 127.323 97.7354 124.787C97.7354 122.131 98.1879 120.291 98.9367 119.114L104.651 130.306ZM69.3685 139.739V139.989H69.6185H78.5451H78.7951V139.739V134.525H83.0116H83.2616V134.275V126.465V126.215H83.0116H78.7951V109.557V109.307H78.5451H71.2228H71.1055L71.0305 109.397L55.9933 127.492L55.887 127.62L55.9639 127.767L59.4197 134.391L59.4898 134.525H59.6414H69.3685V139.739ZM77.5513 133.031H77.3013V133.281V138.495H70.8624V133.281V133.031H70.6124H60.3954L57.6711 127.81L71.8064 110.8H77.3013V127.459V127.709H77.5513H81.7677V133.031H77.5513ZM70.6124 127.709H70.8624V127.459V121.198V120.5L70.4192 121.039L65.2748 127.3L64.939 127.709H65.468H70.6124ZM91.9063 136.19L91.9071 136.191L91.9104 136.195C91.9104 136.195 91.9104 136.195 91.9104 136.195C94.2907 139.027 97.6469 140.387 101.796 140.387C105.968 140.387 109.339 139.03 111.72 136.195C114.096 133.374 115.202 129.516 115.202 124.787C115.202 120.062 114.098 116.216 111.72 113.419C109.34 110.56 105.969 109.187 101.796 109.187C97.6435 109.187 94.2868 110.563 91.9082 113.422C89.5588 116.219 88.4684 120.064 88.4684 124.787C88.4684 129.513 89.5599 133.369 91.9063 136.19ZM110.577 135.234L110.577 135.234C108.533 137.666 105.619 138.894 101.796 138.894C97.9999 138.894 95.0986 137.667 93.0546 135.235C91.0039 132.769 89.9622 129.297 89.9622 124.787C89.9622 120.277 91.0041 116.819 93.054 114.38L93.0548 114.379C95.0992 111.921 98.0005 110.681 101.796 110.681C105.618 110.681 108.532 111.921 110.576 114.379L110.578 114.381C112.654 116.82 113.709 120.278 113.709 124.787C113.709 129.297 112.654 132.768 110.577 135.234ZM97.6764 131.103L97.6776 131.104C98.653 132.609 100.034 133.372 101.796 133.372C103.582 133.372 104.965 132.61 105.915 131.102C106.881 129.584 107.349 127.469 107.349 124.787C107.349 122.002 106.882 119.834 105.916 118.314C104.968 116.755 103.586 115.963 101.796 115.963C100.03 115.963 98.6494 116.756 97.6759 118.313C96.7092 119.833 96.2416 122.001 96.2416 124.787C96.2416 127.47 96.7102 129.584 97.6764 131.103ZM132.955 139.739V139.989H133.205H142.132H142.382V139.739V134.525H146.598H146.848V134.275V126.465V126.215H146.598H142.382V109.557V109.307H142.132H134.809H134.692L134.617 109.397L119.58 127.492L119.474 127.62L119.551 127.767L123.006 134.391L123.077 134.525H123.228H132.955V139.739ZM141.138 133.031H140.888V133.281V138.495H134.449V133.281V133.031H134.199H123.982L121.258 127.81L135.393 110.8H140.888V127.459V127.709H141.138H145.354V133.031H141.138ZM134.199 127.709H134.449V127.459V121.198V120.5L134.006 121.039L128.861 127.3L128.526 127.709H129.055H134.199ZM68.0998 126.215L69.3685 124.671V126.215H68.0998ZM131.686 126.215L132.955 124.671V126.215H131.686Z" fill="#C83E93" stroke="#C83E93" stroke-width="0.5" stroke-linecap="round"/>
<path d="M128.221 4.40365C109.526 2.12375 100.862 11.4333 98.8672 16.3731C111.977 14.8911 138.813 21.9303 150.592 25.6351C150.925 19.5079 142.992 6.20508 128.221 4.40365Z" fill="#2F273D"/>
<path d="M99.0228 16.3101C103.279 7.45448 115.143 2.38511 127.833 4.67645C140.381 6.94222 149.657 15.6687 150.723 25.3241" stroke="#584579" stroke-width="2" stroke-linecap="round"/>
<path d="M165.617 89.042C161.377 91.9103 155.432 93.043 152.99 93.2508L165.617 102.76C166.656 102.76 170.106 102.198 175.593 99.9538C181.08 97.7091 186.297 90.8087 188.22 87.6391C187.648 88.1068 185.757 88.7615 182.764 87.6391C179.771 86.5167 175.697 83.0146 174.034 81.4038C172.995 82.7548 169.857 86.1738 165.617 89.042Z" stroke="#01CDFD" stroke-linecap="round"/>
<path d="M33.906 91.1156C35.3227 90.8275 38.4875 90.0639 39.813 89.3147L44.3513 93.5649M26.7744 83.768C31.0966 84.0801 41.7003 83.4078 49.5378 78.2212C51.939 81.1026 56.4533 86.2892 58.6864 87.1536L60.4873 87.5138C58.7585 89.5308 53.6583 93.5793 47.0886 93.6369C38.8765 93.7089 30.016 91.4758 26.7744 83.768Z" stroke="#01CDFD" stroke-linecap="round"/>
<line x1="1.12012" y1="152.593" x2="213.879" y2="152.593" stroke="#01CDFD" stroke-width="2" stroke-linecap="round"/>
<path opacity="0.5" d="M149.807 21.1569C132.138 15.1841 108.9 14.7278 99.4894 15.2463L98.8672 16.5684C122.883 17.9372 143.456 23.4123 150.741 25.9787C150.803 24.7344 150.144 22.2457 149.807 21.1569Z" fill="#584579"/>
<path d="M176.891 153.063C167.997 146.482 156.194 141.149 142.522 137.635M31.3086 153.063C41.0053 145.888 54.16 140.197 69.4254 136.728M82.4655 133.558C84.7129 133.268 88.1529 132.916 90.4615 132.72M113.699 133.237C116.947 133.424 120.145 133.706 123.281 134.076" stroke="#01CDFD" stroke-linecap="round"/>
<path d="M46.6104 144.212C46.6104 145.391 47.7383 147.754 52.2501 147.784C57.8898 147.822 62.9279 143.611 58.0778 139.926" stroke="#01CDFD"/>
<path d="M154.749 141.469C154.239 142.756 154.443 145.637 159.343 146.862C164.243 148.087 167.244 147.683 168.132 147.328" stroke="#01CDFD"/>
<path d="M78.1465 138.364C81.293 139.319 89.1093 140.656 95.2026 138.364" stroke="#01CDFD"/>
<path d="M90.357 83.4211C89.4336 86.7617 86.8028 92.0602 86.7778 92.1504C86.5128 92.7575 86.7242 93.3991 87.3064 93.7544C87.3966 93.7793 87.4869 93.8043 87.4869 93.8043C88.0287 93.954 88.5799 93.7176 88.82 93.2009C88.8699 93.0203 90.5156 89.8793 91.66 86.794C92.3382 87.8562 93.247 88.7877 94.7819 89.212C93.722 91.6402 92.6466 93.7727 92.6216 93.8629C92.3566 94.47 92.5681 95.1116 93.1502 95.4668C93.2405 95.4918 93.3307 95.5168 93.3307 95.5168C93.8725 95.6665 94.4237 95.4301 94.6638 94.9134C94.6887 94.8231 96.1194 92.1085 97.1889 89.2942C98.011 89.1327 98.6122 88.7157 99.0079 88.3391C99.9819 89.3859 101.277 90.3269 103.083 90.8261C105.069 91.3751 106.483 91.1828 107.781 91.0558C107.987 91.0154 108.077 91.0404 108.283 91L107.329 98.3171C107.27 98.8837 107.596 99.46 108.138 99.6097C108.228 99.6347 108.228 99.6347 108.319 99.6596C108.976 99.744 109.577 99.3271 109.661 98.6701L110.893 89.2918L112.072 85.7302C112.246 85.0982 111.945 84.4317 111.313 84.257C110.706 83.992 110.014 84.384 109.84 85.016L108.636 88.6679C108.25 88.6584 107.929 88.7641 107.543 88.7545C106.334 88.9065 105.241 88.9931 103.707 88.5689C99.5532 87.4208 98.7553 82.924 98.7149 82.7185C98.5938 82.1019 98.0366 81.6563 97.3297 81.7525C96.7131 81.8736 96.2676 82.4308 96.3637 83.1377C96.4291 83.2529 96.6618 84.8722 97.5515 86.576C97.4113 86.7316 97.0156 87.1082 96.2184 87.1794C95.9226 87.1948 95.5365 87.1852 95.1753 87.0854C93.0084 86.4864 92.6238 83.6589 92.568 83.1575C92.5775 82.7714 92.587 82.3853 92.6215 81.9089C92.6846 80.2742 92.8322 77.9824 93.9303 74.0097C94.4294 72.204 95.6817 71.1895 97.1263 71.5888C97.9389 71.8134 98.546 72.0784 99.3087 72.4836C100.408 73.0789 101.777 73.7491 104.396 74.4728C106.111 74.947 107.811 75.1254 109.265 75.1386C108.384 75.8668 107.272 76.7256 106.897 78.08C106.498 79.5246 107.101 80.8576 108.471 81.5278C108.652 81.5777 108.807 81.7179 109.078 81.7928C110.342 82.1422 111.741 81.654 112.632 80.5397C113.243 79.7367 113.056 79.0048 112.589 78.5842C112.122 78.1636 111.3 78.3251 110.97 78.8169C110.499 79.4643 109.892 79.1994 109.802 79.1744C109.621 79.1245 109.4 78.869 109.5 78.5079C109.675 77.8759 110.416 77.3033 111.158 76.7307C111.784 76.2235 112.5 75.7412 112.881 75.0688C113.949 75.0725 115.082 75.1914 116.075 75.4659C118.784 76.2146 121.368 77.4148 122.803 78.2002C122.448 78.7823 122.183 79.3894 121.983 80.1117C121.286 79.8217 120.473 79.5971 119.635 79.4628C118.978 79.3784 118.443 79.9106 118.383 80.4773C118.299 81.1342 118.831 81.6701 119.398 81.7296C120.145 81.8389 120.867 82.0386 121.384 82.2786C121.059 83.4524 120.741 85.3081 121.294 86.8217C120.063 88.8139 118.001 91.3537 116.646 90.9794C116.466 90.9295 116.22 90.7643 115.884 90.5742C115.703 90.5243 115.638 90.409 115.457 90.3591C115.056 90.0538 114.629 89.8387 114.112 89.5986C113.53 89.2434 112.864 89.5451 112.534 90.0369C112.269 90.644 112.48 91.2855 113.062 91.6408C113.489 91.8559 113.825 92.046 114.161 92.2361L113.158 99.7337C113.098 100.3 113.425 100.877 113.966 101.026C114.057 101.051 114.057 101.051 114.147 101.076C114.804 101.161 115.405 100.744 115.49 100.087L116.384 93.3364C119.233 93.9295 121.791 90.6519 122.997 88.75C123.333 88.9401 123.669 89.1302 124.03 89.2301C127.822 90.2783 129.207 86.6763 129.756 84.6899C130.323 84.7494 131.07 84.8587 131.742 85.239C132.349 85.5039 132.991 85.2925 133.256 84.6855C133.521 84.0784 133.309 83.4368 132.702 83.1719C131.94 82.7667 131.012 82.6074 130.355 82.523C130.604 81.6201 130.623 80.8479 130.552 80.0507C130.32 78.4314 129.255 77.3597 127.449 76.8605C126.456 76.586 125.594 76.5419 124.837 76.8187C123.648 76.1984 120.351 74.4125 116.74 73.4142C114.934 72.9151 113.274 72.9423 111.459 72.8292C109.528 72.7815 107.598 72.7338 105.431 72.1349C102.993 71.461 101.804 70.8408 100.68 70.3357C99.9172 69.9306 99.1545 69.5254 98.1613 69.2508C95.9041 68.6269 93.0575 69.7838 92.0841 73.3051C90.9361 77.4583 90.804 80.0459 90.7409 81.6806C90.4759 82.2877 90.4818 82.9696 90.357 83.4211ZM128.005 80.1241C128.076 80.9213 127.752 82.095 127.377 83.4494C126.354 87.1512 125.376 87.1725 124.383 86.898C123.3 86.5985 122.562 86.103 123.61 82.3109C123.96 81.0468 124.284 79.8731 124.755 79.2257C124.92 78.9797 125.34 78.5129 126.604 78.8623C127.959 79.2366 127.99 79.8283 128.005 80.1241Z" fill="#584579"/>
<path d="M97.8568 74.2204C97.6417 74.6469 97.3459 74.6623 97.2556 74.6373C96.6236 74.4626 96.0224 74.8796 95.8726 75.4213C95.6979 76.0533 96.1149 76.6545 96.6566 76.8043C97.3789 77.0039 98.858 76.9268 99.8739 75.3611C100.229 74.779 100.043 74.0471 99.5509 73.7168C98.8536 73.4269 98.1217 73.6133 97.8568 74.2204Z" fill="#584579"/>
<path d="M103.181 81.3289C102.549 81.1542 101.948 81.5712 101.798 82.1129C101.623 82.7449 102.04 83.3461 102.582 83.4958C103.665 83.7953 103.581 84.4523 103.431 84.994C103.257 85.6261 103.673 86.2272 104.215 86.377C104.847 86.5517 105.448 86.1347 105.598 85.593C106.328 83.6566 105.258 81.9029 103.181 81.3289Z" fill="#584579"/>
<path d="M88.6936 45.4339L83.1909 56.5921C62.739 51.0011 53.3923 39.8549 52.4197 33.3296C50.6366 17.0218 88.6936 14.6883 125.04 19.5513C161.386 24.4142 182.086 40.237 186.977 47.1918C191.868 54.1465 190.416 57.9678 180.863 63.5469C173.221 68.0102 157.248 69.075 150.216 69.0496L149.681 59.8785C151.057 59.1397 151.684 56.0572 143.185 49.6374C132.562 41.6127 110.857 39.9313 102.68 39.8549C96.1375 39.7937 90.6297 43.5488 88.6936 45.4339Z" fill="#2F273D"/>
<ellipse cx="108.113" cy="28.3245" rx="8.08469" ry="3.7683" transform="rotate(5.90713 108.113 28.3245)" fill="#584579"/>
<ellipse cx="76.822" cy="28.6306" rx="8.08469" ry="3.7683" transform="rotate(-8.22824 76.822 28.6306)" fill="#584579"/>
<ellipse cx="136.596" cy="33.1505" rx="7.7408" ry="3.7683" transform="rotate(18.8711 136.596 33.1505)" fill="#584579"/>
<ellipse cx="162.581" cy="46.8463" rx="7.85857" ry="3.82563" transform="rotate(35.8077 162.581 46.8463)" fill="#584579"/>
<path opacity="0.1" fill-rule="evenodd" clip-rule="evenodd" d="M31.6348 153.062H176.393C173.985 150.9 167.654 146.918 167.654 146.918C166.692 148.084 153.642 149.249 154.829 141.121C143.183 136.908 128.761 134.025 112.909 133.241C112.489 134.107 108.623 139.388 105.67 139.388C104.296 139.388 103.483 139.493 102.676 139.598C101.879 139.701 101.087 139.804 99.7655 139.804C99.5839 139.871 98.3644 139.442 97.1635 139.02C96.0153 138.616 94.884 138.218 94.6928 138.265C90.5684 139.281 84.2561 139.554 80.2027 138.759C79.4706 138.926 78.7551 139.081 78.0607 139.221C76.126 139.612 74.4276 139.446 72.9588 139.302C71.9627 139.205 71.0721 139.118 70.2852 139.221L70.0368 136.899C65.8846 137.719 61.9282 138.686 58.205 139.782C58.3499 139.953 58.5139 140.126 58.6827 140.303C59.9021 141.585 61.3678 143.127 57.6587 146.345C55.742 147.035 47.4756 149.946 46.5381 143.971C40.4506 146.62 35.3927 149.688 31.6348 153.062ZM120.567 147.878C126.677 148.592 131.831 147.447 132.08 145.32C132.328 143.193 127.577 140.89 121.468 140.176C115.358 139.461 110.204 140.607 109.955 142.734C109.707 144.861 114.458 147.164 120.567 147.878Z" fill="#01CDFD"/>
<ellipse cx="119.267" cy="51.7226" rx="31.2967" ry="10.3019" transform="rotate(10.2354 119.267 51.7226)" stroke="#1B1B1B" stroke-linecap="round"/>
<ellipse cx="119.267" cy="51.7226" rx="31.2967" ry="10.3019" transform="rotate(10.2354 119.267 51.7226)" fill="url(#paint1_linear_5569:20860)"/>
<ellipse cx="119.267" cy="51.7226" rx="31.2967" ry="10.3019" transform="rotate(10.2354 119.267 51.7226)" stroke="#C83E93" stroke-width="2" stroke-linecap="round"/>
<path d="M149.946 69.0673C171.767 68.9272 187.45 63.8706 189.034 55.0946C191.351 42.265 162.661 26.345 124.953 19.5363C87.2458 12.7276 54.7998 17.6085 52.4832 30.4381C50.9274 39.0541 63.356 49.064 83.1088 56.7719" stroke="#584579" stroke-linecap="round"/>
<ellipse cx="121.017" cy="144.027" rx="11.1375" ry="3.87758" transform="rotate(6.66695 121.017 144.027)" stroke="#01CDFD" stroke-linecap="round"/>
<defs>
<linearGradient id="paint0_linear_5569:20860" x1="99.4137" y1="39.7988" x2="99.4137" y2="144.501" gradientUnits="userSpaceOnUse">
<stop stop-color="#C83E93"/>
<stop offset="1" stop-color="#C83E93" stop-opacity="0"/>
</linearGradient>
<linearGradient id="paint1_linear_5569:20860" x1="122.002" y1="23.5114" x2="119.267" y2="62.0246" gradientUnits="userSpaceOnUse">
<stop offset="0.463542" stop-color="#1B1B1B"/>
<stop offset="1" stop-color="#C83E93"/>
</linearGradient>
</defs>
</svg>
