<svg width="80" height="80" viewBox="0 0 80 80" fill="none" xmlns="http://www.w3.org/2000/svg">
<circle cx="40" cy="40" r="40" fill="#1B1B1B"/>
<path d="M39.8 62.5C27.2 62.5 17 52.3 17 39.8C17 27.3 27.2 17 39.8 17C52.4 17 62.6 27.2 62.6 39.8C62.6 52.4 52.3 62.5 39.8 62.5ZM23.1 26.6C20.1 30.4 18.5 34.9 18.5 39.8C18.5 51.5 28 61 39.8 61C51.6 61 61 51.5 61 39.8C61 28.1 51.5 18.5 39.8 18.5C36.7 18.5 33.7 19.2 30.8 20.5V21H39.5V22.5H27.4H27.3C26.5 23.1 25.6 23.8 24.9 24.5L24.5 25H39.5V26.5L23.1 26.6ZM39.8 41.5C38.8 41.5 38 40.7 38 39.7V39.5V39.4L27 31.4L27.6 30.6L25.4 29H39.5V30.5H28.3L31.7 33H39.5V34.5H33.8L37.2 37H39.5V38H39.7C40.2 38 40.6 38.3 40.8 38.5L40.9 38.6L50.3 35.4L50.8 36.8L41.5 39.9V40C41.3 40.9 40.6 41.5 39.8 41.5Z" fill="#31C5F4"/>
</svg>
