<svg width="50" height="50" viewBox="0 0 50 50" fill="none" xmlns="http://www.w3.org/2000/svg">
<path d="M14.8 49.5C11 49.5 7.4 49 4.6 48C3.2 47.5 2.2 47 1.4 46.3C0.8 45.7 0 44.9 0 43.8V37.8C0 37.7 0 37.6 0 37.5V37.4V37.3C0 37.1 0 36.9 0 36.8V30.8C0 30.7 0 30.6 0 30.5V30.4V30.3C0 30.1 0 29.9 0 29.8V23.8C0 23.7 0 23.6 0 23.5V23.4V23.3C0 23.1 0 22.9 0 22.8C0 21.7 0.8 20.8 1.4 20.3C2.2 19.6 3.2 19.1 4.6 18.6C7.3 17.6 10.9 17.1 14.8 17.1C16.5 17.1 18.2 17.2 19.8 17.4H20.1V13.8C20.1 13.7 20.1 13.6 20.1 13.5V13.4V13.3C20.1 13.1 20 12.9 20 12.8V6.8C20 6.7 20 6.6 20 6.5V6.4V6.3C20 6.1 20 5.9 20 5.8C20 4.7 20.8 3.8 21.4 3.3C22.2 2.6 23.2 2.1 24.6 1.6C27.3 0.6 30.9 0.0999999 34.8 0.0999999C38.7 0.0999999 42.2 0.6 45 1.6C46.4 2.1 47.4 2.6 48.2 3.3C48.8 3.8 49.6 4.7 49.6 5.8C49.6 6 49.6 6.1 49.5 6.3V6.4V6.5C49.5 6.6 49.6 6.7 49.6 6.8V12.8C49.6 13 49.6 13.2 49.5 13.3V13.4V13.5C49.5 13.6 49.6 13.7 49.5 13.8V19.8C49.5 20 49.5 20.2 49.4 20.3V20.4V20.5C49.4 20.6 49.5 20.7 49.4 20.8V26.8C49.4 27 49.4 27.2 49.3 27.3V27.4V27.5C49.3 27.6 49.4 27.7 49.3 27.8V33.8C49.3 34.9 48.5 35.8 47.9 36.3C47.1 37 46.1 37.5 44.7 38C42 39 38.3 39.5 34.5 39.5C32.8 39.5 31.1 39.4 29.5 39.2H29.2V43.8C29.2 44.9 28.4 45.8 27.8 46.3C27 47 26 47.5 24.6 48C22.2 49 18.6 49.5 14.8 49.5ZM1.5 43.8C1.5 44.2 1.8 44.7 2.3 45.2C2.9 45.7 3.9 46.2 5.1 46.7C7.6 47.6 11.1 48.1 14.7 48.1C18.3 48.1 21.8 47.6 24.3 46.7C25.5 46.3 26.4 45.8 27.1 45.2C27.7 44.7 27.9 44.3 27.9 43.8V39.4L27.5 39.7C26.7 40.2 25.9 40.7 24.8 41C22.1 42 18.4 42.5 14.6 42.5C10.8 42.5 7.3 42 4.6 41C3.6 40.6 2.7 40.2 1.9 39.7L1.5 39.4V43.8ZM1.5 36.8C1.5 37.2 1.8 37.7 2.3 38.2C2.9 38.7 3.9 39.2 5.1 39.7C7.6 40.6 11.1 41.1 14.7 41.1C18.3 41.1 21.8 40.6 24.3 39.7C25.5 39.3 26.4 38.8 27.1 38.2C27.7 37.7 27.9 37.3 27.9 36.8V32.4L27.5 32.7C26.7 33.2 25.9 33.7 24.8 34C22.1 35 18.4 35.5 14.6 35.5C10.8 35.5 7.3 35 4.6 34C3.6 33.6 2.7 33.2 1.9 32.7L1.5 32.4V36.8ZM29.5 36.8C29.5 37 29.5 37.1 29.4 37.3V37.4V37.6L29.6 37.7C31.3 38 33.1 38.1 34.7 38.1C38.3 38.1 41.8 37.6 44.3 36.7C45.5 36.3 46.4 35.8 47.1 35.2C47.7 34.7 47.9 34.3 47.9 33.8V29.4L47.5 29.7C46.7 30.2 45.9 30.7 44.8 31C42.1 32 38.4 32.5 34.6 32.5C32.9 32.5 31.2 32.4 29.6 32.2H29.3V36.8H29.5ZM1.5 29.8C1.5 30.2 1.8 30.7 2.3 31.2C2.9 31.7 3.9 32.2 5.1 32.7C7.6 33.6 11.1 34.1 14.7 34.1C18.3 34.1 21.8 33.6 24.3 32.7C25.5 32.3 26.4 31.8 27.1 31.2C27.7 30.7 27.9 30.3 27.9 29.8V25.4L27.5 25.7C26.7 26.2 25.9 26.7 24.8 27C22.1 28 18.5 28.5 14.6 28.5C10.7 28.5 7.3 28 4.6 27C3.6 26.6 2.7 26.2 1.9 25.7L1.5 25.4V29.8ZM29.3 30.6H29.6C31.3 30.8 33 31 34.7 31C38.3 31 41.8 30.5 44.3 29.6C45.5 29.2 46.4 28.7 47.1 28.1C47.7 27.6 47.9 27.2 47.9 26.7V22.3L47.5 22.6C46.7 23.1 45.9 23.6 44.8 23.9C42.1 24.9 38.5 25.4 34.6 25.4C32.9 25.4 31.2 25.3 29.6 25.1H29.3V29.7C29.3 29.9 29.3 30 29.2 30.2V30.3L29.3 30.6ZM14.8 18.5C11.2 18.5 7.7 19 5.2 19.9C4 20.3 3.1 20.8 2.4 21.4C1.8 21.9 1.6 22.3 1.6 22.8C1.6 23.3 1.9 23.7 2.4 24.2C3 24.7 4 25.2 5.2 25.7C7.7 26.6 11.2 27.1 14.8 27.1C18.4 27.1 21.9 26.6 24.4 25.7C25.6 25.3 26.5 24.8 27.2 24.2C27.8 23.7 28 23.3 28 22.8C28 22.3 27.7 21.9 27.2 21.4C26.6 20.9 25.6 20.4 24.4 19.9C21.9 19 18.4 18.5 14.8 18.5ZM21.5 17.6H21.7C22.9 17.8 24 18.1 24.9 18.5C26.3 19 27.3 19.5 28.1 20.2C28.7 20.7 29.5 21.6 29.5 22.7C29.5 22.9 29.5 23 29.4 23.2V23.3V23.5L29.6 23.6C31.2 23.8 32.9 23.9 34.7 23.9C38.3 23.9 41.8 23.4 44.3 22.5C45.5 22.1 46.4 21.6 47.1 21C47.7 20.5 47.9 20.1 47.9 19.6V15.2L47.5 15.5C46.7 16 45.9 16.5 44.8 16.8C42.1 17.8 38.5 18.3 34.6 18.3C30.7 18.3 27.3 18 24.6 17C23.6 16.6 22.7 16.2 21.9 15.7L21.5 15.4V17.6ZM21.5 12.8C21.5 13.2 21.8 13.7 22.3 14.2C22.9 14.7 23.9 15.2 25.1 15.7C27.6 16.6 31.1 17.1 34.7 17.1C38.3 17.1 41.8 16.6 44.3 15.7C45.5 15.3 46.4 14.8 47.1 14.2C47.7 13.7 47.9 13.3 47.9 12.8V8.4L47.5 8.7C46.7 9.2 45.9 9.7 44.8 10C42.1 11 38.5 11.5 34.6 11.5C30.7 11.5 27.3 11 24.6 10C23.6 9.6 22.7 9.2 21.9 8.7L21.5 8.4V12.8ZM34.8 1.5C31.2 1.5 27.7 2 25.2 2.9C24 3.3 23.1 3.8 22.4 4.4C21.8 4.9 21.6 5.3 21.6 5.8C21.6 6.3 21.9 6.7 22.4 7.2C23 7.7 24 8.2 25.2 8.7C27.7 9.6 31.2 10.1 34.8 10.1C38.4 10.1 41.9 9.6 44.4 8.7C45.6 8.3 46.5 7.8 47.2 7.2C47.7 6.7 48 6.2 48 5.8C48 5.4 47.7 4.9 47.2 4.4C46.6 3.9 45.6 3.4 44.4 2.9C41.9 2 38.4 1.5 34.8 1.5Z" fill="#01CDFD"/>
</svg>
