<svg width="154" height="33" viewBox="0 0 154 33" fill="none" xmlns="http://www.w3.org/2000/svg">
<path d="M151.5 1L151.016 0.874939L151.162 0.310239L151.698 0.540683L151.5 1ZM151 2.93548L151.484 3.06054L151.311 3.73108L150.729 3.35563L151 2.93548ZM149.5 1.96774L149.039 1.77306L149.271 1.22505L149.771 1.54759L149.5 1.96774ZM148 5.51613L148.461 5.71081L148.202 6.32163L147.686 5.90534L148 5.51613ZM146 3.90323L145.626 3.57171L145.942 3.21432L146.314 3.51402L146 3.90323ZM144 6.16129L144.374 6.49281L144.009 6.9052L143.634 6.5018L144 6.16129ZM142.5 4.54839L142.084 4.27172L142.434 3.74359L142.866 4.20788L142.5 4.54839ZM141 6.80645L141.416 7.08311L141.143 7.49406L140.729 7.2266L141 6.80645ZM139 5.51613L138.543 5.31367L138.78 4.77893L139.271 5.09598L139 5.51613ZM137 10.0323L137.457 10.2347L137.118 11.0007L136.605 10.3385L137 10.0323ZM135.5 8.09677L135.116 7.77639L135.514 7.29916L135.895 7.79049L135.5 8.09677ZM132 12.2903L132.384 12.6107L131.954 13.1253L131.584 12.567L132 12.2903ZM130.5 10.0323L130.105 9.72597L130.531 9.17569L130.916 9.75559L130.5 10.0323ZM128 13.2581L128.395 13.5644L128.22 13.7906L127.936 13.754L128 13.2581ZM125.5 12.9355H125V12.3668L125.564 12.4396L125.5 12.9355ZM125.5 16.4839H126V16.6958L125.848 16.8432L125.5 16.4839ZM124.5 17.4516H124V17.2397L124.152 17.0923L124.5 17.4516ZM124.5 21.9677H125V22.7271L124.302 22.4271L124.5 21.9677ZM123 21.3226L122.505 21.2528L122.596 20.6046L123.198 20.8633L123 21.3226ZM122.5 24.871L122.995 24.9407L122.988 24.9883L122.973 25.0338L122.5 24.871ZM121.5 27.7742L121.973 27.937L121.452 29.4481L121.019 27.9098L121.5 27.7742ZM120.5 24.2258L120.126 23.8943L120.733 23.2088L120.981 24.0902L120.5 24.2258ZM118.5 26.4839L118.874 26.8154L118.184 27.5948L118.007 26.5687L118.5 26.4839ZM118 23.5806L117.605 23.2744L118.3 22.3772L118.493 23.4958L118 23.5806ZM116 26.1613L116.395 26.4676L115.853 27.1667L115.534 26.3419L116 26.1613ZM114 21L113.568 20.7487L114.09 19.8495L114.466 20.8193L114 21ZM112.5 23.5806L112.932 23.8319L112.429 24.6974L112.039 23.7753L112.5 23.5806ZM111 20.0323L110.626 19.7007L111.152 19.1069L111.461 19.8376L111 20.0323ZM109 22.2903L109.374 22.6218L108.915 23.1399L108.568 22.5416L109 22.2903ZM107.5 19.7097L107.049 19.4944L107.456 18.6396L107.932 19.4584L107.5 19.7097ZM105.5 23.9032L105.951 24.1185L105.602 24.851L105.105 24.2095L105.5 23.9032ZM103.5 21.3226L103.056 21.0931L103.415 20.3971L103.895 21.0163L103.5 21.3226ZM102 24.2258L102.444 24.4553L102.085 25.1513L101.605 24.5321L102 24.2258ZM100 21.6452L99.5273 21.4823L99.8285 20.6077L100.395 21.3389L100 21.6452ZM99 24.5484L99.4727 24.7112L99.1715 25.5859L98.6048 24.8547L99 24.5484ZM96.5 21.3226L96.0224 21.1745L96.3068 20.2571L96.8952 21.0163L96.5 21.3226ZM95.5 24.5484L95.9776 24.6964L95.5828 25.9701L95.0428 24.7508L95.5 24.5484ZM92.5 26.8064L92.9442 27.036L92.6094 27.684L92.1257 27.138L92.5 26.8064ZM90.5 24.5484H90V23.2298L90.8743 24.2169L90.5 24.5484ZM90.5 27.129H91V28.4009L90.1339 27.4695L90.5 27.129ZM87.5 23.9032H87V22.6314L87.8661 23.5627L87.5 23.9032ZM87.5 26.1613H88V27.7685L87.0882 26.4449L87.5 26.1613ZM85.5 23.2581L85.1048 22.9518L85.5238 22.4112L85.9118 22.9744L85.5 23.2581ZM84 25.1935L84.3952 25.4998L84.0891 25.8948L83.6939 25.5889L84 25.1935ZM81.5 23.2581L81.0091 23.163L81.1637 22.3653L81.8061 22.8627L81.5 23.2581ZM81 25.8387L81.4909 25.9338L81.4124 26.3387H81V25.8387ZM79 25.8387L78.5558 25.6092L78.6955 25.3387H79V25.8387ZM78 27.7742L78.4442 28.0037L78.1915 28.4928L77.7289 28.1943L78 27.7742ZM76.5 26.8064L76.0338 26.6258L76.2555 26.0537L76.7711 26.3863L76.5 26.8064ZM75.5 29.3871L75.9662 29.5678L75.7105 30.2277L75.1739 29.7661L75.5 29.3871ZM74 28.0968L73.5558 27.8673L73.8463 27.305L74.3261 27.7177L74 28.0968ZM72.5 31L72.9442 31.2295L72.4547 32.177L72.0395 31.1947L72.5 31ZM71 27.4516L70.6339 27.1111L71.1598 26.5456L71.4605 27.2569L71 27.4516ZM69.5 29.0645L69.8661 29.405L69.1639 30.1602L69.0059 29.1411L69.5 29.0645ZM69 25.8387L68.8195 25.3724L69.3989 25.1481L69.4941 25.7621L69 25.8387ZM66.5 26.8064L66.6805 27.2727L66.1229 27.4886L66.0091 26.9016L66.5 26.8064ZM64 21.6452L63.5751 21.3817L64.0138 20.674L64.4323 21.3939L64 21.6452ZM63 23.2581L63.4249 23.5215L62.7129 24.67L62.5059 23.3347L63 23.2581ZM61 19.3871L60.7289 18.9669L61.1143 18.7183L61.3952 19.0808L61 19.3871ZM59 20.6774L59.2711 21.0976L58.8085 21.396L58.5558 20.9069L59 20.6774ZM58 18.7419L57.7707 18.2976L58.2148 18.0684L58.4442 18.5124L58 18.7419ZM55.5 20.0323L55.7293 20.4766L55.3922 20.6506L55.1339 20.3728L55.5 20.0323ZM54 18.4194L53.5224 18.2713L53.7781 17.4465L54.3661 18.0788L54 18.4194ZM53.5 20.0323L53.9776 20.1803L53.8009 20.7502L53.2707 20.4766L53.5 20.0323ZM51 18.7419L50.5091 18.6468L50.6361 17.9914L51.2293 18.2976L51 18.7419ZM50.5 21.3226L50.9909 21.4177L50.8154 22.3236L50.1523 21.6819L50.5 21.3226ZM48.5 19.3871L48.0187 19.2515L48.2459 18.4454L48.8477 19.0278L48.5 19.3871ZM47.5 22.9355L47.9813 23.0711L47.7627 23.8465L47.1649 23.3065L47.5 22.9355ZM45 20.6774L44.5395 20.4827L44.8133 19.835L45.3351 20.3064L45 20.6774ZM43.5 24.2258L43.9605 24.4205L43.7289 24.9685L43.2289 24.646L43.5 24.2258ZM41.5 22.9355L41.1048 22.6292L41.3857 22.2667L41.7711 22.5153L41.5 22.9355ZM40 24.871L40.3952 25.1773L40.0729 25.5932L39.6739 25.25L40 24.871ZM38.5 23.5806L38.1649 23.2096L38.4919 22.9142L38.8261 23.2016L38.5 23.5806ZM35 22.9355V22.4355H35.2783L35.4249 22.672L35 22.9355ZM33 22.9355L32.5835 22.6588L32.7319 22.4355H33V22.9355ZM31.5 25.1935L31.9165 25.4702L31.5657 25.9983L31.1339 25.5341L31.5 25.1935ZM30 23.5806L29.7289 23.1605L30.0809 22.9334L30.3661 23.2401L30 23.5806ZM26.5 21.9677L26.2289 21.5476L26.7825 21.1904L26.9776 21.8197L26.5 21.9677ZM23.5 23.9032L23.7711 24.3234L23.3085 24.6218L23.0558 24.1327L23.5 23.9032ZM22 21L21.6257 20.6685L22.1094 20.1224L22.4442 20.7705L22 21ZM20 23.2581L20.3743 23.5896L19.9743 24.0412L19.6048 23.5644L20 23.2581ZM16.5 24.5484L16.8952 24.8547L16.5829 25.2576L16.1861 24.9376L16.5 24.5484ZM14.5 22.9355L14.2822 22.4854L14.5673 22.3474L14.8139 22.5463L14.5 22.9355ZM12.5 23.9032L12.7178 24.3533L12.465 24.4756L12.2289 24.3234L12.5 23.9032ZM11 22.9355L10.5338 22.7548L10.7555 22.1827L11.2711 22.5153L11 22.9355ZM10 25.5161L10.4662 25.6968L10.2445 26.2689L9.72894 25.9363L10 25.5161ZM7.5 23.9032L7.00725 23.8184L7.1356 23.0731L7.77106 23.4831L7.5 23.9032ZM7 26.8064L7.49275 26.8913L7.2592 28.2474L6.56772 27.0577L7 26.8064ZM4.5 27.7742H5V28.3748L4.40936 28.2659L4.5 27.7742ZM1 27.129H0.5V26.5284L1.09064 26.6373L1 27.129ZM152.802 2.10448L151.302 1.45932L151.698 0.540683L153.198 1.18584L152.802 2.10448ZM151.984 1.12506L151.484 3.06054L150.516 2.81042L151.016 0.874939L151.984 1.12506ZM150.729 3.35563L149.229 2.38789L149.771 1.54759L151.271 2.51534L150.729 3.35563ZM149.961 2.16243L148.461 5.71081L147.539 5.32145L149.039 1.77306L149.961 2.16243ZM147.686 5.90534L145.686 4.29243L146.314 3.51402L148.314 5.12692L147.686 5.90534ZM146.374 4.23474L144.374 6.49281L143.626 5.82977L145.626 3.57171L146.374 4.23474ZM143.634 6.5018L142.134 4.88889L142.866 4.20788L144.366 5.82078L143.634 6.5018ZM142.916 4.82505L141.416 7.08311L140.584 6.52979L142.084 4.27172L142.916 4.82505ZM140.729 7.2266L138.729 5.93628L139.271 5.09598L141.271 6.3863L140.729 7.2266ZM139.457 5.71859L137.457 10.2347L136.543 9.82979L138.543 5.31367L139.457 5.71859ZM136.605 10.3385L135.105 8.40306L135.895 7.79049L137.395 9.72597L136.605 10.3385ZM135.884 8.41716L132.384 12.6107L131.616 11.9699L135.116 7.77639L135.884 8.41716ZM131.584 12.567L130.084 10.3089L130.916 9.75559L132.416 12.0137L131.584 12.567ZM130.895 10.3385L128.395 13.5644L127.605 12.9518L130.105 9.72597L130.895 10.3385ZM127.936 13.754L125.436 13.4314L125.564 12.4396L128.064 12.7622L127.936 13.754ZM126 12.9355V16.4839H125V12.9355H126ZM125.848 16.8432L124.848 17.8109L124.152 17.0923L125.152 16.1246L125.848 16.8432ZM125 17.4516V21.9677H124V17.4516H125ZM124.302 22.4271L122.802 21.7819L123.198 20.8633L124.698 21.5084L124.302 22.4271ZM123.495 21.3923L122.995 24.9407L122.005 24.8012L122.505 21.2528L123.495 21.3923ZM122.973 25.0338L121.973 27.937L121.027 27.6114L122.027 24.7081L122.973 25.0338ZM121.019 27.9098L120.019 24.3614L120.981 24.0902L121.981 27.6386L121.019 27.9098ZM120.874 24.5573L118.874 26.8154L118.126 26.1524L120.126 23.8943L120.874 24.5573ZM118.007 26.5687L117.507 23.6655L118.493 23.4958L118.993 26.399L118.007 26.5687ZM118.395 23.8869L116.395 26.4676L115.605 25.855L117.605 23.2744L118.395 23.8869ZM115.534 26.3419L113.534 21.1807L114.466 20.8193L116.466 25.9806L115.534 26.3419ZM114.432 21.2513L112.932 23.8319L112.068 23.3294L113.568 20.7487L114.432 21.2513ZM112.039 23.7753L110.539 20.2269L111.461 19.8376L112.961 23.386L112.039 23.7753ZM111.374 20.3638L109.374 22.6218L108.626 21.9588L110.626 19.7007L111.374 20.3638ZM108.568 22.5416L107.068 19.9609L107.932 19.4584L109.432 22.0391L108.568 22.5416ZM107.951 19.9249L105.951 24.1185L105.049 23.688L107.049 19.4944L107.951 19.9249ZM105.105 24.2095L103.105 21.6289L103.895 21.0163L105.895 23.5969L105.105 24.2095ZM103.944 21.5521L102.444 24.4553L101.556 23.9963L103.056 21.0931L103.944 21.5521ZM101.605 24.5321L99.6048 21.9514L100.395 21.3389L102.395 23.9195L101.605 24.5321ZM100.473 21.808L99.4727 24.7112L98.5273 24.3856L99.5273 21.4823L100.473 21.808ZM98.6048 24.8547L96.1048 21.6289L96.8952 21.0163L99.3952 24.2421L98.6048 24.8547ZM96.9776 21.4706L95.9776 24.6964L95.0224 24.4003L96.0224 21.1745L96.9776 21.4706ZM95.0428 24.7508C94.8818 24.3872 94.6379 23.9603 94.4255 23.7528C94.3034 23.6334 94.3091 23.7001 94.4175 23.6868C94.5679 23.6682 94.547 23.5528 94.4662 23.7613L93.5338 23.4C93.653 23.0923 93.8779 22.7458 94.295 22.6943C94.6701 22.648 94.9632 22.88 95.1245 23.0376C95.4788 23.3838 95.7849 23.9569 95.9572 24.3459L95.0428 24.7508ZM94.4662 23.7613C94.0558 24.8203 93.2785 26.389 92.9442 27.036L92.0558 26.5769C92.3882 25.9336 93.1442 24.4055 93.5338 23.4L94.4662 23.7613ZM92.1257 27.138L90.1257 24.8799L90.8743 24.2169L92.8743 26.4749L92.1257 27.138ZM91 24.5484V27.129H90V24.5484H91ZM90.1339 27.4695L87.1339 24.2437L87.8661 23.5627L90.8661 26.7885L90.1339 27.4695ZM88 23.9032V26.1613H87V23.9032H88ZM87.0882 26.4449L85.0882 23.5417L85.9118 22.9744L87.9118 25.8776L87.0882 26.4449ZM85.8952 23.5644L84.3952 25.4998L83.6048 24.8873L85.1048 22.9518L85.8952 23.5644ZM83.6939 25.5889L81.1939 23.6534L81.8061 22.8627L84.3061 24.7982L83.6939 25.5889ZM81.9909 23.3532L81.4909 25.9338L80.5091 25.7436L81.0091 23.163L81.9909 23.3532ZM81 26.3387H79V25.3387H81V26.3387ZM79.4442 26.0682L78.4442 28.0037L77.5558 27.5447L78.5558 25.6092L79.4442 26.0682ZM77.7289 28.1943L76.2289 27.2266L76.7711 26.3863L78.2711 27.354L77.7289 28.1943ZM76.9662 26.9871L75.9662 29.5678L75.0338 29.2064L76.0338 26.6258L76.9662 26.9871ZM75.1739 29.7661L73.6739 28.4758L74.3261 27.7177L75.8261 29.008L75.1739 29.7661ZM74.4442 28.3263L72.9442 31.2295L72.0558 30.7705L73.5558 27.8673L74.4442 28.3263ZM72.0395 31.1947L70.5395 27.6463L71.4605 27.2569L72.9605 30.8053L72.0395 31.1947ZM71.3661 27.7921L69.8661 29.405L69.1339 28.724L70.6339 27.1111L71.3661 27.7921ZM69.0059 29.1411L68.5059 25.9153L69.4941 25.7621L69.9941 28.9879L69.0059 29.1411ZM69.1805 26.305L66.6805 27.2727L66.3195 26.3402L68.8195 25.3724L69.1805 26.305ZM66.0091 26.9016L65.7591 25.6112L66.7409 25.421L66.9909 26.7113L66.0091 26.9016ZM65.7591 25.6112L65.5091 24.3209L66.4909 24.1307L66.7409 25.421L65.7591 25.6112ZM65.8177 25.7674L63.5677 21.8964L64.4323 21.3939L66.6823 25.2649L65.8177 25.7674ZM64.4249 21.9086L63.4249 23.5215L62.5751 22.9946L63.5751 21.3817L64.4249 21.9086ZM62.5059 23.3347L62.2559 21.7217L63.2441 21.5686L63.4941 23.1815L62.5059 23.3347ZM62.2559 21.7217L62.0059 20.1088L62.9941 19.9557L63.2441 21.5686L62.2559 21.7217ZM62.3548 21.9514L60.6048 19.6934L61.3952 19.0808L63.1452 21.3389L62.3548 21.9514ZM61.2711 19.8072L59.2711 21.0976L58.7289 20.2573L60.7289 18.9669L61.2711 19.8072ZM58.5558 20.9069L57.5558 18.9714L58.4442 18.5124L59.4442 20.4479L58.5558 20.9069ZM58.2293 19.1862L55.7293 20.4766L55.2707 19.5879L57.7707 18.2976L58.2293 19.1862ZM55.1339 20.3728L53.6339 18.7599L54.3661 18.0788L55.8661 19.6918L55.1339 20.3728ZM54.4776 18.5674L53.9776 20.1803L53.0224 19.8842L53.5224 18.2713L54.4776 18.5674ZM53.2707 20.4766L50.7707 19.1862L51.2293 18.2976L53.7293 19.5879L53.2707 20.4766ZM51.4909 18.837L50.9909 21.4177L50.0091 21.2275L50.5091 18.6468L51.4909 18.837ZM50.1523 21.6819L48.1523 19.7464L48.8477 19.0278L50.8477 20.9633L50.1523 21.6819ZM48.9813 19.5227L47.9813 23.0711L47.0187 22.7999L48.0187 19.2515L48.9813 19.5227ZM47.1649 23.3065L44.6649 21.0485L45.3351 20.3064L47.8351 22.5644L47.1649 23.3065ZM45.4605 20.8721L43.9605 24.4205L43.0395 24.0311L44.5395 20.4827L45.4605 20.8721ZM43.2289 24.646L41.2289 23.3556L41.7711 22.5153L43.7711 23.8057L43.2289 24.646ZM41.8952 23.2418L40.3952 25.1773L39.6048 24.5647L41.1048 22.6292L41.8952 23.2418ZM39.6739 25.25L38.1739 23.9597L38.8261 23.2016L40.3261 24.4919L39.6739 25.25ZM38.8351 23.9517C38.4124 24.3335 37.7717 24.8798 37.229 25.2692C36.9661 25.4577 36.6898 25.6364 36.4603 25.7289C36.3655 25.7671 36.173 25.8368 35.9667 25.7918C35.8398 25.7641 35.7024 25.6912 35.6066 25.5516C35.5183 25.423 35.5 25.2876 35.5 25.1935H36.5C36.5 25.164 36.4947 25.0784 36.4312 24.9859C36.3603 24.8825 36.2595 24.8322 36.1797 24.8148C36.0679 24.7904 36.0122 24.8313 36.0866 24.8014C36.1956 24.7574 36.3881 24.6417 36.646 24.4566C37.145 24.0987 37.7543 23.5804 38.1649 23.2096L38.8351 23.9517ZM35.5 25.1935C35.5 25.1517 35.4819 25.0449 35.4186 24.8634C35.3593 24.6936 35.2741 24.4963 35.1745 24.2894C34.9755 23.876 34.7346 23.4563 34.5751 23.199L35.4249 22.672C35.5988 22.9523 35.8579 23.4036 36.0755 23.8557C36.1843 24.0816 36.2865 24.3158 36.3627 24.5337C36.4347 24.7401 36.5 24.9774 36.5 25.1935H35.5ZM35 23.4355H33V22.4355H35V23.4355ZM33.4165 23.2121L31.9165 25.4702L31.0835 24.9169L32.5835 22.6588L33.4165 23.2121ZM31.1339 25.5341L29.6339 23.9212L30.3661 23.2401L31.8661 24.853L31.1339 25.5341ZM30.2711 24.0008C29.9179 24.2286 29.3565 24.5406 28.8151 24.73C28.5472 24.8238 28.2512 24.8995 27.9723 24.9032C27.6973 24.9069 27.3424 24.8386 27.1048 24.5321L27.8952 23.9195C27.8576 23.871 27.8319 23.905 27.9589 23.9033C28.0821 23.9016 28.2611 23.8644 28.4849 23.7861C28.9268 23.6315 29.4154 23.3628 29.7289 23.1605L30.2711 24.0008ZM27.1048 24.5321C26.8603 24.2166 26.6308 23.7316 26.4505 23.2961C26.2647 22.8473 26.1097 22.3972 26.0224 22.1158L26.9776 21.8197C27.057 22.0759 27.2019 22.4968 27.3745 22.9136C27.5525 23.3437 27.7397 23.7189 27.8952 23.9195L27.1048 24.5321ZM26.7711 22.3879L23.7711 24.3234L23.2289 23.4831L26.2289 21.5476L26.7711 22.3879ZM23.0558 24.1327L21.5558 21.2295L22.4442 20.7705L23.9442 23.6737L23.0558 24.1327ZM22.3743 21.3315L20.3743 23.5896L19.6257 22.9265L21.6257 20.6685L22.3743 21.3315ZM19.6048 23.5644C19.369 23.2601 19.0078 22.8728 18.6853 22.6581C18.5169 22.5459 18.4232 22.5246 18.3989 22.524C18.3981 22.524 18.4187 22.5236 18.4431 22.5085C18.4657 22.4945 18.4614 22.4865 18.4442 22.5198L17.5558 22.0608C17.6386 21.9006 17.7562 21.7575 17.9174 21.6578C18.0805 21.5571 18.2566 21.5203 18.423 21.5243C18.733 21.5318 19.0206 21.6799 19.2397 21.8258C19.6922 22.1272 20.131 22.6109 20.3952 22.9518L19.6048 23.5644ZM18.4442 22.5198C18.0221 23.3368 17.2317 24.4205 16.8952 24.8547L16.1048 24.2421C16.435 23.8161 17.1779 22.7922 17.5558 22.0608L18.4442 22.5198ZM16.1861 24.9376L14.1861 23.3247L14.8139 22.5463L16.8139 24.1592L16.1861 24.9376ZM14.7178 23.3856L12.7178 24.3533L12.2822 23.4531L14.2822 22.4854L14.7178 23.3856ZM12.2289 24.3234L10.7289 23.3556L11.2711 22.5153L12.7711 23.4831L12.2289 24.3234ZM11.4662 23.1161L10.4662 25.6968L9.53378 25.3355L10.5338 22.7548L11.4662 23.1161ZM9.72894 25.9363L7.22894 24.3234L7.77106 23.4831L10.2711 25.096L9.72894 25.9363ZM7.99275 23.9881L7.49275 26.8913L6.50725 26.7216L7.00725 23.8184L7.99275 23.9881ZM6.56772 27.0577C6.32614 26.6421 5.95091 26.087 5.6067 25.7384C5.42308 25.5524 5.30916 25.4889 5.27371 25.4788C5.27084 25.478 5.31821 25.491 5.38249 25.4626C5.44539 25.4348 5.45789 25.3966 5.44421 25.4231L4.55579 24.964C4.64212 24.7969 4.77649 24.6371 4.97806 24.548C5.18102 24.4583 5.38385 24.4703 5.54816 24.5172C5.84709 24.6025 6.11443 24.8293 6.3183 25.0358C6.74908 25.4721 7.17386 26.1106 7.43228 26.5552L6.56772 27.0577ZM5.44421 25.4231C5.28088 25.7392 5.16605 26.1876 5.09404 26.6496C5.02319 27.1041 5 27.5299 5 27.7742H4C4 27.4808 4.02681 27.0034 4.10597 26.4956C4.18396 25.9952 4.31911 25.4221 4.55579 24.964L5.44421 25.4231ZM4.40936 28.2659L0.909363 27.6207L1.09064 26.6373L4.59064 27.2825L4.40936 28.2659ZM1.5 27.129V29.3871H0.5V27.129H1.5Z" fill="#32FE9A"/>
</svg>
