<svg width="251" height="159" viewBox="0 0 251 159" fill="none" xmlns="http://www.w3.org/2000/svg">
<path opacity="0.1" d="M176.872 158.028H80.2218C65.9674 158.028 51.9862 154.117 39.801 146.72L31.1796 141.487C25.3734 137.963 20.5749 133 17.248 127.078H250.014L228.645 141.863C221.592 146.744 213.884 150.602 205.751 153.324C196.441 156.44 186.689 158.028 176.872 158.028Z" fill="url(#paint0_linear_5569:20666)"/>
<path opacity="0.3" fill-rule="evenodd" clip-rule="evenodd" d="M236.806 127.246L154.606 2.73047L106.715 68.348L88.2732 48.3339L66.9785 77.1444L71.3865 81.2305L80.8865 73.7305L88.3865 75.2305V127.246H236.806ZM106 115.095C107.43 115.095 110.746 114.609 112.576 112.665C114.863 110.235 115.578 108.948 106 76.7825C103.57 84.5498 98.5662 101.743 97.9944 108.376C97.9944 112.665 99.4239 115.095 106 115.095ZM207.153 117.752C205.815 119.057 203.39 119.384 202.345 119.384C197.537 119.384 196.492 117.752 196.492 114.871C196.91 110.416 200.568 98.8684 202.345 93.6515C209.348 115.255 208.825 116.119 207.153 117.752ZM178.752 115.095C180.384 115.095 184.169 114.551 186.257 112.375C188.868 109.654 189.683 108.214 178.752 72.2078C175.979 80.9026 170.269 100.149 169.616 107.574C169.616 112.375 171.247 115.095 178.752 115.095Z" fill="#5C418D"/>
<path d="M70.3441 80.5088L68.081 77.9825C67.7714 77.637 67.7402 77.124 68.0054 76.7434L87.3166 49.0393C87.6827 48.5141 88.441 48.4633 88.8738 48.935L105.127 66.6469C105.681 67.2501 105.316 68.2262 104.502 68.3162C100.266 68.7844 94.2855 69.4382 94.0159 69.4382C93.7242 69.4382 90.8444 72.769 89.1271 74.8047C88.8875 75.0888 88.5115 75.2169 88.1483 75.138L81.9241 73.7849C81.6495 73.7252 81.3625 73.7838 81.1333 73.9463L71.6673 80.6573C71.2526 80.9513 70.6833 80.8874 70.3441 80.5088Z" fill="#403259"/>
<path d="M70.3441 80.5088L68.081 77.9825C67.7714 77.637 67.7402 77.124 68.0054 76.7434L87.3166 49.0393C87.6827 48.5141 88.441 48.4633 88.8738 48.935L105.127 66.6469C105.681 67.2501 105.316 68.2262 104.502 68.3162C100.266 68.7844 94.2855 69.4382 94.0159 69.4382C93.7242 69.4382 90.8444 72.769 89.1271 74.8047C88.8875 75.0888 88.5115 75.2169 88.1483 75.138L81.9241 73.7849C81.6495 73.7252 81.3625 73.7838 81.1333 73.9463L71.6673 80.6573C71.2526 80.9513 70.6833 80.8874 70.3441 80.5088Z" stroke="#584579"/>
<path d="M131.918 32.6182L153.496 4.43033C153.909 3.89059 154.728 3.91146 155.114 4.47152L168.653 24.1581C169.179 24.923 168.469 25.9296 167.572 25.6912L165.377 25.1081C165.139 25.0451 164.887 25.0715 164.668 25.1824L158.893 28.1056C158.618 28.2447 158.295 28.2494 158.016 28.1182L155.174 26.7811C154.7 26.5579 154.134 26.7388 153.877 27.1957L149.711 34.6013C149.447 35.0708 148.859 35.2467 148.38 34.9993L142.62 32.0195C142.355 31.8828 142.044 31.8709 141.769 31.9873L134.226 35.1897C133.863 35.3437 133.444 35.2702 133.155 35.002L132.032 33.9589C131.654 33.6081 131.605 33.0276 131.918 32.6182Z" fill="#403259"/>
<path d="M131.918 32.6182L153.496 4.43033C153.909 3.89059 154.728 3.91146 155.114 4.47152L168.653 24.1581C169.179 24.923 168.469 25.9296 167.572 25.6912L165.377 25.1081C165.139 25.0451 164.887 25.0715 164.668 25.1824L158.893 28.1056C158.618 28.2447 158.295 28.2494 158.016 28.1182L155.174 26.7811C154.7 26.5579 154.134 26.7388 153.877 27.1957L149.711 34.6013C149.447 35.0708 148.859 35.2467 148.38 34.9993L142.62 32.0195C142.355 31.8828 142.044 31.8709 141.769 31.9873L134.226 35.1897C133.863 35.3437 133.444 35.2702 133.155 35.002L132.032 33.9589C131.654 33.6081 131.605 33.0276 131.918 32.6182Z" stroke="#584579"/>
<path d="M66.333 56.4405C67.4655 62.2919 72.153 65.5374 74.3552 66.4288L87.7253 48.1825L106.994 67.6085L133.813 31.1159C132.79 29.9886 130.4 27.3093 129.015 25.6105C127.285 23.487 123.431 19.7906 108.803 22.0714C94.1744 24.3522 80.0964 33.318 74.3552 36.8572C68.614 40.3963 64.9173 49.1262 66.333 56.4405Z" fill="#152E34"/>
<path opacity="0.4" d="M68.2988 44.9495C68.2988 44.9495 61.7103 39.1846 60.8867 37.4387C62.3691 30.6195 65.6502 16.8034 66.9152 16.0919C68.4965 15.2024 76.4027 8.67979 96.4647 10.5575C112.514 12.0597 123.049 19.5508 126.311 23.1086C125.191 22.3839 120.757 21.1123 111.981 21.8239C101.011 22.7133 89.2503 30.2242 82.1347 32.3984C76.4422 34.1378 70.5389 41.4906 68.2988 44.9495Z" fill="#022027"/>
<path d="M59.7319 37.361C50.0931 42.2769 44.3723 42.5092 41.3138 41.6756C40.7476 41.5213 40.5299 40.8656 40.818 40.3543C52.5647 19.5145 69.4117 16.2051 69.903 16.2051C72.9936 16.2051 77.3619 16.6119 76.6838 22.0365C76.0057 27.4611 73.2934 30.4447 59.7319 37.361Z" fill="#152E34"/>
<path d="M63.7993 81.9755C55.8509 66.8126 41.9416 56.0926 35.9804 52.6279C34.9104 56.8059 33.4124 67.8214 35.9804 78.4599C38.5484 89.0984 45.3043 99.2987 48.3613 103.069L63.7993 81.9755Z" fill="#152E34"/>
<path d="M74.008 66.4641C71.804 64.3965 69.2319 61.6293 68.0795 59.6133C63.9937 52.4655 65.9042 46.6877 70.3271 40.9002C73.8654 36.2703 82.2095 31.6352 85.9393 29.8964C101.568 23.2702 110.64 20.2508 120.889 21.8034C125.177 22.4531 128.954 24.6899 133.052 30.664" stroke="#0998B9" stroke-linecap="round"/>
<path d="M70.7847 16.2583C67.233 15.9492 63.266 18.0349 61.7265 19.1164C52.9448 23.6675 42.8262 35.8021 39.9537 41.5273C50.6755 42.9569 72.1994 32.992 75.4504 25.3159C78.7014 17.6397 75.2243 16.6447 70.7847 16.2583Z" stroke="#0998B9" stroke-linecap="round"/>
<path d="M63.3841 80.6812C53.6256 64.298 42.3861 55.2305 36.3861 52.7305C30.4313 71.9645 39.0892 89.5303 46.6568 101.622" stroke="#0998B9" stroke-linecap="round"/>
<path d="M60.0147 37.335C60.8772 38.9627 63.1462 42.2367 67.5832 44.9925" stroke="#0998B9" stroke-linecap="round"/>
<path d="M246.324 114.744C244.627 116.442 241.552 116.866 240.226 116.866C234.128 116.866 232.803 114.744 232.803 111C233.333 105.208 237.973 90.196 240.226 83.4141C249.108 111.499 248.445 112.622 246.324 114.744Z" fill="#38212F"/>
<path d="M186.257 112.144C184.168 114.321 180.383 114.865 178.752 114.865C171.247 114.865 169.615 112.144 169.615 107.344C170.268 99.9183 175.978 80.6723 178.752 71.9775C189.683 107.984 188.867 109.424 186.257 112.144Z" stroke="#0998B9" stroke-linecap="round"/>
<path d="M112.576 112.434C110.746 114.378 107.429 114.864 106 114.864C99.4237 114.864 97.9941 112.434 97.9941 108.145C98.566 101.512 103.569 84.3191 106 76.5518C115.578 108.717 114.863 110.004 112.576 112.434Z" stroke="#0998B9" stroke-linecap="round"/>
<line x1="106.07" y1="101.069" x2="106.07" y2="126.373" stroke="#0998B9" stroke-linecap="round"/>
<line x1="102.554" y1="106.094" x2="105.664" y2="110.161" stroke="#0998B9" stroke-linecap="round"/>
<line x1="108.971" y1="102.991" x2="106.277" y2="105.46" stroke="#0998B9" stroke-linecap="round"/>
<line x1="178.693" y1="99.9253" x2="178.693" y2="126.373" stroke="#0998B9" stroke-linecap="round"/>
<line x1="175.177" y1="105.26" x2="178.436" y2="109.521" stroke="#0998B9" stroke-linecap="round"/>
<line x1="181.731" y1="102.007" x2="178.9" y2="104.602" stroke="#0998B9" stroke-linecap="round"/>
<path d="M246.325 114.744C244.628 116.442 241.553 116.866 240.227 116.866C234.129 116.866 232.804 114.744 232.804 111C233.334 105.208 237.974 90.196 240.227 83.4141C249.109 111.499 248.446 112.622 246.325 114.744Z" stroke="#C83E93" stroke-linecap="round"/>
<line x1="239.963" y1="105.644" x2="239.963" y2="126.373" stroke="#C83E93" stroke-linecap="round"/>
<line x1="237.221" y1="109.782" x2="239.674" y2="112.989" stroke="#C83E93" stroke-linecap="round"/>
<line x1="242.256" y1="107.335" x2="240.169" y2="109.249" stroke="#C83E93" stroke-linecap="round"/>
<path d="M207.153 117.521C205.815 118.827 203.39 119.153 202.345 119.153C197.537 119.153 196.492 117.521 196.492 114.64C196.91 110.185 200.568 98.6378 202.345 93.4209C209.348 115.025 208.825 115.889 207.153 117.521Z" stroke="#0998B9" stroke-linecap="round"/>
<line x1="202.424" y1="110.218" x2="202.424" y2="126.373" stroke="#0998B9" stroke-linecap="round"/>
<line x1="0.5" y1="-0.5" x2="3.52668" y2="-0.5" transform="matrix(0.619993 0.784607 -0.803827 0.594863 199.352 113.306)" stroke="#0998B9" stroke-linecap="round"/>
<line x1="0.5" y1="-0.5" x2="2.58054" y2="-0.5" transform="matrix(-0.748075 0.663615 -0.687689 -0.726006 204.152 110.89)" stroke="#0998B9" stroke-linecap="round"/>
<path d="M12.8255 43.5604C11.5361 42.0458 7.34992 41.4277 3.94885 41.2297C3.48116 41.2025 3.41532 40.5598 3.87773 40.4847C9.02922 39.6471 12.1861 40.8634 13.7988 42.1989C14.1249 42.469 15.4577 42.3437 15.8004 42.0949C16.0201 41.9354 16.2898 41.7834 16.619 41.6501C21.4134 39.0266 24.8025 38.8592 26.6594 39.296C27.0523 39.3884 26.946 39.7831 26.5425 39.7891C20.7833 39.8745 17.008 43.2825 15.4264 45.5752C15.2376 45.8489 14.7562 45.8467 14.5602 45.5782C14.2196 45.1116 13.6658 44.4361 12.8255 43.5604Z" fill="#C83E93"/>
<path d="M26.6465 25.0006C25.4594 23.6061 21.6569 23.021 18.4986 22.8235C18.031 22.7942 17.9665 22.1546 18.4296 22.0834C23.0744 21.3682 25.9627 22.4451 27.4803 23.6571C27.8112 23.9214 29.1746 23.8012 29.5258 23.5645C29.7154 23.4367 29.941 23.3152 30.2086 23.207C34.6381 20.783 37.7902 20.592 39.5512 20.9772C39.9455 21.0634 39.843 21.4526 39.4395 21.4611C34.115 21.5733 30.611 24.7107 29.1174 26.8512C28.9272 27.1239 28.4431 27.1225 28.2457 26.8549C27.9238 26.4186 27.4116 25.798 26.6465 25.0006Z" fill="#C83E93"/>
<line x1="22.0117" y1="136.666" x2="44.1708" y2="136.666" stroke="#0998B9" stroke-linecap="round"/>
<g opacity="0.6">
<line x1="40.3105" y1="145.815" x2="111.933" y2="145.815" stroke="#0998B9" stroke-linecap="round"/>
<line x1="133.805" y1="145.815" x2="145.385" y2="145.815" stroke="#0998B9" stroke-linecap="round"/>
<line x1="157.536" y1="145.815" x2="205.428" y2="145.815" stroke="#0998B9" stroke-linecap="round"/>
</g>
<line x1="57.1797" y1="136.666" x2="64.4712" y2="136.666" stroke="#0998B9" stroke-linecap="round"/>
<g opacity="0.3">
<line x1="55.75" y1="155.537" x2="83.6274" y2="155.537" stroke="#0998B9" stroke-linecap="round"/>
<line x1="100.353" y1="155.537" x2="111.933" y2="155.537" stroke="#0998B9" stroke-linecap="round"/>
<line x1="179.266" y1="155.537" x2="190.846" y2="155.537" stroke="#0998B9" stroke-linecap="round"/>
<line x1="127.515" y1="155.537" x2="166.543" y2="155.537" stroke="#0998B9" stroke-linecap="round"/>
</g>
<line x1="84.627" y1="136.666" x2="149.387" y2="136.666" stroke="#0998B9" stroke-linecap="round"/>
<line x1="167.543" y1="136.666" x2="184.842" y2="136.666" stroke="#0998B9" stroke-linecap="round"/>
<line x1="191.273" y1="136.666" x2="208.572" y2="136.666" stroke="#0998B9" stroke-linecap="round"/>
<line x1="219.293" y1="136.666" x2="235.162" y2="136.666" stroke="#0998B9" stroke-linecap="round"/>
<path d="M154.916 27.5845L154.916 120.181" stroke="#584579" stroke-linecap="round"/>
<path d="M17.5088 127.016H29.9461M236.806 127.016L154.605 2.5L106.714 68.1175M236.806 127.016H160.895M236.806 127.016H249.386M29.9461 127.016L88.2728 48.1035L154.605 120.181L160.895 127.016M29.9461 127.016H88.2728H160.895" stroke="#01CDFD" stroke-width="2" stroke-linecap="round"/>
<path d="M106.011 51.3805C106.011 54.713 108.712 57.4145 112.045 57.4145H131.244C134.122 57.4145 136.455 55.0814 136.455 52.2033C136.455 49.5947 134.538 47.4337 132.036 47.052C131.619 42.0596 127.43 38.2153 122.33 38.2153C117.834 38.2153 114.05 41.2629 112.93 45.4051C112.654 45.3665 112.331 45.3465 112.045 45.3465C108.712 45.3465 106.011 48.048 106.011 51.3805Z" fill="#38212F"/>
<path d="M128.229 47.9521C129.08 47.3476 130.121 46.9921 131.244 46.9921C134.122 46.9921 136.455 49.3253 136.455 52.2033C136.455 55.0814 134.122 57.4145 131.244 57.4145H112.045C108.712 57.4145 106.011 54.713 106.011 51.3805C106.011 48.048 108.712 45.3465 112.045 45.3465C112.331 45.3465 112.613 45.3665 112.889 45.4051M132.033 47.1292C131.615 42.1369 127.43 38.2153 122.33 38.2153C117.806 38.2153 114.002 41.3015 112.909 45.4836C112.703 46.2719 112.593 47.0992 112.593 47.952" stroke="#C83E93"/>
<path d="M166.258 38.2086C166.258 42.8952 170.057 46.6943 174.744 46.6943H201.743C205.791 46.6943 209.072 43.4132 209.072 39.3658C209.072 35.6972 206.376 32.6583 202.858 32.1214C202.27 25.1006 196.381 19.6943 189.208 19.6943C182.885 19.6943 177.563 23.9802 175.988 29.8054C175.6 29.751 175.147 29.723 174.744 29.723C170.057 29.723 166.258 33.5221 166.258 38.2086Z" fill="#38212F"/>
<path d="M197.504 33.3872C198.701 32.5371 200.164 32.0372 201.743 32.0372C205.791 32.0372 209.072 35.3183 209.072 39.3658C209.072 43.4132 205.791 46.6943 201.743 46.6943H174.744C170.057 46.6943 166.258 42.8952 166.258 38.2086C166.258 33.5221 170.057 29.723 174.744 29.723C175.147 29.723 175.543 29.751 175.931 29.8054M202.853 32.23C202.265 25.2092 196.381 19.6943 189.208 19.6943C182.845 19.6943 177.496 24.0344 175.959 29.9157C175.669 31.0244 175.515 32.1878 175.515 33.3872" stroke="#C83E93"/>
<path d="M88.2734 74.9531L88.2734 127.016" stroke="#584579" stroke-linecap="round"/>
<path d="M132.982 30.4565C122.801 17.4874 107.755 10.2197 89.9884 10.2197C59.2756 10.2197 34.3779 35.1174 34.3779 65.8302C34.3779 79.8363 39.5558 92.633 48.1019 102.411L88.7264 48.5005L106.501 67.9847" stroke="#01CDFD" stroke-width="2" stroke-linecap="round"/>
<defs>
<linearGradient id="paint0_linear_5569:20666" x1="133.631" y1="127.078" x2="133.631" y2="158.028" gradientUnits="userSpaceOnUse">
<stop stop-color="#01CDFD"/>
<stop offset="1" stop-color="#01CDFD" stop-opacity="0"/>
</linearGradient>
</defs>
</svg>
