<svg width="16" height="16" viewBox="0 0 16 16" fill="none" xmlns="http://www.w3.org/2000/svg">
<path d="M7.99992 9.4463C6.57992 9.4463 5.41992 8.29297 5.41992 6.8663C5.41992 5.43964 6.57992 4.29297 7.99992 4.29297C9.41992 4.29297 10.5799 5.4463 10.5799 6.87297C10.5799 8.29964 9.41992 9.4463 7.99992 9.4463ZM7.99992 5.29297C7.13326 5.29297 6.41992 5.99964 6.41992 6.87297C6.41992 7.7463 7.12659 8.45297 7.99992 8.45297C8.87325 8.45297 9.57992 7.7463 9.57992 6.87297C9.57992 5.99964 8.86659 5.29297 7.99992 5.29297Z" fill="white"/>
<path d="M8.00012 15.1735C7.01345 15.1735 6.02012 14.8002 5.24678 14.0602C3.28012 12.1668 1.10678 9.14683 1.92678 5.5535C2.66678 2.2935 5.51345 0.833496 8.00012 0.833496C8.00012 0.833496 8.00012 0.833496 8.00678 0.833496C10.4935 0.833496 13.3401 2.2935 14.0801 5.56016C14.8934 9.1535 12.7201 12.1668 10.7534 14.0602C9.98012 14.8002 8.98678 15.1735 8.00012 15.1735ZM8.00012 1.8335C6.06012 1.8335 3.56678 2.86683 2.90678 5.7735C2.18678 8.9135 4.16012 11.6202 5.94678 13.3335C7.10012 14.4468 8.90678 14.4468 10.0601 13.3335C11.8401 11.6202 13.8134 8.9135 13.1068 5.7735C12.4401 2.86683 9.94012 1.8335 8.00012 1.8335Z" fill="white"/>
</svg>
