<svg width="76" height="49" viewBox="0 0 76 49" fill="none" xmlns="http://www.w3.org/2000/svg">
<mask id="mask0" mask-type="alpha" maskUnits="userSpaceOnUse" x="27" y="0" width="49" height="49">
<path fill-rule="evenodd" clip-rule="evenodd" d="M76 24.3282C76 37.4636 65.3516 48.112 52.2162 48.112C45.3025 48.112 39.0779 45.1621 34.7322 40.4522L27.9915 33.6986C27.9915 33.6986 29.8248 29.6794 29.8248 24.3282C29.8248 18.977 27.9915 14.94 27.9915 14.94H30.3571C33.9983 6.47315 42.4149 0.544434 52.2162 0.544434C65.3516 0.544434 76 11.1928 76 24.3282ZM62.2423 24.3282C62.2423 29.8654 57.7534 34.3543 52.2162 34.3543C46.679 34.3543 42.1901 29.8654 42.1901 24.3282C42.1901 18.791 46.679 14.3021 52.2162 14.3021C57.7534 14.3021 62.2423 18.791 62.2423 24.3282Z" fill="url(#paint0_linear)"/>
</mask>
<g mask="url(#mask0)">
<path fill-rule="evenodd" clip-rule="evenodd" d="M76.0002 24.3282C76.0002 37.4636 65.3518 48.112 52.2164 48.112C45.3027 48.112 39.0781 45.1621 34.7324 40.4522L27.9916 33.6986C27.9916 33.6986 29.8249 29.6794 29.8249 24.3282C29.8249 18.977 27.9916 14.94 27.9916 14.94H30.3573C33.9985 6.47315 42.4151 0.544434 52.2164 0.544434C65.3518 0.544434 76.0002 11.1928 76.0002 24.3282ZM62.2424 24.3282C62.2424 29.8654 57.7536 34.3543 52.2164 34.3543C46.6791 34.3543 42.1903 29.8654 42.1903 24.3282C42.1903 18.791 46.6791 14.3021 52.2164 14.3021C57.7536 14.3021 62.2424 18.791 62.2424 24.3282Z" fill="url(#paint1_linear)"/>
<path opacity="0.4" d="M27.9917 24.0305V15.0052L28.0026 15.0096C29.6664 15.6719 30.992 17.0947 32.1365 18.3233C32.3718 18.5759 32.5996 18.8202 32.8209 19.0481L45.1375 31.4444C45.2137 31.5171 45.3199 31.6133 45.444 31.7217C38.6666 27.0546 34.9069 25.1549 27.9917 24.0305Z" fill="#1E2337"/>
</g>
<path d="M24.2961 0.544434C11.1607 0.544434 0.512329 11.1928 0.512329 24.3282C0.512329 37.4636 11.1607 48.112 24.2961 48.112C29.5121 48.112 34.3359 46.4329 38.2566 43.5858L28.0025 33.6469C26.856 34.1033 25.6053 34.3543 24.2961 34.3543C18.7589 34.3543 14.2701 29.8654 14.2701 24.3282C14.2701 18.791 18.7589 14.3021 24.2961 14.3021C25.6053 14.3021 26.856 14.5531 28.0025 15.0095C30.0083 15.808 31.5225 17.7119 32.8207 19.048L45.1373 31.4443C45.4134 31.7075 46.0836 32.28 46.5688 32.6203C46.8385 32.8095 47.2644 33.0627 47.6369 33.2539C48.0227 33.4519 48.3505 33.5845 48.3505 33.5845C48.3505 33.5845 46.5172 29.6649 46.5172 24.3565C46.5172 19.048 48.3505 15.1284 48.3505 15.1284L40.6341 7.44351C38.8115 5.62338 36.9144 3.99889 34.5883 2.88059C31.4738 1.38331 27.9829 0.544434 24.2961 0.544434Z" fill="url(#paint2_linear)"/>
<path opacity="0.3" fill-rule="evenodd" clip-rule="evenodd" d="M27.9915 33.6611C29.2301 36.4128 31.1688 41.3047 31.1688 47.1135C33.7432 46.338 36.1337 45.138 38.2587 43.5948L28.0047 33.6559C28.0003 33.6576 27.9959 33.6594 27.9915 33.6611Z" fill="#262D47"/>
<defs>
<linearGradient id="paint0_linear" x1="67.0942" y1="7.14504" x2="38.699" y2="44.5602" gradientUnits="userSpaceOnUse">
<stop stop-color="#FF52BC"/>
<stop offset="0.516172" stop-color="#C83E93"/>
<stop offset="1" stop-color="#861F5E"/>
</linearGradient>
<linearGradient id="paint1_linear" x1="67.0944" y1="7.14504" x2="38.6992" y2="44.5602" gradientUnits="userSpaceOnUse">
<stop stop-color="#FF52BC"/>
<stop offset="0.516172" stop-color="#C83E93"/>
<stop offset="1" stop-color="#861F5E"/>
</linearGradient>
<linearGradient id="paint2_linear" x1="38.6026" y1="43.1755" x2="6.91548" y2="12.7433" gradientUnits="userSpaceOnUse">
<stop stop-color="#00FFFF"/>
<stop offset="1" stop-color="#01CDFD"/>
</linearGradient>
</defs>
</svg>
