<svg width="76" height="49" viewBox="0 0 76 49" fill="none" xmlns="http://www.w3.org/2000/svg">
<mask id="mask0_5968_36499" style="mask-type:alpha" maskUnits="userSpaceOnUse" x="27" y="0" width="49" height="49">
<path fill-rule="evenodd" clip-rule="evenodd" d="M75.9997 24.3287C75.9997 37.4641 65.3514 48.1125 52.216 48.1125C45.3023 48.1125 39.0776 45.1625 34.732 40.4527L27.9912 33.699C27.9912 33.699 29.8245 29.6799 29.8245 24.3287C29.8245 18.9775 27.9912 14.9405 27.9912 14.9405H30.3569C33.9981 6.47364 42.4147 0.544922 52.216 0.544922C65.3514 0.544922 75.9997 11.1933 75.9997 24.3287ZM62.242 24.3287C62.242 29.8659 57.7532 34.3547 52.216 34.3547C46.6787 34.3547 42.1899 29.8659 42.1899 24.3287C42.1899 18.7915 46.6787 14.3026 52.216 14.3026C57.7532 14.3026 62.242 18.7915 62.242 24.3287Z" fill="url(#paint0_linear_5968_36499)"/>
</mask>
<g mask="url(#mask0_5968_36499)">
<path fill-rule="evenodd" clip-rule="evenodd" d="M75.9997 24.3287C75.9997 37.4641 65.3514 48.1125 52.216 48.1125C45.3023 48.1125 39.0776 45.1625 34.732 40.4527L27.9912 33.699C27.9912 33.699 29.8245 29.6799 29.8245 24.3287C29.8245 18.9775 27.9912 14.9405 27.9912 14.9405H30.3569C33.9981 6.47364 42.4147 0.544922 52.216 0.544922C65.3514 0.544922 75.9997 11.1933 75.9997 24.3287ZM62.242 24.3287C62.242 29.8659 57.7532 34.3547 52.216 34.3547C46.6787 34.3547 42.1899 29.8659 42.1899 24.3287C42.1899 18.7915 46.6787 14.3026 52.216 14.3026C57.7532 14.3026 62.242 18.7915 62.242 24.3287Z" fill="url(#paint1_linear_5968_36499)"/>
<path opacity="0.4" d="M27.9912 24.0311V15.0059L28.0022 15.0102C29.6659 15.6725 30.9915 17.0953 32.136 18.3239C32.3713 18.5765 32.5991 18.8209 32.8204 19.0487L45.137 31.445C45.2132 31.5177 45.3194 31.6139 45.4435 31.7223C38.6661 27.0552 34.9065 25.1555 27.9912 24.0311Z" fill="#1E2337"/>
</g>
<path d="M24.296 0.544922C11.1606 0.544922 0.512207 11.1933 0.512207 24.3287C0.512207 37.4641 11.1606 48.1125 24.296 48.1125C29.512 48.1125 34.3358 46.4334 38.2564 43.5863L28.0024 33.6474C26.8558 34.1038 25.6052 34.3547 24.296 34.3547C18.7588 34.3547 14.2699 29.8659 14.2699 24.3287C14.2699 18.7915 18.7588 14.3026 24.296 14.3026C25.6052 14.3026 26.8558 14.5536 28.0024 15.01C30.0082 15.8085 31.5224 17.7124 32.8206 19.0485L45.1372 31.4448C45.4133 31.708 46.0835 32.2804 46.5687 32.6208C46.8384 32.81 47.2643 33.0632 47.6367 33.2544C48.0226 33.4524 48.3504 33.585 48.3504 33.585C48.3504 33.585 46.5171 29.6654 46.5171 24.3569C46.5171 19.0485 48.3504 15.1289 48.3504 15.1289L40.634 7.444C38.8114 5.62387 36.9143 3.99938 34.5882 2.88108C31.4737 1.3838 27.9828 0.544922 24.296 0.544922Z" fill="white"/>
<path opacity="0.3" fill-rule="evenodd" clip-rule="evenodd" d="M27.9912 33.6615C29.2299 36.4132 31.1686 41.305 31.1686 47.1139C33.743 46.3384 36.1334 45.1383 38.2585 43.5951L28.0044 33.6562C28 33.658 27.9956 33.6598 27.9912 33.6615Z" fill="#262D47"/>
<defs>
<linearGradient id="paint0_linear_5968_36499" x1="67.0939" y1="7.14552" x2="38.6988" y2="44.5607" gradientUnits="userSpaceOnUse">
<stop stop-color="#FF52BC"/>
<stop offset="0.516172" stop-color="#C83E93"/>
<stop offset="1" stop-color="#861F5E"/>
</linearGradient>
<linearGradient id="paint1_linear_5968_36499" x1="67.0939" y1="7.14552" x2="38.6988" y2="44.5607" gradientUnits="userSpaceOnUse">
<stop stop-color="#FF52BC"/>
<stop offset="0.516172" stop-color="#C83E93"/>
<stop offset="1" stop-color="#861F5E"/>
</linearGradient>
</defs>
</svg>
