<svg width="16" height="16" viewBox="0 0 16 16" fill="none" xmlns="http://www.w3.org/2000/svg">
<path d="M11.3335 14.1668H4.66683C2.2335 14.1668 0.833496 12.7668 0.833496 10.3335V5.66683C0.833496 3.2335 2.2335 1.8335 4.66683 1.8335H11.3335C13.7668 1.8335 15.1668 3.2335 15.1668 5.66683V10.3335C15.1668 12.7668 13.7668 14.1668 11.3335 14.1668ZM4.66683 2.8335C2.76016 2.8335 1.8335 3.76016 1.8335 5.66683V10.3335C1.8335 12.2402 2.76016 13.1668 4.66683 13.1668H11.3335C13.2402 13.1668 14.1668 12.2402 14.1668 10.3335V5.66683C14.1668 3.76016 13.2402 2.8335 11.3335 2.8335H4.66683Z" fill="white"/>
<path d="M7.99969 8.57998C7.43969 8.57998 6.87302 8.40665 6.43969 8.05331L4.35302 6.38665C4.13969 6.21331 4.09969 5.89998 4.27302 5.68665C4.44636 5.47331 4.75969 5.43332 4.97303 5.60665L7.05969 7.27332C7.56635 7.67998 8.42635 7.67998 8.93302 7.27332L11.0197 5.60665C11.233 5.43332 11.553 5.46665 11.7197 5.68665C11.893 5.89998 11.8597 6.21998 11.6397 6.38665L9.55302 8.05331C9.12636 8.40665 8.55969 8.57998 7.99969 8.57998Z" fill="white"/>
</svg>
