<svg width="80" height="80" viewBox="0 0 80 80" fill="none" xmlns="http://www.w3.org/2000/svg">
<circle cx="40" cy="40" r="40" fill="#1B1B1B"/>
<g clip-path="url(#clip0_5331_19547)">
<path d="M31 62C30.7 62 30.4 61.9 30.1 61.8L27 60.7L26.8 60.6C25.5 60.1 24.9 58.7 25.4 57.4V57.3C25.4 57.3 26 56 26.3 55.1C26.4 54.9 26.4 54.7 26.3 54.6C26.2 54.5 26.2 54.4 26 54.3V54.2C24 52.7 20.8 49.4 20.7 45C20.6 43.3 20.8 41.7 21.1 40.2L21.2 40L21 39.9C20.4 39.7 19.9 39.4 19.3 39.1C18.6 38.6 17 37.3 17 35C17 33.2 17.9 31.7 19.4 31C19.5 31 19.6 30.9 19.7 30.9C20.1 30.9 20.4 31.1 20.5 31.5C20.6 31.9 20.4 32.2 20 32.4C19.1 32.8 18.5 33.8 18.5 35C18.5 36.6 19.3 37.3 20.1 37.8C20.5 38.1 20.9 38.3 21.3 38.4L21.5 38.5L21.6 38.3C22.5 36 23.8 34.2 25.6 32.8C29.4 29.9 33.9 28.4 39 28.4C40.6 28.4 42.3 28.6 44.4 29.1H44.6L44.7 28.9C46.2 26.1 48.6 24.2 51.8 23.4H51.9C51.9 23.4 51.9 23.4 52 23.4C52.3 23.4 52.5 23.5 52.6 23.7C52.8 23.9 52.8 24.2 52.7 24.4C51.7 27 51.2 28.7 51.2 30.9V31.1L51.4 31.2C56.6 33.4 57.7 38 58 39.3V39.4L58.1 39.5C58.2 39.5 58.3 39.6 58.6 39.6H60.2C61.5 39.6 62.6 40.7 62.6 42V46.9C62.6 48.2 61.5 49.3 60.2 49.3H58.6C58.3 49.3 58.1 49.4 58 49.5C57.9 49.6 57.8 49.8 57.7 50C56.5 52.5 54.7 54.4 52.3 55.7C52.2 55.7 52.2 55.8 52.1 55.8H51.7L51.9 56.1L52 56.2L52.5 57.5C52.7 58.1 52.7 58.8 52.4 59.4C52.1 60 51.6 60.5 51 60.7L50.8 60.8L47.7 61.9C47.5 62 47.2 62 47 62C46 62 45.1 61.4 44.7 60.5V60.4C44.6 60.1 44.3 59.4 44 58.7V58.6C44 58.5 44 58.5 43.9 58.4L43.8 58.3H43.5H43.4C43.2 58.3 43 58.3 42.8 58.4C42 58.5 40.8 58.6 39 58.6C37.1 58.6 35.8 58.3 35 58.2C34.8 58.2 34.7 58.1 34.6 58.1C34.5 58.1 34.5 58.1 34.5 58.1H34.4L34.3 58.2C34.2 58.3 34.2 58.3 34.1 58.5C33.7 59.4 33.3 60.6 33.3 60.6C33 61.4 32.1 62 31 62ZM46 59.9C46.1 60.3 46.5 60.5 46.9 60.5C47 60.5 47.1 60.5 47.2 60.4L50.4 59.2C50.6 59.1 50.8 58.9 50.9 58.7C51 58.5 51 58.2 50.9 57.9L50.5 56.9H50.6L50.4 56.5C50.3 56.4 50.2 56.1 50.2 55.7C50.2 55.2 50.6 54.5 51.3 54.1C53.4 53 54.9 51.3 56 49.1C56.1 48.8 56.3 48.4 56.7 48.1C57.1 47.7 57.7 47.5 58.3 47.5H59.9C60.4 47.5 60.8 47.1 60.8 46.6V41.7C60.8 41.2 60.4 40.8 59.9 40.8H58.3C57.2 40.8 56.4 40.2 56.2 39.4C55.9 37.7 54.8 33.7 49.9 32C49.6 31.9 49.4 31.6 49.4 31.3C49.4 29.4 49.8 27.8 50.4 25.8L50.6 25.3L50.1 25.5C48.5 26.2 46.7 27.3 45.5 29.9C45.4 30.2 45.1 30.3 44.8 30.3C44.7 30.3 44.7 30.3 44.6 30.3C42.7 29.8 40.8 29.6 38.8 29.6C33.9 29.6 29.8 30.9 26.3 33.7C23.3 36.1 21.8 39.8 22 44.6C22.3 49 25.6 52 27 53.1C27.2 53.2 27.5 53.5 27.7 53.8C28 54.3 28 54.9 27.8 55.5C27.7 55.9 27.4 56.7 26.9 57.8C26.8 58.1 26.8 58.4 26.9 58.6C27 58.8 27.2 59 27.4 59.1L30.6 60.3C30.7 60.3 30.8 60.4 30.9 60.4C31.3 60.4 31.7 60.1 31.8 59.8C31.8 59.8 32.2 58.7 32.6 57.8C32.8 57.3 33 56.9 33.4 56.6C33.6 56.5 33.9 56.4 34.2 56.4C34.4 56.4 34.6 56.4 34.8 56.5C35 56.5 35.1 56.6 35.3 56.6C36.1 56.8 37.1 57 38.9 57C40.5 57 41.6 56.9 42.4 56.8C42.7 56.8 43 56.7 43.2 56.7C43.3 56.7 43.4 56.7 43.6 56.7C44 56.7 44.2 56.8 44.5 56.9C44.9 57.2 45.1 57.6 45.2 58C45.6 58.9 45.9 59.7 46 59.9ZM51.2 42.9C50.3 42.9 49.5 42.1 49.5 41.2C49.5 40.3 50.2 39.5 51.2 39.5C52.2 39.5 52.9 40.2 52.9 41.2C52.9 42.1 52.1 42.9 51.2 42.9ZM26.6 29.2C26.2 28.3 26 27.2 26 26.2C26 22.2 29.3 19 33.2 19C37.1 19 40.3 22.1 40.4 26H39C38.9 22.9 36.3 20.5 33.3 20.5C30.1 20.5 27.5 23.1 27.5 26.3C27.5 27.1 27.7 27.9 28 28.6L26.6 29.2Z" fill="#01CDFD"/>
</g>
<defs>
<clipPath id="clip0_5331_19547">
<rect width="45.5" height="43" fill="white" transform="translate(17 19)"/>
</clipPath>
</defs>
</svg>
