<svg width="66" height="88" viewBox="0 0 66 88" fill="none" xmlns="http://www.w3.org/2000/svg">
<path d="M62.3334 17.7014V9.98009C64.5147 8.70839 66 6.36952 66 3.66661V1.83339C66 0.820016 65.18 0 64.1666 0H1.83339C0.820016 0 0 0.820016 0 1.83339V3.66678C0 6.36952 1.48534 8.70839 3.66661 9.98027V17.7014C3.66661 24.9667 6.76397 31.9205 12.1638 36.7795L20.1864 44L12.1638 51.2205C6.76397 56.0795 3.66661 63.0333 3.66661 70.2986V78.0197C1.48534 79.2916 0 81.6305 0 84.3334V86.1668C0 87.18 0.820016 88 1.83339 88H64.1668C65.1802 88 66.0002 87.18 66.0002 86.1666V84.3332C66.0002 81.6305 64.5148 79.2916 62.3336 78.0197V70.2986C62.3336 63.0333 59.2362 56.0795 53.8364 51.2205L45.8136 44L53.8362 36.7795C59.236 31.9205 62.3334 24.9666 62.3334 17.7014ZM48.9307 31.3295L37.8806 41.2751C37.1071 41.9698 36.6666 42.9598 36.6666 44C36.6666 45.0402 37.1071 46.0304 37.8806 46.7249L48.9307 56.6705C52.7871 60.142 55 65.1102 55 70.2986V77H50.4157L34.4663 55.7341C33.7752 54.8102 32.2247 54.8102 31.5336 55.7341L15.5842 77H11V70.2986C11 65.11 13.2129 60.1418 17.0694 56.6703L28.1196 46.7247C28.893 46.03 29.3336 45.04 29.3336 43.9998C29.3336 42.9596 28.893 41.9695 28.1196 41.2749L17.0694 31.3294C13.2129 27.858 11 22.8898 11 17.7014V11H55V17.7014C55 22.8898 52.7871 27.858 48.9307 31.3295Z" fill="#C83E93"/>
</svg>
