<svg width="22" height="22" viewBox="0 0 22 22" fill="none" xmlns="http://www.w3.org/2000/svg">
<path d="M20.2309 0.868222L20.2309 0.868223C20.0039 0.874837 19.7884 0.969406 19.6299 1.13193C19.6297 1.13214 19.6295 1.13234 19.6293 1.13254L17.2119 3.54898C15.0818 2.02953 12.128 2.13282 10.2135 4.04736L10.2135 4.04739L8.74911 5.51265L8.36866 5.1322C8.28822 5.04868 8.19198 4.98197 8.08552 4.93596C7.97866 4.88978 7.86366 4.86538 7.74725 4.86419C7.63085 4.86301 7.51537 4.88507 7.40759 4.92907C7.29982 4.97307 7.2019 5.03813 7.11959 5.12045C7.03727 5.20277 6.9722 5.30068 6.9282 5.40846C6.8842 5.51624 6.86214 5.63171 6.86333 5.74812C6.86451 5.86453 6.88891 5.97953 6.93509 6.08639C6.9811 6.19284 7.04781 6.28909 7.13134 6.36953L8.0366 7.27479C8.08905 7.34614 8.15203 7.40912 8.22338 7.46157L14.5366 13.7748C14.589 13.8461 14.652 13.9091 14.7234 13.9616L15.6296 14.8678C15.7101 14.9513 15.8063 15.018 15.9128 15.0641C16.0196 15.1102 16.1346 15.1346 16.251 15.1358C16.3674 15.137 16.4829 15.1149 16.5907 15.0709C16.6985 15.0269 16.7964 14.9619 16.8787 14.8796C16.961 14.7972 17.0261 14.6993 17.0701 14.5916C17.1141 14.4838 17.1361 14.3683 17.135 14.2519C17.1338 14.1355 17.1094 14.0205 17.0632 13.9136C17.0172 13.8072 16.9505 13.7109 16.867 13.6305L16.4865 13.25L17.9518 11.7857L17.9518 11.7857C19.8663 9.87112 19.9696 6.91731 18.4502 4.78725L20.8666 2.36983C20.8668 2.36964 20.867 2.36945 20.8672 2.36926C20.9931 2.2464 21.0791 2.08844 21.1139 1.91598C21.1487 1.74325 21.1306 1.56403 21.0619 1.40177C20.9932 1.23951 20.8771 1.10176 20.7289 1.00657C20.5806 0.911367 20.407 0.863149 20.2309 0.868222ZM16.7135 10.5474L15.2491 12.0127L9.98649 6.75003L11.4518 5.28569L11.4518 5.28566C12.1818 4.5556 13.1325 4.19044 14.0831 4.19044C15.0194 4.19044 15.9523 4.55169 16.6785 5.26149C16.6973 5.28213 16.717 5.30186 16.7376 5.32061C18.1663 6.78249 18.1624 9.0985 16.7135 10.5474L16.7135 10.5474ZM5.74133 6.86719H5.7413C5.56716 6.86724 5.397 6.91923 5.25258 7.01652C5.10816 7.11382 4.99605 7.25199 4.9306 7.41336C4.86515 7.57472 4.84933 7.75195 4.88517 7.92235C4.92094 8.09245 5.00656 8.24804 5.13109 8.36928L5.51179 8.74998L4.04652 10.2143L4.04649 10.2144C2.13196 12.1289 2.02866 15.0827 3.54811 17.2128L1.13229 19.6296C1.13198 19.6299 1.13166 19.6302 1.13134 19.6305C1.04781 19.7109 0.981103 19.8072 0.935093 19.9136C0.888909 20.0205 0.86451 20.1355 0.863326 20.2519C0.862143 20.3683 0.884198 20.4838 0.928201 20.5916C0.972203 20.6993 1.03727 20.7972 1.11958 20.8796C1.2019 20.9619 1.29982 21.0269 1.40759 21.0709C1.51537 21.1149 1.63084 21.137 1.74725 21.1358C1.86366 21.1346 1.97866 21.1102 2.08552 21.0641C2.19197 21.018 2.2882 20.9513 2.36864 20.8678C2.36895 20.8675 2.36927 20.8672 2.36958 20.8669L4.78638 18.451C6.91645 19.9705 9.87026 19.8672 11.7848 17.9527L11.7848 17.9526L13.2492 16.4874L13.6296 16.8678C13.7101 16.9513 13.8063 17.018 13.9128 17.0641C14.0196 17.1102 14.1346 17.1346 14.251 17.1358C14.3674 17.137 14.4829 17.1149 14.5907 17.0709C14.6985 17.0269 14.7964 16.9619 14.8787 16.8796C14.961 16.7972 15.0261 16.6993 15.0701 16.5916C15.1141 16.4838 15.1361 16.3683 15.135 16.2519C15.1338 16.1355 15.1094 16.0205 15.0632 15.9136C15.0172 15.8072 14.9505 15.7109 14.867 15.6305L13.9617 14.7252C13.9092 14.6539 13.8463 14.5909 13.7749 14.5384L7.46168 8.22523C7.40923 8.15387 7.34625 8.09089 7.2749 8.03844L6.36841 7.13195C6.28699 7.04829 6.18965 6.98176 6.08212 6.93629C5.97429 6.8907 5.85841 6.8672 5.74133 6.86719ZM6.74917 9.98736L12.0118 15.25L10.5465 16.7143L10.5465 16.7144C9.09763 18.1632 6.78162 18.1672 5.31974 16.7385C5.30099 16.7179 5.28126 16.6981 5.26063 16.6794C3.83196 15.2175 3.83593 12.9015 5.28479 11.4527L5.28482 11.4526L6.74917 9.98736Z" fill="#1B1B1B" stroke="#1B1B1B" stroke-width="0.25"/>
</svg>
