<svg width="31" height="30" viewBox="0 0 31 30" fill="none" xmlns="http://www.w3.org/2000/svg">
<path fill-rule="evenodd" clip-rule="evenodd" d="M8.91175 4.93881C9.26251 3.61091 9.11982 2.20087 8.51002 0.970176C10.5516 1.5304 11.9432 2.40904 12.6444 3.60894C13.1977 4.59271 13.3184 5.76188 12.9775 6.83792L12.8951 7.11611L11.2398 8.01473C10.3257 7.55042 8.49018 6.36168 8.81987 5.24892L8.83608 5.19419L8.91175 4.93881ZM24.2768 29.655C20.0495 27.0284 13.5767 12.9765 12.5636 10.7367L14.7686 9.53957C16.0997 11.6107 24.3464 24.7149 24.2768 29.655Z" fill="#ED9361"/>
<path fill-rule="evenodd" clip-rule="evenodd" d="M5.71175 2.36475C-0.090858 6.85862 -1.77333 15.0759 2.06329 21.5543C5.52906 27.4065 12.404 29.9915 18.6616 28.2782C18.5223 28.0888 18.386 27.8992 18.2527 27.7107C16.9414 25.8558 15.6413 23.6713 14.4772 21.5609C12.1449 17.3325 10.234 13.1726 9.71494 12.0252L8.93352 10.2976C8.45375 9.99747 7.91979 9.61565 7.43513 9.16527C7.02564 8.78473 6.51337 8.22942 6.14376 7.50294C5.75736 6.74345 5.44864 5.6215 5.82217 4.36075L5.83838 4.30602L5.89821 4.1041C6.04319 3.52073 5.97735 2.90459 5.71175 2.36475ZM23.4755 25.9582C23.0979 26.2332 22.7039 26.4927 22.2939 26.7356C22.0902 26.8562 21.8848 26.9714 21.6779 27.0811C20.5913 25.6945 19.4648 23.949 18.3874 22.1137C17.2751 20.2189 16.2152 18.2283 15.306 16.4382C14.0312 13.9282 13.0525 11.8122 12.6409 10.907L12.6061 10.8305L12.5636 10.7366L12.5923 10.7211C13.8371 11.5683 15.2119 12.1905 16.6504 12.5706C17.0818 13.2853 17.5578 14.087 18.055 14.9463C19.0603 16.6839 20.152 18.6566 21.1361 20.6201C22.0666 22.4765 22.901 24.3247 23.4755 25.9582ZM25.9569 23.674C29.2654 19.8371 30.4006 14.4962 28.8618 9.60732C28.2197 10.1864 27.5108 10.7106 26.7381 11.1682C24.7866 12.3239 22.6583 12.9187 20.5406 13.0006C21.2665 14.2466 22.0454 15.6256 22.8054 17.0476C23.9414 19.1732 25.0658 21.451 25.9096 23.5555C25.9254 23.5949 25.9412 23.6344 25.9569 23.674Z" fill="#FAFAFA"/>
<path fill-rule="evenodd" clip-rule="evenodd" d="M5.71175 2.36475C-0.090858 6.85862 -1.77333 15.0759 2.06329 21.5543C5.52906 27.4065 12.404 29.9915 18.6616 28.2782C18.5223 28.0888 18.386 27.8992 18.2527 27.7107C16.9414 25.8558 15.6413 23.6713 14.4772 21.5609C12.1449 17.3325 10.234 13.1726 9.71494 12.0252L8.93352 10.2976C8.45375 9.99747 7.91979 9.61565 7.43513 9.16527C7.02564 8.78473 6.51337 8.22942 6.14376 7.50294C5.75736 6.74345 5.44864 5.6215 5.82217 4.36075L5.83838 4.30602L5.89821 4.1041C6.04319 3.52073 5.97735 2.90459 5.71175 2.36475ZM23.4755 25.9582C23.0979 26.2332 22.7039 26.4927 22.2939 26.7356C22.0902 26.8562 21.8848 26.9714 21.6779 27.0811C20.5913 25.6945 19.4648 23.949 18.3874 22.1137C17.2751 20.2189 16.2152 18.2283 15.306 16.4382C14.0312 13.9282 13.0525 11.8122 12.6409 10.907L12.6061 10.8305L12.5636 10.7366L12.5923 10.7211C13.8371 11.5683 15.2119 12.1905 16.6504 12.5706C17.0818 13.2853 17.5578 14.087 18.055 14.9463C19.0603 16.6839 20.152 18.6566 21.1361 20.6201C22.0666 22.4765 22.901 24.3247 23.4755 25.9582ZM25.9569 23.674C29.2654 19.8371 30.4006 14.4962 28.8618 9.60732C28.2197 10.1864 27.5108 10.7106 26.7381 11.1682C24.7866 12.3239 22.6583 12.9187 20.5406 13.0006C21.2665 14.2466 22.0454 15.6256 22.8054 17.0476C23.9414 19.1732 25.0658 21.451 25.9096 23.5555C25.9254 23.5949 25.9412 23.6344 25.9569 23.674Z" fill="url(#paint0_radial_1427_10857)"/>
<defs>
<radialGradient id="paint0_radial_1427_10857" cx="0" cy="0" r="1" gradientUnits="userSpaceOnUse" gradientTransform="translate(6.20896 3.64344) rotate(58.5038) scale(31.4963 34.862)">
<stop offset="0.229242" stop-color="#F29078"/>
<stop offset="1" stop-color="#EB945B"/>
</radialGradient>
</defs>
</svg>
