<svg width="20" height="15" viewBox="0 0 20 15" fill="none" xmlns="http://www.w3.org/2000/svg">
<path d="M12.72 14.7996C12.24 14.7996 11.76 14.7196 11.36 14.6396C10.84 14.7196 10.36 14.7996 9.92 14.7996C9.44 14.7996 8.96 14.7196 8.56 14.6396C8.04 14.7196 7.56 14.7996 7.12 14.7996C3.2 14.7996 0 11.5996 0 7.71961C0 3.83961 3.2 0.599609 7.12 0.599609C7.56 0.599609 8.04 0.639609 8.52 0.759609H8.6C9 0.679609 9.44 0.599609 9.96 0.599609C10.4 0.599609 10.88 0.639609 11.36 0.759609H11.44C11.84 0.679609 12.28 0.599609 12.8 0.599609C16.72 0.599609 19.92 3.79961 19.92 7.71961C19.92 11.6396 16.6 14.7996 12.72 14.7996ZM7.12 1.19961C3.52 1.19961 0.64 4.11961 0.64 7.67961C0.64 11.2396 3.52 14.1996 7.12 14.1996C7.56 14.1996 7.96 14.1596 8.36 14.0796C8.44 14.0396 8.48 14.0396 8.52 14.0396C11.52 13.3596 13.6 10.7596 13.6 7.71961C13.6 4.67961 11.52 2.07961 8.56 1.39961H8.52C8.48 1.39961 8.44 1.39961 8.36 1.35961C7.92 1.23961 7.52 1.19961 7.12 1.19961ZM10.4 1.43961C12.76 2.67961 14.2 5.07961 14.2 7.71961C14.2 10.3596 12.76 12.7596 10.4 13.9996L9.84 14.1996L10.48 14.1596H10.56C10.76 14.1596 10.96 14.1196 11.16 14.0796C11.24 14.0396 11.28 14.0396 11.32 14.0396C14.32 13.3596 16.4 10.7596 16.4 7.71961C16.4 4.67961 14.32 2.07961 11.36 1.39961H11.32C11.28 1.39961 11.24 1.39961 11.16 1.35961C10.92 1.31961 10.72 1.27961 10.56 1.27961H9.96L10.4 1.43961ZM13.2 1.43961C15.56 2.67961 17 5.07961 17 7.71961C17 10.3596 15.56 12.7596 13.2 13.9996L12.72 14.1996L13.28 14.1596C16.64 13.8796 19.2 11.0796 19.2 7.71961C19.2 4.35961 16.64 1.51961 13.24 1.23961L12.64 1.19961L13.2 1.43961Z" fill="#1B1B1B"/>
<path fill-rule="evenodd" clip-rule="evenodd" d="M8.84 10.3996C7.36 10.3996 6.12 9.19961 6.12 7.67961C6.12 6.15961 7.32 4.95961 8.84 4.95961C10.36 4.95961 11.56 6.15961 11.56 7.67961C11.56 9.19961 10.36 10.3996 8.84 10.3996ZM8.84 5.59961C7.68 5.59961 6.76 6.55961 6.76 7.67961C6.76 8.79961 7.72 9.75961 8.84 9.75961C9.96 9.75961 10.92 8.79961 10.92 7.67961C10.92 6.55961 10 5.59961 8.84 5.59961Z" fill="#1B1B1B"/>
<path fill-rule="evenodd" clip-rule="evenodd" d="M5.64 10.3996C4.16 10.3996 2.92 9.19961 2.92 7.67961C2.92 6.15961 4.12 4.95961 5.64 4.95961C7.16 4.95961 8.36 6.15961 8.36 7.67961C8.36 9.19961 7.16 10.3996 5.64 10.3996ZM5.64 5.59961C4.48 5.59961 3.56 6.55961 3.56 7.67961C3.56 8.79961 4.52 9.75961 5.64 9.75961C6.76 9.75961 7.72 8.79961 7.72 7.67961C7.72 6.55961 6.8 5.59961 5.64 5.59961Z" fill="#1B1B1B"/>
</svg>
