<svg width="24" height="24" viewBox="0 0 24 24" fill="none" xmlns="http://www.w3.org/2000/svg">
<g clip-path="url(#clip0_10772_69915)">
<g opacity="0.4">
<path d="M9.3779 2.06444C11.9949 1.25222 14.6829 1.43017 17.0382 2.38591C20.0952 3.62638 20.0512 6.96567 21.1054 10.3624C21.9314 13.0239 24.2741 14.9702 23.2753 17.3539C22.0173 20.3563 15.8218 19.9606 12.4695 21.001C9.24464 22.0019 9.57928 24.3403 6.89409 22.7314C4.57199 21.3401 1.64515 19.4595 0.779617 16.6706C-0.221256 13.4457 3.20077 10.5446 4.80965 7.85937C6.20097 5.53728 6.58907 2.92997 9.3779 2.06444Z" fill="url(#paint0_radial_10772_69915)"/>
<path d="M17.057 2.33957C14.6913 1.37965 11.9915 1.20092 9.36308 2.01669C7.95303 2.4543 7.15016 3.33328 6.52664 4.39029C6.22925 4.89444 5.9721 5.44006 5.70957 5.99707C5.69739 6.02291 5.6852 6.04878 5.673 6.07467C5.39731 6.65932 5.11315 7.25555 4.76676 7.83367C4.36618 8.50223 3.85234 9.18487 3.32064 9.88521C3.29708 9.91625 3.27347 9.94732 3.24985 9.97843C2.74104 10.6484 2.22016 11.3342 1.77379 12.0358C0.840151 13.5032 0.224671 15.0512 0.731864 16.6855C1.16841 18.092 2.12381 19.2668 3.25764 20.2626C4.39152 21.2586 5.7072 22.0785 6.86839 22.7743C7.54276 23.1784 8.03511 23.3394 8.44565 23.3305C8.85813 23.3215 9.17928 23.1412 9.51009 22.8844C9.64075 22.7829 9.77341 22.6693 9.91452 22.5484C10.4874 22.0576 11.1997 21.4475 12.4844 21.0488C13.3183 20.79 14.3305 20.6201 15.4025 20.4639C15.6579 20.4267 15.9166 20.3903 16.1771 20.3537C17.0084 20.2367 17.8569 20.1173 18.6671 19.9623C19.7312 19.7588 20.7336 19.4933 21.5498 19.0889C22.3664 18.6843 23.0007 18.1387 23.3214 17.3732C23.8296 16.1604 23.4852 15.0605 22.9193 13.9398C22.748 13.6005 22.5549 13.2565 22.3584 12.9065C22.2312 12.6799 22.1025 12.4508 21.9774 12.2187C21.6578 11.6258 21.3583 11.0084 21.1532 10.3476C20.9095 9.56238 20.7246 8.78018 20.546 8.02456C20.5319 7.96486 20.5178 7.90533 20.5037 7.84598C20.3119 7.03615 20.1225 6.25898 19.87 5.5488C19.3644 4.1267 18.6035 2.96713 17.057 2.33957Z" stroke="#C9F3FE" stroke-opacity="0.33" stroke-width="0.1"/>
</g>
<g opacity="0.5">
<path d="M18.9168 3.56414C21.0542 5.27881 22.0143 7.47612 22.5399 9.96303C23.2221 13.1909 20.8261 15.1528 18.6005 17.927C16.8567 20.1007 16.5543 23.1313 14.0197 23.6371C10.8274 24.2742 9.43376 21.4297 6.69591 19.2333C4.06205 17.1204 0.491895 16.5408 0.323063 13.4151C0.17706 10.712 1.86321 8.05915 3.69044 5.78146C5.8034 3.1476 8.43211 3.18881 11.5578 3.01998C14.2609 2.87398 16.6391 1.7369 18.9168 3.56414Z" fill="url(#paint1_radial_10772_69915)"/>
<path d="M22.5888 9.95269C22.0618 7.45912 21.0976 5.24953 18.9481 3.52513C17.7965 2.60127 16.6187 2.4276 15.3938 2.50219C14.8096 2.53776 14.2134 2.62989 13.6049 2.72394C13.5767 2.7283 13.5484 2.73267 13.5201 2.73704C12.8813 2.83565 12.2281 2.9337 11.5552 2.97005C11.3538 2.98093 11.1543 2.99093 10.9568 3.00083C8.09466 3.1443 5.64337 3.26717 3.65144 5.75017C1.82422 8.02785 0.126017 10.6941 0.273135 13.4178C0.358851 15.0047 1.31028 15.9432 2.55805 16.7461C3.01576 17.0406 3.51564 17.3182 4.02859 17.6032C4.21385 17.7061 4.40082 17.81 4.58812 17.9159C5.29525 18.3159 6.00939 18.7467 6.66462 19.2723C7.34676 19.8196 7.94553 20.4074 8.511 20.973C8.5655 21.0275 8.6197 21.0818 8.67364 21.1358C9.1787 21.6419 9.66115 22.1253 10.1554 22.5362C11.2518 23.4479 12.4133 24.0087 14.0295 23.6861C15.319 23.4288 16.0379 22.5279 16.6503 21.4319C16.8357 21.1001 17.0127 20.7476 17.1929 20.3888C17.3095 20.1566 17.4274 19.9218 17.5498 19.6883C17.8624 19.0916 18.2066 18.498 18.6395 17.9582C19.0223 17.4811 19.4097 17.0285 19.7863 16.5886C19.9566 16.3896 20.1247 16.1933 20.2891 15.9984C20.8163 15.3736 21.3049 14.7653 21.7028 14.142C22.4995 12.8938 22.9334 11.5831 22.5888 9.95269Z" stroke="#C9F3FE" stroke-opacity="0.33" stroke-width="0.1"/>
</g>
<g opacity="0.4">
<path d="M10.9318 1.38519C8.19167 1.38519 5.67728 2.35187 3.71109 3.9628C1.15912 6.05367 2.19093 9.22985 2.19093 12.7864C2.19093 15.5731 0.530456 18.1263 2.19093 20.1069C4.28235 22.6015 10.0821 20.3872 13.5921 20.3872C16.9688 20.3872 17.3423 22.7197 19.4299 20.3872C21.2353 18.3701 23.4731 15.7064 23.4731 12.7864C23.4731 9.40973 19.345 7.65326 17.0125 5.56563C14.9954 3.76029 13.8519 1.38519 10.9318 1.38519Z" fill="url(#paint2_radial_10772_69915)"/>
<path d="M3.6794 3.92412C5.6542 2.30614 8.1797 1.33519 10.9318 1.33519C12.4082 1.33519 13.4356 1.93669 14.3444 2.76138C14.7778 3.15472 15.1852 3.5996 15.601 4.05377C15.6203 4.07484 15.6396 4.09593 15.6589 4.11704C16.0955 4.5937 16.5436 5.07891 17.0458 5.52837C17.6266 6.04815 18.3196 6.5478 19.035 7.05907C19.0668 7.08173 19.0985 7.10441 19.1303 7.12712C19.8148 7.61614 20.5156 8.11677 21.1498 8.65448C22.4765 9.77921 23.5231 11.0753 23.5231 12.7864C23.5231 14.2591 22.9589 15.6643 22.1712 16.9515C21.3835 18.2388 20.37 19.4119 19.4672 20.4205C18.9429 21.0063 18.5204 21.3061 18.1257 21.4193C17.7291 21.533 17.3689 21.4559 16.9768 21.3087C16.822 21.2505 16.6616 21.1813 16.491 21.1077C15.7984 20.8088 14.9372 20.4372 13.5921 20.4372C12.719 20.4372 11.7019 20.5749 10.6318 20.7436C10.3769 20.7837 10.1189 20.8257 9.85932 20.8679C9.03065 21.0025 8.18487 21.14 7.36515 21.2322C6.2886 21.3532 5.25255 21.3967 4.35317 21.2524C3.45338 21.1081 2.68581 20.775 2.15261 20.139C1.3078 19.1313 1.31073 17.9788 1.51894 16.7407C1.58198 16.3658 1.66445 15.9801 1.7484 15.5875C1.80272 15.3334 1.85767 15.0765 1.90836 14.8177C2.03785 14.1567 2.14093 13.4783 2.14093 12.7864C2.14093 11.9643 2.08567 11.1624 2.03229 10.3878C2.02807 10.3266 2.02387 10.2656 2.0197 10.2047C1.96286 9.37443 1.91341 8.57604 1.94406 7.82293C2.00544 6.31486 2.38836 4.98189 3.6794 3.92412Z" stroke="#C9F3FE" stroke-opacity="0.33" stroke-width="0.1"/>
</g>
<circle cx="11.8418" cy="12.1761" r="6.88408" fill="#282B42"/>
<mask id="mask0_10772_69915" style="mask-type:alpha" maskUnits="userSpaceOnUse" x="10" y="9" width="7" height="7">
<path fill-rule="evenodd" clip-rule="evenodd" d="M16.7052 12.1703C16.7052 13.8959 15.3064 15.2947 13.5808 15.2947C12.6726 15.2947 11.8548 14.9072 11.284 14.2885L10.3984 13.4013C10.3984 13.4013 10.6393 12.8733 10.6393 12.1703C10.6393 11.4673 10.3984 10.937 10.3984 10.937H10.7092C11.1875 9.82474 12.2932 9.0459 13.5808 9.0459C15.3064 9.0459 16.7052 10.4447 16.7052 12.1703ZM14.8979 12.1703C14.8979 12.8977 14.3082 13.4874 13.5808 13.4874C12.8534 13.4874 12.2637 12.8977 12.2637 12.1703C12.2637 11.4429 12.8534 10.8532 13.5808 10.8532C14.3082 10.8532 14.8979 11.4429 14.8979 12.1703Z" fill="url(#paint3_linear_10772_69915)"/>
</mask>
<g mask="url(#mask0_10772_69915)">
<path fill-rule="evenodd" clip-rule="evenodd" d="M16.7052 12.1703C16.7052 13.8959 15.3064 15.2947 13.5808 15.2947C12.6726 15.2947 11.8548 14.9072 11.284 14.2885L10.3984 13.4013C10.3984 13.4013 10.6393 12.8733 10.6393 12.1703C10.6393 11.4673 10.3984 10.937 10.3984 10.937H10.7092C11.1875 9.82474 12.2932 9.0459 13.5808 9.0459C15.3064 9.0459 16.7052 10.4447 16.7052 12.1703ZM14.8979 12.1703C14.8979 12.8977 14.3082 13.4874 13.5808 13.4874C12.8534 13.4874 12.2637 12.8977 12.2637 12.1703C12.2637 11.4429 12.8534 10.8532 13.5808 10.8532C14.3082 10.8532 14.8979 11.4429 14.8979 12.1703Z" fill="url(#paint4_linear_10772_69915)"/>
<path opacity="0.4" d="M10.3984 12.1319V10.9463L10.3999 10.9469C10.6184 11.0339 10.7926 11.2208 10.9429 11.3822C10.9738 11.4154 11.0038 11.4475 11.0328 11.4774L12.6508 13.1059C12.6608 13.1154 12.6748 13.128 12.6911 13.1423C11.8008 12.5292 11.3069 12.2796 10.3984 12.1319Z" fill="#1E2337"/>
</g>
<path d="M9.91275 9.0459C8.18718 9.0459 6.78833 10.4447 6.78833 12.1703C6.78833 13.8959 8.18718 15.2947 9.91275 15.2947C10.598 15.2947 11.2317 15.0742 11.7467 14.7001L10.3996 13.3945C10.249 13.4544 10.0847 13.4874 9.91275 13.4874C9.18534 13.4874 8.59565 12.8977 8.59565 12.1703C8.59565 11.4429 9.18534 10.8532 9.91275 10.8532C10.0847 10.8532 10.249 10.8862 10.3996 10.9461C10.6631 11.051 10.8621 11.3011 11.0326 11.4767L12.6506 13.1051C12.6869 13.1397 12.7749 13.2149 12.8387 13.2596C12.8741 13.2845 12.93 13.3178 12.979 13.3429C13.0297 13.3689 13.0727 13.3863 13.0727 13.3863C13.0727 13.3863 12.8319 12.8714 12.8319 12.174C12.8319 11.4767 13.0727 10.9618 13.0727 10.9618L12.059 9.95221C11.8196 9.71311 11.5704 9.4997 11.2648 9.35279C10.8557 9.1561 10.3971 9.0459 9.91275 9.0459Z" fill="url(#paint5_linear_10772_69915)"/>
<path opacity="0.3" fill-rule="evenodd" clip-rule="evenodd" d="M10.3977 13.3962C10.5604 13.7577 10.8151 14.4003 10.8151 15.1634C11.1533 15.0615 11.4673 14.9039 11.7465 14.7012L10.3994 13.3955C10.3989 13.3957 10.3983 13.396 10.3977 13.3962Z" fill="#262D47"/>
</g>
<defs>
<radialGradient id="paint0_radial_10772_69915" cx="0" cy="0" r="1" gradientUnits="userSpaceOnUse" gradientTransform="translate(10.8853 12.0874) rotate(-14.5679) scale(13.3269 12.1277)">
<stop offset="0.469146" stop-color="#31D8FF"/>
<stop offset="1" stop-color="#31D8FF" stop-opacity="0.1"/>
</radialGradient>
<radialGradient id="paint1_radial_10772_69915" cx="0" cy="0" r="1" gradientUnits="userSpaceOnUse" gradientTransform="translate(12.1023 11.2512) rotate(41.7568) scale(12.0887 12.4156)">
<stop offset="0.469146" stop-color="#31D8FF"/>
<stop offset="1" stop-color="#31D8FF" stop-opacity="0.1"/>
</radialGradient>
<radialGradient id="paint2_radial_10772_69915" cx="0" cy="0" r="1" gradientUnits="userSpaceOnUse" gradientTransform="translate(12.463 11.4045) rotate(177.326) scale(13.3269 12.1277)">
<stop offset="0.469146" stop-color="#31D8FF"/>
<stop offset="1" stop-color="#31D8FF" stop-opacity="0.1"/>
</radialGradient>
<linearGradient id="paint3_linear_10772_69915" x1="15.5353" y1="9.913" x2="11.8051" y2="14.8281" gradientUnits="userSpaceOnUse">
<stop stop-color="#FF52BC"/>
<stop offset="0.516172" stop-color="#C83E93"/>
<stop offset="1" stop-color="#861F5E"/>
</linearGradient>
<linearGradient id="paint4_linear_10772_69915" x1="15.5353" y1="9.913" x2="11.8051" y2="14.8281" gradientUnits="userSpaceOnUse">
<stop stop-color="#FF52BC"/>
<stop offset="0.516172" stop-color="#C83E93"/>
<stop offset="1" stop-color="#861F5E"/>
</linearGradient>
<linearGradient id="paint5_linear_10772_69915" x1="11.7922" y1="14.6462" x2="7.6295" y2="10.6484" gradientUnits="userSpaceOnUse">
<stop stop-color="#00FFFF"/>
<stop offset="1" stop-color="#01CDFD"/>
</linearGradient>
<clipPath id="clip0_10772_69915">
<rect width="24" height="24" fill="white"/>
</clipPath>
</defs>
</svg>
