<svg width="17" height="14" viewBox="0 0 17 14" fill="none" xmlns="http://www.w3.org/2000/svg">
<path d="M6.80866 0.62793C6.67148 0.627879 6.53686 0.657738 6.4192 0.714314C6.30154 0.770889 6.20527 0.852052 6.14069 0.949121L0.0876034 10.0515C0.0659589 10.0845 0.04815 10.119 0.0344025 10.1546C0.0334465 10.1571 0.0323639 10.1593 0.0314469 10.1617C0.0309521 10.1625 0.0304595 10.1633 0.029969 10.1641C0.0136713 10.2085 0.00375487 10.2542 0.000412946 10.3004C-9.70267e-05 10.3072 0.000640391 10.3138 0.000412946 10.3206C-0.00153685 10.3679 0.00342286 10.4152 0.015191 10.4616C0.0283147 10.5113 0.0491671 10.5595 0.0772588 10.605C0.0779558 10.6062 0.0780302 10.6074 0.0787366 10.6086C0.083915 10.617 0.0893351 10.6253 0.0949925 10.6335L1.59201 13.0359C1.72064 13.2416 1.98208 13.3713 2.26884 13.3713H14.375C14.4373 13.3711 14.4994 13.3647 14.5597 13.3523C14.5657 13.3511 14.5716 13.3501 14.5775 13.3488C14.7641 13.3074 14.9238 13.2103 15.0238 13.0774C15.0244 13.0766 15.0247 13.0758 15.0253 13.075C15.0347 13.0622 15.0436 13.0492 15.0519 13.0359L16.5651 10.6086C16.6192 10.5219 16.6466 10.4261 16.6451 10.3292C16.6436 10.2323 16.6131 10.1371 16.5563 10.0515L10.5032 0.949121C10.4898 0.929113 10.475 0.909724 10.4588 0.891046C10.4446 0.874647 10.4293 0.858825 10.413 0.843638C10.3967 0.827937 10.3795 0.812905 10.3613 0.7986C10.3246 0.770559 10.2845 0.745544 10.2416 0.723932C10.2234 0.714198 10.2046 0.705103 10.1854 0.696672C10.1825 0.695471 10.1795 0.694286 10.1766 0.693116C10.1727 0.691508 10.1687 0.689928 10.1648 0.688375C10.1459 0.681422 10.1267 0.675096 10.1071 0.669412C10.0868 0.662766 10.0661 0.656834 10.0451 0.651634C10.0421 0.650829 10.0391 0.650039 10.0362 0.649264C10.0147 0.644548 9.99305 0.640594 9.97116 0.637411C9.96821 0.637002 9.96526 0.636607 9.9623 0.636226C9.94074 0.6335 9.91905 0.631523 9.89727 0.6303C9.87663 0.628829 9.85593 0.628038 9.83521 0.62793H9.82043H6.80866ZM7.26235 1.84158H8.56134L4.63185 7.61947C4.56911 7.71185 4.53739 7.81571 4.53978 7.92088C4.54218 8.02605 4.57862 8.12892 4.64553 8.21939C4.71244 8.30986 4.80752 8.38483 4.92144 8.43695C5.03537 8.48907 5.16423 8.51654 5.29539 8.51668H7.41308L8.16972 9.73033H2.01762L7.26235 1.84158ZM9.82782 2.51241L15.0371 10.3466L14.3558 11.437L10.4721 5.55247C10.4716 5.55208 10.4712 5.55168 10.4707 5.55129C10.4388 5.50339 10.399 5.45914 10.3524 5.41973H10.351C10.3059 5.38096 10.2548 5.34709 10.1987 5.31898H10.1973C10.141 5.29102 10.0804 5.26911 10.017 5.2538H10.0155C10.0146 5.25358 10.0135 5.25402 10.0125 5.2538C9.95195 5.2397 9.8894 5.23174 9.82634 5.23009C9.8233 5.23001 9.82052 5.22896 9.81747 5.22891C9.81544 5.22892 9.8136 5.23007 9.81156 5.23009C9.61268 5.22854 9.42103 5.28986 9.27807 5.40076C9.27628 5.40212 9.27394 5.40294 9.27216 5.40432C9.22725 5.43977 9.18803 5.47959 9.15542 5.52284C9.15375 5.52504 9.15114 5.52654 9.1495 5.52877L7.85199 7.30302H6.56926L9.82782 2.51241Z" fill="black"/>
</svg>
