<svg width="26" height="26" viewBox="0 0 26 26" fill="none" xmlns="http://www.w3.org/2000/svg">
<circle cx="13" cy="13" r="12" fill="#282B42" stroke="#3B3E5A"/>
<mask id="mask0_10784_70326" style="mask-type:alpha" maskUnits="userSpaceOnUse" x="10" y="7" width="12" height="12">
<path fill-rule="evenodd" clip-rule="evenodd" d="M21.1671 12.9925C21.1671 15.8878 18.82 18.235 15.9246 18.235C14.4007 18.235 13.0287 17.5847 12.0708 16.5466L10.585 15.0579C10.585 15.0579 10.9891 14.172 10.9891 12.9925C10.9891 11.813 10.585 10.9231 10.585 10.9231H11.1064C11.909 9.05682 13.7642 7.75 15.9246 7.75C18.82 7.75 21.1671 10.0971 21.1671 12.9925ZM18.1346 12.9925C18.1346 14.213 17.1452 15.2024 15.9246 15.2024C14.7041 15.2024 13.7147 14.213 13.7147 12.9925C13.7147 11.7719 14.7041 10.7825 15.9246 10.7825C17.1452 10.7825 18.1346 11.7719 18.1346 12.9925Z" fill="url(#paint0_linear_10784_70326)"/>
</mask>
<g mask="url(#mask0_10784_70326)">
<path fill-rule="evenodd" clip-rule="evenodd" d="M21.1669 12.9925C21.1669 15.8878 18.8197 18.235 15.9244 18.235C14.4005 18.235 13.0284 17.5847 12.0705 16.5466L10.5847 15.0579C10.5847 15.0579 10.9888 14.172 10.9888 12.9925C10.9888 11.813 10.5847 10.9231 10.5847 10.9231H11.1062C11.9088 9.05682 13.764 7.75 15.9244 7.75C18.8197 7.75 21.1669 10.0971 21.1669 12.9925ZM18.1344 12.9925C18.1344 14.213 17.1449 15.2024 15.9244 15.2024C14.7039 15.2024 13.7144 14.213 13.7144 12.9925C13.7144 11.7719 14.7039 10.7825 15.9244 10.7825C17.1449 10.7825 18.1344 11.7719 18.1344 12.9925Z" fill="url(#paint1_linear_10784_70326)"/>
<path opacity="0.4" d="M10.5847 12.9269V10.9375L10.5871 10.9385C10.9539 11.0844 11.246 11.3981 11.4983 11.6689C11.5502 11.7245 11.6004 11.7784 11.6492 11.8286L14.364 14.5611C14.3808 14.5771 14.4042 14.5983 14.4316 14.6222C12.9377 13.5935 12.109 13.1747 10.5847 12.9269Z" fill="#1E2337"/>
</g>
<path d="M9.77056 7.75C6.87522 7.75 4.52808 10.0971 4.52808 12.9925C4.52808 15.8878 6.87522 18.235 9.77056 18.235C10.9203 18.235 11.9836 17.8649 12.8478 17.2373L10.5875 15.0465C10.3348 15.1471 10.0591 15.2024 9.77056 15.2024C8.55002 15.2024 7.56059 14.213 7.56059 12.9925C7.56059 11.7719 8.55002 10.7825 9.77056 10.7825C10.0591 10.7825 10.3348 10.8378 10.5875 10.9384C11.0297 11.1144 11.3634 11.5341 11.6496 11.8286L14.3644 14.561C14.4253 14.619 14.573 14.7452 14.68 14.8202C14.7394 14.8619 14.8333 14.9178 14.9154 14.9599C15.0004 15.0035 15.0727 15.0328 15.0727 15.0328C15.0727 15.0328 14.6686 14.1688 14.6686 12.9987C14.6686 11.8286 15.0727 10.9646 15.0727 10.9646L13.3718 9.27071C12.9701 8.86951 12.5519 8.51144 12.0392 8.26494C11.3527 7.93491 10.5832 7.75 9.77056 7.75Z" fill="url(#paint2_linear_10784_70326)"/>
<path opacity="0.3" fill-rule="evenodd" clip-rule="evenodd" d="M10.5846 15.049C10.8576 15.6555 11.285 16.7338 11.285 18.0142C11.8524 17.8433 12.3793 17.5788 12.8477 17.2386L10.5875 15.0479C10.5865 15.0482 10.5856 15.0486 10.5846 15.049Z" fill="#262D47"/>
<defs>
<linearGradient id="paint0_linear_10784_70326" x1="19.2041" y1="9.20492" x2="12.9452" y2="17.4521" gradientUnits="userSpaceOnUse">
<stop stop-color="#FF52BC"/>
<stop offset="0.516172" stop-color="#C83E93"/>
<stop offset="1" stop-color="#861F5E"/>
</linearGradient>
<linearGradient id="paint1_linear_10784_70326" x1="19.2038" y1="9.20492" x2="12.9449" y2="17.4521" gradientUnits="userSpaceOnUse">
<stop stop-color="#FF52BC"/>
<stop offset="0.516172" stop-color="#C83E93"/>
<stop offset="1" stop-color="#861F5E"/>
</linearGradient>
<linearGradient id="paint2_linear_10784_70326" x1="12.924" y1="17.1468" x2="5.93947" y2="10.4389" gradientUnits="userSpaceOnUse">
<stop stop-color="#00FFFF"/>
<stop offset="1" stop-color="#01CDFD"/>
</linearGradient>
</defs>
</svg>
