<svg width="18" height="18" viewBox="0 0 18 18" fill="none" xmlns="http://www.w3.org/2000/svg">
<path d="M4.83333 15.6667L7.9675 16.45C8.1 16.4833 8.23583 16.5 8.37167 16.5H11.7192C12.0289 16.5001 12.3325 16.414 12.596 16.2512C12.8595 16.0884 13.0724 15.8554 13.2108 15.5783L16.1275 9.745C16.2545 9.4909 16.3144 9.20857 16.3016 8.9248C16.2888 8.64104 16.2036 8.36525 16.0543 8.12364C15.9049 7.88202 15.6963 7.68259 15.4482 7.54427C15.2001 7.40595 14.9207 7.33334 14.6367 7.33333H10.6667V3.16667C10.6667 2.72464 10.4911 2.30072 10.1785 1.98816C9.86595 1.67559 9.44203 1.5 9 1.5H8.92083C8.50417 1.5 8.16667 1.8375 8.16667 2.25417C8.16667 2.84917 7.99083 3.43083 7.66 3.92583L4.83333 8.16667V15.6667ZM4.83333 15.6667H3.16667C2.72464 15.6667 2.30072 15.4911 1.98816 15.1785C1.67559 14.866 1.5 14.442 1.5 14V9C1.5 8.55797 1.67559 8.13405 1.98816 7.82149C2.30072 7.50893 2.72464 7.33333 3.16667 7.33333H5.25" stroke="#9BA2AD" stroke-width="1.5" stroke-linecap="round" stroke-linejoin="round"/>
</svg>
