<svg width="18" height="18" viewBox="0 0 18 18" fill="none" xmlns="http://www.w3.org/2000/svg">
<path d="M9.00002 0.666992C4.39752 0.666992 0.666687 4.39783 0.666687 9.00033C0.666687 13.6028 4.39752 17.3337 9.00002 17.3337C13.6025 17.3337 17.3334 13.6028 17.3334 9.00033C17.3334 4.39783 13.6025 0.666992 9.00002 0.666992ZM9.00002 1.91699C9.28234 1.91699 9.55957 1.93843 9.83335 1.9707V3.65446C9.56098 3.61202 9.28401 3.58366 9.00002 3.58366C8.71603 3.58366 8.43906 3.61202 8.16669 3.65446V1.9707C8.44047 1.93843 8.7177 1.91699 9.00002 1.91699ZM6.91669 2.23112V4.00195C6.42486 4.20802 5.96942 4.48453 5.56333 4.81901L4.04803 3.94417C4.84518 3.1633 5.82441 2.56803 6.91669 2.23112ZM11.0834 2.23112C12.1756 2.56803 13.1549 3.1633 13.952 3.94417L12.4367 4.81901C12.0306 4.48453 11.5752 4.20802 11.0834 4.00195V2.23112ZM9.00002 4.83366C11.3086 4.83366 13.1667 6.69174 13.1667 9.00033C13.1667 11.3089 11.3086 13.167 9.00002 13.167C6.69143 13.167 4.83335 11.3089 4.83335 9.00033C4.83335 6.69174 6.69143 4.83366 9.00002 4.83366ZM3.22609 4.9126L4.67792 5.75081C4.34396 6.19362 4.07669 6.68757 3.89016 7.22054L2.42613 6.37581C2.63516 5.85416 2.90508 5.36468 3.22609 4.9126ZM14.7739 4.9126C15.095 5.36468 15.3649 5.85416 15.5739 6.37581L14.1099 7.22054C13.9233 6.68757 13.6561 6.19362 13.3221 5.75081L14.7739 4.9126ZM2.05585 7.60547L3.60858 8.50147C3.59343 8.666 3.58335 8.83194 3.58335 9.00033C3.58335 9.30213 3.61448 9.59636 3.66229 9.88493L2.14699 10.7598C2.00206 10.196 1.91669 9.60872 1.91669 9.00033C1.91669 8.52285 1.96535 8.0567 2.05585 7.60547ZM15.9442 7.60547C16.0347 8.0567 16.0834 8.52285 16.0834 9.00033C16.0834 9.60872 15.998 10.196 15.853 10.7598L14.3377 9.88493C14.3856 9.59636 14.4167 9.30213 14.4167 9.00033C14.4167 8.83194 14.4066 8.666 14.3915 8.50147L15.9442 7.60547ZM4.01792 11.1227C4.23965 11.6405 4.543 12.1143 4.9066 12.5347L3.44338 13.3794C3.09931 12.9438 2.80712 12.467 2.5718 11.9577L4.01792 11.1227ZM13.9821 11.1227L15.4282 11.9577C15.1929 12.467 14.9007 12.9438 14.5567 13.3794L13.0943 12.5339C13.4575 12.1137 13.7605 11.6401 13.9821 11.1227ZM12.1226 13.4168L13.6712 14.3112C12.9284 14.9654 12.052 15.4708 11.0834 15.7695V13.9987C11.4531 13.8438 11.7995 13.6461 12.1226 13.4168ZM5.87828 13.4176C6.20108 13.6466 6.54732 13.8439 6.91669 13.9987V15.7695C5.94807 15.4708 5.07167 14.9654 4.3288 14.3112L5.87828 13.4176ZM8.16669 14.3462C8.43906 14.3886 8.71603 14.417 9.00002 14.417C9.28401 14.417 9.56098 14.3886 9.83335 14.3462V16.0299C9.55957 16.0622 9.28234 16.0837 9.00002 16.0837C8.7177 16.0837 8.44047 16.0622 8.16669 16.0299V14.3462Z" fill="white"/>
</svg>
