<svg width="18" height="18" viewBox="0 0 18 18" fill="none" xmlns="http://www.w3.org/2000/svg">
<path d="M9.00008 0.666992C4.39758 0.666992 0.666748 4.39783 0.666748 9.00033C0.666748 13.6028 4.39758 17.3337 9.00008 17.3337C13.6026 17.3337 17.3334 13.6028 17.3334 9.00033C17.3334 4.39783 13.6026 0.666992 9.00008 0.666992ZM9.00008 1.91699C9.2824 1.91699 9.55963 1.93843 9.83342 1.9707V3.65446C9.56104 3.61202 9.28407 3.58366 9.00008 3.58366C8.71609 3.58366 8.43912 3.61202 8.16675 3.65446V1.9707C8.44053 1.93843 8.71776 1.91699 9.00008 1.91699ZM6.91675 2.23112V4.00195C6.42492 4.20802 5.96948 4.48453 5.5634 4.81901L4.0481 3.94417C4.84524 3.1633 5.82447 2.56803 6.91675 2.23112ZM11.0834 2.23112C12.1757 2.56803 13.1549 3.1633 13.9521 3.94417L12.4368 4.81901C12.0307 4.48453 11.5752 4.20802 11.0834 4.00195V2.23112ZM9.00008 4.83366C11.3087 4.83366 13.1667 6.69174 13.1667 9.00033C13.1667 11.3089 11.3087 13.167 9.00008 13.167C6.69149 13.167 4.83342 11.3089 4.83342 9.00033C4.83342 6.69174 6.69149 4.83366 9.00008 4.83366ZM3.22616 4.9126L4.67798 5.75081C4.34402 6.19362 4.07675 6.68757 3.89022 7.22054L2.42619 6.37581C2.63522 5.85416 2.90514 5.36468 3.22616 4.9126ZM14.774 4.9126C15.095 5.36468 15.3649 5.85416 15.574 6.37581L14.1099 7.22054C13.9234 6.68757 13.6561 6.19362 13.3222 5.75081L14.774 4.9126ZM2.05591 7.60547L3.60864 8.50147C3.59349 8.666 3.58341 8.83194 3.58341 9.00033C3.58341 9.30213 3.61454 9.59636 3.66235 9.88493L2.14705 10.7598C2.00212 10.196 1.91675 9.60872 1.91675 9.00033C1.91675 8.52285 1.96541 8.0567 2.05591 7.60547ZM15.9443 7.60547C16.0347 8.0567 16.0834 8.52285 16.0834 9.00033C16.0834 9.60872 15.998 10.196 15.8531 10.7598L14.3378 9.88493C14.3856 9.59636 14.4167 9.30213 14.4167 9.00033C14.4167 8.83194 14.4067 8.666 14.3915 8.50147L15.9443 7.60547ZM4.01799 11.1227C4.23971 11.6405 4.54306 12.1143 4.90666 12.5347L3.44344 13.3794C3.09937 12.9438 2.80718 12.467 2.57186 11.9577L4.01799 11.1227ZM13.9822 11.1227L15.4283 11.9577C15.193 12.467 14.9008 12.9438 14.5567 13.3794L13.0943 12.5339C13.4576 12.1137 13.7606 11.6401 13.9822 11.1227ZM12.1226 13.4168L13.6713 14.3112C12.9284 14.9654 12.052 15.4708 11.0834 15.7695V13.9987C11.4531 13.8438 11.7996 13.6461 12.1226 13.4168ZM5.87834 13.4176C6.20114 13.6466 6.54739 13.8439 6.91675 13.9987V15.7695C5.94813 15.4708 5.07173 14.9654 4.32886 14.3112L5.87834 13.4176ZM8.16675 14.3462C8.43912 14.3886 8.71609 14.417 9.00008 14.417C9.28407 14.417 9.56104 14.3886 9.83342 14.3462V16.0299C9.55963 16.0622 9.2824 16.0837 9.00008 16.0837C8.71776 16.0837 8.44053 16.0622 8.16675 16.0299V14.3462Z" fill="#9AA0AA"/>
</svg>
