<svg width="25" height="24" viewBox="0 0 25 24" fill="none" xmlns="http://www.w3.org/2000/svg">
<path d="M5.64648 3C4.68901 3 3.89648 3.79252 3.89648 4.75V8.25C3.89648 9.20748 4.68901 10 5.64648 10H5.89648V10.75C5.89508 10.8494 5.91344 10.9481 5.9505 11.0403C5.98756 11.1325 6.04258 11.2164 6.11236 11.2872C6.18215 11.358 6.2653 11.4142 6.357 11.4526C6.44869 11.4909 6.54709 11.5107 6.64648 11.5107C6.74588 11.5107 6.84428 11.4909 6.93597 11.4526C7.02767 11.4142 7.11082 11.358 7.1806 11.2872C7.25039 11.2164 7.30541 11.1325 7.34247 11.0403C7.37953 10.9481 7.39789 10.8494 7.39648 10.75V10H9.14648C10.104 10 10.8965 9.20748 10.8965 8.25V6.5H11.6465C11.7459 6.50141 11.8445 6.48304 11.9368 6.44598C12.029 6.40892 12.1129 6.3539 12.1837 6.28412C12.2545 6.21434 12.3107 6.13118 12.3491 6.03949C12.3874 5.9478 12.4072 5.84939 12.4072 5.75C12.4072 5.65061 12.3874 5.5522 12.3491 5.46051C12.3107 5.36882 12.2545 5.28566 12.1837 5.21588C12.1129 5.1461 12.029 5.09108 11.9368 5.05402C11.8445 5.01696 11.7459 4.99859 11.6465 5H10.8965V4.75C10.8965 3.79252 10.104 3 9.14648 3H5.64648ZM16.6465 3C15.689 3 14.8965 3.79252 14.8965 4.75V5H14.1465C14.0471 4.99859 13.9484 5.01696 13.8562 5.05402C13.764 5.09108 13.68 5.1461 13.6093 5.21588C13.5385 5.28566 13.4823 5.36882 13.4439 5.46051C13.4056 5.5522 13.3858 5.65061 13.3858 5.75C13.3858 5.84939 13.4056 5.9478 13.4439 6.03949C13.4823 6.13118 13.5385 6.21434 13.6093 6.28412C13.68 6.3539 13.764 6.40892 13.8562 6.44598C13.9484 6.48304 14.0471 6.50141 14.1465 6.5H14.8965V8.25C14.8965 9.20748 15.689 10 16.6465 10H18.3965V10.75C18.3951 10.8494 18.4134 10.9481 18.4505 11.0403C18.4876 11.1325 18.5426 11.2164 18.6124 11.2872C18.6821 11.358 18.7653 11.4142 18.857 11.4526C18.9487 11.4909 19.0471 11.5107 19.1465 11.5107C19.2459 11.5107 19.3443 11.4909 19.436 11.4526C19.5277 11.4142 19.6108 11.358 19.6806 11.2872C19.7504 11.2164 19.8054 11.1325 19.8425 11.0403C19.8795 10.9481 19.8979 10.8494 19.8965 10.75V10H20.1465C21.104 10 21.8965 9.20748 21.8965 8.25V4.75C21.8965 3.79252 21.104 3 20.1465 3H16.6465ZM5.64648 4.5H9.14648C9.29401 4.5 9.39648 4.60248 9.39648 4.75V5.62695C9.38326 5.70747 9.38326 5.7896 9.39648 5.87012V8.25C9.39648 8.39752 9.29401 8.5 9.14648 8.5H6.76953C6.72502 8.49237 6.67992 8.48877 6.63477 8.48926C6.59809 8.49016 6.56154 8.49375 6.52539 8.5H5.64648C5.49896 8.5 5.39648 8.39752 5.39648 8.25V4.75C5.39648 4.60248 5.49896 4.5 5.64648 4.5ZM16.6465 4.5H20.1465C20.294 4.5 20.3965 4.60248 20.3965 4.75V8.25C20.3965 8.39752 20.294 8.5 20.1465 8.5H19.2695C19.225 8.49237 19.1799 8.48877 19.1348 8.48926C19.0981 8.49016 19.0615 8.49375 19.0254 8.5H16.6465C16.499 8.5 16.3965 8.39752 16.3965 8.25V5.87305C16.4097 5.79253 16.4097 5.7104 16.3965 5.62988V4.75C16.3965 4.60248 16.499 4.5 16.6465 4.5ZM6.63477 12.4893C6.43602 12.4924 6.24664 12.5742 6.10821 12.7169C5.96978 12.8595 5.89363 13.0513 5.89648 13.25V14H5.64648C4.68901 14 3.89648 14.7925 3.89648 15.75V19.25C3.89648 20.2075 4.68901 21 5.64648 21H9.14648C10.104 21 10.8965 20.2075 10.8965 19.25V19H11.6465C11.7459 19.0014 11.8445 18.983 11.9368 18.946C12.029 18.9089 12.1129 18.8539 12.1837 18.7841C12.2545 18.7143 12.3107 18.6312 12.3491 18.5395C12.3874 18.4478 12.4072 18.3494 12.4072 18.25C12.4072 18.1506 12.3874 18.0522 12.3491 17.9605C12.3107 17.8688 12.2545 17.7857 12.1837 17.7159C12.1129 17.6461 12.029 17.5911 11.9368 17.554C11.8445 17.517 11.7459 17.4986 11.6465 17.5H10.8965V15.75C10.8965 14.7925 10.104 14 9.14648 14H7.39648V13.25C7.39792 13.1496 7.3792 13.05 7.34142 12.957C7.30363 12.8639 7.24756 12.7795 7.17653 12.7085C7.1055 12.6376 7.02094 12.5816 6.92788 12.544C6.83482 12.5063 6.73515 12.4877 6.63477 12.4893ZM19.1348 12.4893C18.936 12.4924 18.7466 12.5742 18.6082 12.7169C18.4698 12.8595 18.3936 13.0513 18.3965 13.25V14H16.6465C15.689 14 14.8965 14.7925 14.8965 15.75V17.5H14.1465C14.0471 17.4986 13.9484 17.517 13.8562 17.554C13.764 17.5911 13.68 17.6461 13.6093 17.7159C13.5385 17.7857 13.4823 17.8688 13.4439 17.9605C13.4056 18.0522 13.3858 18.1506 13.3858 18.25C13.3858 18.3494 13.4056 18.4478 13.4439 18.5395C13.4823 18.6312 13.5385 18.7143 13.6093 18.7841C13.68 18.8539 13.764 18.9089 13.8562 18.946C13.9484 18.983 14.0471 19.0014 14.1465 19H14.8965V19.25C14.8965 20.2075 15.689 21 16.6465 21H20.1465C21.104 21 21.8965 20.2075 21.8965 19.25V15.75C21.8965 14.7925 21.104 14 20.1465 14H19.8965V13.25C19.8979 13.1496 19.8792 13.05 19.8414 12.957C19.8036 12.8639 19.7476 12.7795 19.6765 12.7085C19.6055 12.6376 19.5209 12.5816 19.4279 12.544C19.3348 12.5063 19.2351 12.4877 19.1348 12.4893ZM5.64648 15.5H6.52344C6.60395 15.5132 6.68609 15.5132 6.7666 15.5H9.14648C9.29401 15.5 9.39648 15.6025 9.39648 15.75V18.127C9.38326 18.2075 9.38326 18.2896 9.39648 18.3701V19.25C9.39648 19.3975 9.29401 19.5 9.14648 19.5H5.64648C5.49896 19.5 5.39648 19.3975 5.39648 19.25V15.75C5.39648 15.6025 5.49896 15.5 5.64648 15.5ZM16.6465 15.5H19.0234C19.104 15.5132 19.1861 15.5132 19.2666 15.5H20.1465C20.294 15.5 20.3965 15.6025 20.3965 15.75V19.25C20.3965 19.3975 20.294 19.5 20.1465 19.5H16.6465C16.499 19.5 16.3965 19.3975 16.3965 19.25V18.373C16.4097 18.2925 16.4097 18.2104 16.3965 18.1299V15.75C16.3965 15.6025 16.499 15.5 16.6465 15.5Z" fill="#1B1B1B"/>
</svg>
