<svg width="20" height="20" viewBox="0 0 20 20" fill="none" xmlns="http://www.w3.org/2000/svg">
<path d="M13.5796 19.9001C10.0996 19.9001 7.25957 17.0601 7.25957 13.5801C7.25957 13.3401 7.29957 13.0601 7.33957 12.7401V12.6201H7.21957C6.93957 12.6601 6.65957 12.6601 6.37957 12.6601C2.89957 12.7001 0.0595703 9.8601 0.0595703 6.4201C0.0595703 2.9801 2.89957 0.100098 6.37957 0.100098C9.85957 0.100098 12.6996 2.9401 12.6996 6.4201C12.6996 6.7001 12.6996 6.9801 12.6596 7.2601V7.3801H12.7796C13.0996 7.3401 13.3796 7.3001 13.6196 7.3001C17.0996 7.3001 19.9396 10.1401 19.9396 13.6201C19.9396 17.1001 17.0196 19.9001 13.5796 19.9001ZM13.5796 7.9001C10.4196 7.9001 7.89957 10.4601 7.89957 13.5801C7.89957 16.7001 10.4196 19.3001 13.5796 19.3001C16.7396 19.3001 19.2596 16.7401 19.2596 13.6201C19.2596 10.5001 16.6996 7.9001 13.5796 7.9001ZM6.37957 0.700098C3.21957 0.700098 0.65957 3.2601 0.65957 6.4201C0.65957 9.5801 3.21957 12.1001 6.37957 12.1001C6.77957 12.1001 7.09957 12.0601 7.41957 12.0201H7.45957V11.9801C8.05957 9.8601 9.73957 8.1801 11.8596 7.5801H11.8996V7.5401C11.9796 7.2201 11.9796 6.9001 11.9796 6.5001C12.0596 3.2601 9.49957 0.700098 6.37957 0.700098ZM3.41957 19.3001L4.81957 17.9001H3.17957C1.69957 17.9001 0.45957 16.7001 0.45957 15.1801V12.9001H1.05957V15.2201C1.05957 16.3801 2.01957 17.3001 3.13957 17.3001H4.81957L3.41957 15.9001L3.85957 15.4601L6.01957 17.6201L3.85957 19.7801L3.41957 19.3001ZM6.37957 10.3001C6.33957 10.3001 6.29957 10.3001 6.25957 10.2601C6.21957 10.2601 6.17957 10.2201 6.17957 10.1801C6.13957 10.1401 6.13957 10.1001 6.09957 10.1001C6.09957 10.0601 6.05957 10.0201 6.05957 9.9801V9.2201H5.97957C5.49957 9.1401 5.09957 8.9401 4.81957 8.6601C4.49957 8.3401 4.29957 7.9001 4.25957 7.3401H4.81957C4.81957 7.8201 5.01957 8.1401 5.17957 8.2601C5.37957 8.4601 5.61957 8.5801 5.93957 8.7001L6.05957 8.7401V6.1801H5.97957C5.69957 6.1001 5.49957 6.0601 5.33957 5.9801C5.09957 5.9001 4.93957 5.7801 4.81957 5.6601C4.65957 5.5401 4.57957 5.4201 4.53957 5.2601C4.45957 5.0601 4.41957 4.8601 4.41957 4.5801C4.41957 4.3001 4.45957 4.0601 4.57957 3.9001C4.61957 3.7001 4.73957 3.5801 4.85957 3.4201L4.93957 3.3001C5.09957 3.1401 5.29957 3.0201 5.49957 2.9401C5.65957 2.9001 5.81957 2.8601 5.93957 2.8201H6.01957V2.0201C6.01957 1.9401 6.05957 1.8601 6.09957 1.8201C6.21957 1.7401 6.25957 1.7001 6.33957 1.7001C6.37957 1.7001 6.41957 1.7001 6.45957 1.7001C6.49957 1.7001 6.53957 1.7401 6.53957 1.7801C6.57957 1.8201 6.57957 1.8601 6.61957 1.8601C6.61957 1.9001 6.65957 1.9401 6.65957 1.9801V2.7801H6.73957C7.13957 2.8201 7.49957 2.9801 7.77957 3.2601C8.01957 3.5001 8.21957 3.8601 8.33957 4.3401H7.77957C7.65957 3.7801 7.33957 3.4601 6.81957 3.3401L6.65957 3.3001V5.7001L7.17957 5.8601C7.29957 5.9001 7.41957 5.9401 7.57957 6.0201C7.73957 6.1001 7.89957 6.1801 8.01957 6.3401C8.17957 6.4601 8.29957 6.6201 8.33957 6.7801C8.45957 6.9801 8.49957 7.1801 8.49957 7.4601C8.49957 7.7801 8.45957 8.0201 8.33957 8.1801C8.25957 8.3801 8.13957 8.5801 7.93957 8.7801C7.81957 8.9001 7.61957 9.0201 7.37957 9.1801C7.17957 9.2601 6.97957 9.3001 6.73957 9.3401H6.65957V10.1001C6.65957 10.1401 6.65957 10.1801 6.61957 10.2201C6.61957 10.2601 6.57957 10.3001 6.53957 10.3001C6.49957 10.3401 6.45957 10.3401 6.45957 10.3801C6.41957 10.3001 6.37957 10.3001 6.37957 10.3001ZM6.65957 8.7801L6.81957 8.7401C6.89957 8.7001 7.01957 8.7001 7.09957 8.6601C7.21957 8.6201 7.41957 8.5401 7.49957 8.4201C7.61957 8.3401 7.73957 8.1801 7.77957 8.0201C7.81957 7.9001 7.85957 7.7001 7.85957 7.5001C7.85957 7.3401 7.81957 7.1401 7.77957 7.0201C7.73957 6.8601 7.61957 6.7801 7.49957 6.7001C7.37957 6.6201 7.25957 6.5401 7.09957 6.5001C7.01957 6.4601 6.93957 6.4601 6.85957 6.4201L6.65957 6.3401V8.7801ZM5.93957 3.3401C5.77957 3.3801 5.53957 3.4201 5.33957 3.6201C5.13957 3.7801 5.01957 4.0601 5.01957 4.4601C5.01957 4.6201 5.05957 4.7801 5.09957 4.9001C5.13957 5.0601 5.25957 5.1401 5.33957 5.2201C5.37957 5.2601 5.45957 5.3001 5.53957 5.3401C5.57957 5.3801 5.61957 5.3801 5.65957 5.4201C5.73957 5.4601 5.81957 5.5001 5.89957 5.5001L6.01957 5.5401L6.05957 5.4201V3.3401H5.93957ZM18.8596 7.1001V4.7801C18.8596 3.6201 17.8996 2.7001 16.7796 2.7001H14.6996L16.0996 4.1001L15.6596 4.5401L13.4996 2.3801L15.6596 0.260098L16.0996 0.700098L14.6996 2.1001H16.7796C18.2596 2.1001 19.4996 3.3001 19.4996 4.8201V7.1401H18.8596V7.1001Z" fill="#1B1B1B"/>
<path fill-rule="evenodd" clip-rule="evenodd" d="M14.8768 11.5854C14.4308 11.5854 14.0198 11.7173 13.68 11.9448C13.3402 11.7173 12.9292 11.5854 12.4832 11.5854C11.291 11.5854 10.3486 12.5278 10.3486 13.72C10.3486 14.9131 11.3219 15.8546 12.4832 15.8546C12.932 15.8546 13.3455 15.721 13.6866 15.4908C14.0287 15.721 14.4394 15.8546 14.8768 15.8546C16.069 15.8546 17.0113 14.9122 17.0113 13.72C17.0113 12.5278 16.069 11.5854 14.8768 11.5854ZM14.8768 15.1758C14.6352 15.1758 14.404 15.1117 14.1998 14.9999C14.4631 14.645 14.6177 14.203 14.6177 13.72C14.6177 13.2347 14.4616 12.7908 14.196 12.435C14.3985 12.3264 14.6299 12.2642 14.8768 12.2642C15.688 12.2642 16.3326 12.9362 16.3326 13.72C16.3326 14.5025 15.6593 15.1758 14.8768 15.1758ZM12.4832 12.2642C12.73 12.2642 12.9614 12.3264 13.1639 12.435C12.8984 12.7908 12.7422 13.2347 12.7422 13.72C12.7422 14.2016 12.9008 14.6423 13.1663 14.9965C12.9607 15.1103 12.7272 15.1758 12.4832 15.1758C11.7007 15.1758 11.0274 14.5025 11.0274 13.72C11.0274 12.9362 11.672 12.2642 12.4832 12.2642ZM13.939 13.72C13.939 14.0163 13.8425 14.297 13.68 14.5314C13.5175 14.297 13.4209 14.0163 13.4209 13.72C13.4209 13.4185 13.5164 13.1334 13.68 12.8969C13.8436 13.1334 13.939 13.4185 13.939 13.72Z" fill="#1B1B1B"/>
</svg>
