<svg width="24" height="24" viewBox="0 0 24 24" fill="none" xmlns="http://www.w3.org/2000/svg">
<path d="M7.16129 24C5.32258 24 3.58065 23.7571 2.22581 23.2713C1.54839 23.0283 1.06452 22.7854 0.677419 22.4453C0.387097 22.1538 0 21.7652 0 21.2308V18.3158C0 18.2672 0 18.2186 0 18.17V18.1215V18.0729C0 17.9757 0 17.8785 0 17.83V14.915C0 14.8664 0 14.8178 0 14.7692V14.7206V14.6721C0 14.5749 0 14.4777 0 14.4291V11.5142C0 11.4656 0 11.417 0 11.3684V11.3198V11.2713C0 11.1741 0 11.0769 0 11.0283C0 10.4939 0.387097 10.0567 0.677419 9.81376C1.06452 9.47368 1.54839 9.23077 2.22581 8.98785C3.53226 8.50202 5.27419 8.25911 7.16129 8.25911C7.98387 8.25911 8.80645 8.30769 9.58065 8.40486H9.72581V6.65587C9.72581 6.60729 9.72581 6.5587 9.72581 6.51012V6.46154V6.41296C9.72581 6.31579 9.67742 6.21862 9.67742 6.17004V3.25506C9.67742 3.20648 9.67742 3.15789 9.67742 3.10931V3.06073V3.01215C9.67742 2.91498 9.67742 2.81781 9.67742 2.76923C9.67742 2.23482 10.0645 1.79757 10.3548 1.55466C10.7419 1.21457 11.2258 0.97166 11.9032 0.728745C13.2097 0.242915 14.9516 0 16.8387 0C18.7258 0 20.4194 0.242915 21.7742 0.728745C22.4516 0.97166 22.9355 1.21457 23.3226 1.55466C23.6129 1.79757 24 2.23482 24 2.76923C24 2.8664 24 2.91498 23.9516 3.01215V3.06073V3.10931C23.9516 3.15789 24 3.20648 24 3.25506V6.17004C24 6.26721 24 6.36437 23.9516 6.41296V6.46154V6.51012C23.9516 6.5587 24 6.60729 23.9516 6.65587V9.57085C23.9516 9.66802 23.9516 9.76518 23.9032 9.81376V9.86235V9.91093C23.9032 9.95951 23.9516 10.0081 23.9032 10.0567V12.9717C23.9032 13.0688 23.9032 13.166 23.8548 13.2146V13.2632V13.3117C23.8548 13.3603 23.9032 13.4089 23.8548 13.4575V16.3725C23.8548 16.9069 23.4677 17.3441 23.1774 17.587C22.7903 17.9271 22.3065 18.17 21.629 18.413C20.3226 18.8988 18.5323 19.1417 16.6935 19.1417C15.871 19.1417 15.0484 19.0931 14.2742 18.996H14.129V21.2308C14.129 21.7652 13.7419 22.2024 13.4516 22.4453C13.0645 22.7854 12.5806 23.0283 11.9032 23.2713C10.7419 23.7571 9 24 7.16129 24ZM0.725806 21.2308C0.725806 21.4251 0.870968 21.668 1.1129 21.9109C1.40323 22.1538 1.8871 22.3968 2.46774 22.6397C3.67742 23.0769 5.37097 23.3198 7.1129 23.3198C8.85484 23.3198 10.5484 23.0769 11.7581 22.6397C12.3387 22.4453 12.7742 22.2024 13.1129 21.9109C13.4032 21.668 13.5 21.4737 13.5 21.2308V19.0931L13.3065 19.2389C12.9194 19.4818 12.5323 19.7247 12 19.8704C10.6935 20.3563 8.90323 20.5992 7.06452 20.5992C5.22581 20.5992 3.53226 20.3563 2.22581 19.8704C1.74194 19.6761 1.30645 19.4818 0.919355 19.2389L0.725806 19.0931V21.2308ZM0.725806 17.83C0.725806 18.0243 0.870968 18.2672 1.1129 18.5101C1.40323 18.753 1.8871 18.996 2.46774 19.2389C3.67742 19.6761 5.37097 19.919 7.1129 19.919C8.85484 19.919 10.5484 19.6761 11.7581 19.2389C12.3387 19.0445 12.7742 18.8016 13.1129 18.5101C13.4032 18.2672 13.5 18.0729 13.5 17.83V15.6923L13.3065 15.8381C12.9194 16.081 12.5323 16.3239 12 16.4696C10.6935 16.9555 8.90323 17.1984 7.06452 17.1984C5.22581 17.1984 3.53226 16.9555 2.22581 16.4696C1.74194 16.2753 1.30645 16.081 0.919355 15.8381L0.725806 15.6923V17.83ZM14.2742 17.83C14.2742 17.9271 14.2742 17.9757 14.2258 18.0729V18.1215V18.2186L14.3226 18.2672C15.1452 18.413 16.0161 18.4615 16.7903 18.4615C18.5323 18.4615 20.2258 18.2186 21.4355 17.7814C22.0161 17.587 22.4516 17.3441 22.7903 17.0526C23.0806 16.8097 23.1774 16.6154 23.1774 16.3725V14.2348L22.9839 14.3806C22.5968 14.6235 22.2097 14.8664 21.6774 15.0121C20.371 15.498 18.5806 15.7409 16.7419 15.7409C15.9194 15.7409 15.0968 15.6923 14.3226 15.5951H14.1774V17.83H14.2742ZM0.725806 14.4291C0.725806 14.6235 0.870968 14.8664 1.1129 15.1093C1.40323 15.3522 1.8871 15.5951 2.46774 15.8381C3.67742 16.2753 5.37097 16.5182 7.1129 16.5182C8.85484 16.5182 10.5484 16.2753 11.7581 15.8381C12.3387 15.6437 12.7742 15.4008 13.1129 15.1093C13.4032 14.8664 13.5 14.6721 13.5 14.4291V12.2915L13.3065 12.4372C12.9194 12.6802 12.5323 12.9231 12 13.0688C10.6935 13.5547 8.95161 13.7976 7.06452 13.7976C5.17742 13.7976 3.53226 13.5547 2.22581 13.0688C1.74194 12.8745 1.30645 12.6802 0.919355 12.4372L0.725806 12.2915V14.4291ZM14.1774 14.8178H14.3226C15.1452 14.915 15.9677 15.0121 16.7903 15.0121C18.5323 15.0121 20.2258 14.7692 21.4355 14.332C22.0161 14.1377 22.4516 13.8947 22.7903 13.6032C23.0806 13.3603 23.1774 13.166 23.1774 12.9231V10.7854L22.9839 10.9312C22.5968 11.1741 22.2097 11.417 21.6774 11.5628C20.371 12.0486 18.629 12.2915 16.7419 12.2915C15.9194 12.2915 15.0968 12.2429 14.3226 12.1457H14.1774V14.3806C14.1774 14.4777 14.1774 14.5263 14.129 14.6235V14.6721L14.1774 14.8178ZM7.16129 8.93927C5.41935 8.93927 3.72581 9.18219 2.51613 9.61943C1.93548 9.81376 1.5 10.0567 1.16129 10.3482C0.870968 10.5911 0.774194 10.7854 0.774194 11.0283C0.774194 11.2713 0.919355 11.4656 1.16129 11.7085C1.45161 11.9514 1.93548 12.1943 2.51613 12.4372C3.72581 12.8745 5.41935 13.1174 7.16129 13.1174C8.90323 13.1174 10.5968 12.8745 11.8065 12.4372C12.3871 12.2429 12.8226 12 13.1613 11.7085C13.4516 11.4656 13.5484 11.2713 13.5484 11.0283C13.5484 10.7854 13.4032 10.5911 13.1613 10.3482C12.871 10.1053 12.3871 9.86235 11.8065 9.61943C10.5968 9.18219 8.90323 8.93927 7.16129 8.93927ZM10.4032 8.50202H10.5C11.0806 8.59919 11.6129 8.74494 12.0484 8.93927C12.7258 9.18219 13.2097 9.4251 13.5968 9.76518C13.8871 10.0081 14.2742 10.4453 14.2742 10.9798C14.2742 11.0769 14.2742 11.1255 14.2258 11.2227V11.2713V11.3684L14.3226 11.417C15.0968 11.5142 15.9194 11.5628 16.7903 11.5628C18.5323 11.5628 20.2258 11.3198 21.4355 10.8826C22.0161 10.6883 22.4516 10.4453 22.7903 10.1538C23.0806 9.91093 23.1774 9.7166 23.1774 9.47368V7.33603L22.9839 7.48178C22.5968 7.7247 22.2097 7.96761 21.6774 8.11336C20.371 8.59919 18.629 8.8421 16.7419 8.8421C14.8548 8.8421 13.2097 8.69636 11.9032 8.21053C11.4194 8.01619 10.9839 7.82186 10.5968 7.57895L10.4032 7.4332V8.50202ZM10.4032 6.17004C10.4032 6.36437 10.5484 6.60729 10.7903 6.8502C11.0806 7.09312 11.5645 7.33603 12.1452 7.57895C13.3548 8.01619 15.0484 8.25911 16.7903 8.25911C18.5323 8.25911 20.2258 8.01619 21.4355 7.57895C22.0161 7.38461 22.4516 7.1417 22.7903 6.8502C23.0806 6.60729 23.1774 6.41296 23.1774 6.17004V4.03239L22.9839 4.17814C22.5968 4.42105 22.2097 4.66397 21.6774 4.80972C20.371 5.29555 18.629 5.53846 16.7419 5.53846C14.8548 5.53846 13.2097 5.29555 11.9032 4.80972C11.4194 4.61538 10.9839 4.42105 10.5968 4.17814L10.4032 4.03239V6.17004ZM16.8387 0.680162C15.0968 0.680162 13.4032 0.923077 12.1935 1.36032C11.6129 1.55466 11.1774 1.79757 10.8387 2.08907C10.5484 2.33198 10.4516 2.52632 10.4516 2.76923C10.4516 3.01215 10.5968 3.20648 10.8387 3.44939C11.129 3.69231 11.6129 3.93522 12.1935 4.17814C13.4032 4.61538 15.0968 4.8583 16.8387 4.8583C18.5806 4.8583 20.2742 4.61538 21.4839 4.17814C22.0645 3.98381 22.5 3.74089 22.8387 3.44939C23.0806 3.20648 23.2258 2.96356 23.2258 2.76923C23.2258 2.5749 23.0806 2.33198 22.8387 2.08907C22.5484 1.84615 22.0645 1.60324 21.4839 1.36032C20.2742 0.923077 18.5806 0.680162 16.8387 0.680162Z" fill="#C83E93"/>
</svg>
