<svg width="16" height="13" viewBox="0 0 16 13" fill="none" xmlns="http://www.w3.org/2000/svg">
<path d="M13.5447 1.77034C12.5249 1.30242 11.4313 0.957677 10.2879 0.760228C10.2671 0.756417 10.2463 0.76594 10.2356 0.784987C10.0949 1.03513 9.93915 1.36146 9.83006 1.61796C8.60027 1.43385 7.37679 1.43385 6.17221 1.61796C6.0631 1.35576 5.90166 1.03513 5.76038 0.784987C5.74966 0.766576 5.72886 0.757052 5.70803 0.760228C4.56527 0.957046 3.47171 1.30179 2.45129 1.77034C2.44246 1.77415 2.43488 1.7805 2.42986 1.78875C0.355594 4.88766 -0.212633 7.9104 0.0661201 10.8957C0.0673814 10.9103 0.0755799 10.9242 0.086932 10.9331C1.45547 11.9381 2.78114 12.5483 4.08219 12.9527C4.10301 12.9591 4.12507 12.9514 4.13832 12.9343C4.44608 12.514 4.72043 12.0708 4.95565 11.6048C4.96953 11.5775 4.95628 11.5451 4.92791 11.5344C4.49275 11.3693 4.0784 11.168 3.67982 10.9395C3.64829 10.9211 3.64577 10.876 3.67477 10.8544C3.75865 10.7915 3.84255 10.7261 3.92264 10.6601C3.93713 10.648 3.95732 10.6455 3.97435 10.6531C6.59286 11.8486 9.4277 11.8486 12.0153 10.6531C12.0323 10.6449 12.0525 10.6474 12.0677 10.6595C12.1478 10.7255 12.2316 10.7915 12.3161 10.8544C12.3451 10.876 12.3433 10.9211 12.3117 10.9395C11.9131 11.1725 11.4988 11.3693 11.063 11.5337C11.0346 11.5445 11.022 11.5775 11.0359 11.6048C11.2762 12.0702 11.5505 12.5134 11.8526 12.9337C11.8652 12.9514 11.8879 12.9591 11.9087 12.9527C13.2161 12.5483 14.5417 11.9381 15.9103 10.9331C15.9223 10.9242 15.9298 10.9109 15.9311 10.8963C16.2647 7.445 15.3723 4.44705 13.5655 1.78938C13.5611 1.7805 13.5535 1.77415 13.5447 1.77034ZM5.34668 9.07795C4.55833 9.07795 3.90876 8.35418 3.90876 7.46533C3.90876 6.57647 4.54574 5.85271 5.34668 5.85271C6.15392 5.85271 6.79721 6.58283 6.78459 7.46533C6.78459 8.35418 6.14761 9.07795 5.34668 9.07795ZM10.6632 9.07795C9.87484 9.07795 9.22526 8.35418 9.22526 7.46533C9.22526 6.57647 9.86222 5.85271 10.6632 5.85271C11.4704 5.85271 12.1137 6.58283 12.1011 7.46533C12.1011 8.35418 11.4704 9.07795 10.6632 9.07795Z" fill="#5865F2"/>
</svg>
