<svg width="42" height="46" viewBox="0 0 42 46" fill="none" xmlns="http://www.w3.org/2000/svg">
<path d="M20.8 45.5C12.6 45.5 8 44.7 4.9 43C1.6 41.1 0 37.8 0 32.8C0 29.1 1.6 25.1 4.4 21.6C6.9 18.4 10 16.2 13.2 15.2L13.4 15.1V14.9C13.5 12.6 12.7 10.9 12.1 9.9C11.4 8.7 10.6 8 10.1 7.5L9.8 7.4C9.4 7 9.1 6.6 8.9 6.3C8.6 5.8 8.5 5.3 8.6 4.8L8.7 4.5C8.9 4.1 9.3 3.7 9.9 3.5C10.5 3.3 11.3 3.2 12.4 3.2C13.4 3.2 14.3 3.2 14.9 3C15.5 2.9 16 2.7 16.4 2.1C16.9 1.4 17.3 0.9 17.8 0.6C18.2 0.2 18.8 0 19.4 0C20.7 0 21.7 0.9 23 2.2C23.3 2.5 23.7 2.7 24.1 2.7C24.3 2.7 24.6 2.7 25 2.6C25.3 2.5 25.6 2.5 25.9 2.4C26.6 2.2 27.4 2 28.2 2C28.7 2 29.4 2.1 29.7 2.6C30.1 3 30.1 3.5 30 4C29.8 4.8 29.4 5.5 29 6L28.9 6.2C28.8 6.3 26.4 9.3 26.7 13.3V13.7L27.1 13.5C28.3 12.7 30.8 11 33.7 11C35.1 11 36.4 11.4 37.6 12.1C38 12.3 38.1 12.8 37.9 13.1C37.8 13.3 37.5 13.5 37.2 13.5C37.1 13.5 36.9 13.5 36.8 13.4C35.7 12.8 34.5 12.5 33.4 12.5C32.5 12.5 31.6 12.7 30.7 13.1L30.8 13.6C33.2 13.7 35.2 14.6 36.7 16.3C37 16.6 37 17.1 36.7 17.4C36.6 17.5 36.4 17.6 36.2 17.6C36 17.6 35.8 17.5 35.7 17.4C34.3 15.9 32.6 15.2 30.5 15.1H30.3C29.9 15.1 29.5 15.1 29 15.2L28.1 15.3L28.9 15.7C35 18.4 41.5 24.9 41.5 33C41.5 38 39.9 41.3 36.6 43.1C33.5 44.7 28.9 45.5 20.8 45.5ZM14.2 16.4C11.3 17.1 8 19.4 5.6 22.5C3 25.8 1.5 29.5 1.5 32.8C1.5 37.4 2.7 40 5.6 41.6C8.4 43.2 13.1 43.9 20.7 43.9C28.3 43.9 33 43.2 35.8 41.6C38.7 39.9 39.9 37.4 39.9 32.8C39.9 25.1 32.7 17.9 25.9 15.9H25.8H25.7C23.7 16.9 21.6 17.4 19.5 17.4C17 17.4 15.2 16.7 14.2 16.3V16.4ZM13.7 9.9C14.5 11.5 14.9 13.1 14.9 14.9V15.1L15 15.2C15.8 15.6 17.3 16.1 19.5 16.1C21.4 16.1 23.2 15.7 25 14.8L25.2 14.7V14.5C24.9 12.5 25.1 10.4 26 8.3L25.6 8L25.5 8.1C25.4 8.2 25.4 8.2 25.3 8.3C24.6 9 23.7 9.4 22.9 9.5C22.8 9.5 22.7 9.5 22.5 9.5C21.6 9.5 20.8 9.1 20.3 8.5C19.9 8 19.5 7.6 19.2 7.4C19 7.3 18.9 7.2 18.7 7.2H18.6C18.1 7.3 17.1 8.2 16.7 8.6C16.1 9.2 15.3 9.5 14.4 9.5C14.3 9.5 14.2 9.5 14 9.5H13.5L13.7 9.9ZM12.3 4.7C11.6 4.7 11.1 4.8 10.6 4.9L10.2 5L10.4 5.3C11.3 6.6 12.3 7.5 13.2 7.9C13.6 8.1 14 8.2 14.3 8.2C14.8 8.2 15.2 8 15.6 7.7L15.8 7.5C16.6 6.7 17.3 6.1 18.3 5.9C18.4 5.9 18.5 5.9 18.6 5.9C19 5.9 19.5 6 19.9 6.3C20.4 6.6 20.8 7 21.4 7.7C21.7 7.9 22 8 22.4 8C22.5 8 22.6 8 22.7 8C23.2 7.9 23.8 7.6 24.3 7.2C25 6.5 25.8 6 26.3 5.5C26.6 5.2 26.9 5 27.2 4.8C27.5 4.5 27.8 4.3 27.9 4.1C28 3.9 28 3.9 28 3.7V3.5H27.8C27.4 3.6 27 3.6 26.6 3.7C26.1 3.9 25.7 4 25.3 4C24.9 4.1 24.6 4.1 24.2 4.1C23.2 4.1 22.5 3.8 21.9 3.2C20.8 2.1 19.9 1.5 19.4 1.4C19.1 1.4 18.9 1.5 18.6 1.7C18.3 2 17.9 2.4 17.6 3C16.9 4 15.9 4.4 15.2 4.5C14.4 4.7 13.6 4.7 12.7 4.7H12.3Z" fill="#31C5F4"/>
</svg>
