<svg width="24" height="24" viewBox="0 0 22 19" fill="none" xmlns="http://www.w3.org/2000/svg">
<path d="M3.00072 0.5C2.58672 0.5 2.25072 0.8355 2.25072 1.25V1.58398C1.33422 1.83298 0.635485 2.662 0.635485 3.625C0.635485 4.7965 1.58848 5.75 2.76048 5.75H3.37572C3.72022 5.75 4.00072 6.0305 4.00072 6.375C4.00072 6.7195 3.71974 7 3.37474 7H2.51927C2.10927 7 1.94814 6.72006 1.92064 6.66406C1.73564 6.29356 1.28531 6.1451 0.913805 6.3291C0.543305 6.5146 0.393844 6.96494 0.578844 7.33594C0.834344 7.84594 1.40074 8.38297 2.24974 8.48047V8.75C2.24974 9.1645 2.58574 9.5 2.99974 9.5C3.41374 9.5 3.74974 9.1645 3.74974 8.75V8.46191C4.74274 8.28391 5.49974 7.4185 5.49974 6.375C5.49974 5.2035 4.54674 4.25 3.37474 4.25H2.75951C2.41501 4.25 2.13451 3.9695 2.13451 3.625C2.13451 3.292 2.44886 3 2.80736 3H3.23119C3.61019 3 3.74184 3.16144 3.82884 3.33594C4.01434 3.70694 4.46468 3.8559 4.83568 3.6709C5.20618 3.4854 5.35662 3.03506 5.17162 2.66406C4.87412 2.06956 4.37822 1.69064 3.75072 1.55664V1.25C3.75072 0.8355 3.41472 0.5 3.00072 0.5ZM11.0007 0.5C10.5867 0.5 10.2507 0.8355 10.2507 1.25V1.58398C9.33422 1.83298 8.63548 2.662 8.63548 3.625C8.63548 4.7965 9.58848 5.75 10.7605 5.75H11.3757C11.7202 5.75 12.0007 6.0305 12.0007 6.375C12.0007 6.7195 11.7197 7 11.3747 7H10.5193C10.1093 7 9.94814 6.72006 9.92064 6.66406C9.73564 6.29356 9.28531 6.1451 8.91381 6.3291C8.54331 6.5146 8.39384 6.96494 8.57884 7.33594C8.83434 7.84594 9.40074 8.38297 10.2497 8.48047V8.75C10.2497 9.1645 10.5857 9.5 10.9997 9.5C11.4137 9.5 11.7497 9.1645 11.7497 8.75V8.46191C12.7427 8.28391 13.4997 7.4185 13.4997 6.375C13.4997 5.2035 12.5467 4.25 11.3747 4.25H10.7595C10.415 4.25 10.1345 3.9695 10.1345 3.625C10.1345 3.292 10.4489 3 10.8074 3H11.2312C11.6102 3 11.7418 3.16144 11.8288 3.33594C12.0143 3.70694 12.4647 3.8559 12.8357 3.6709C13.2062 3.4854 13.3566 3.03506 13.1716 2.66406C12.8741 2.06956 12.3782 1.69064 11.7507 1.55664V1.25C11.7507 0.8355 11.4147 0.5 11.0007 0.5ZM19.0007 0.5C18.5867 0.5 18.2507 0.8355 18.2507 1.25V1.58398C17.3342 1.83298 16.6355 2.662 16.6355 3.625C16.6355 4.7965 17.5885 5.75 18.7605 5.75H19.3757C19.7202 5.75 20.0007 6.0305 20.0007 6.375C20.0007 6.7195 19.7197 7 19.3747 7H18.5193C18.1093 7 17.9481 6.72006 17.9206 6.66406C17.7356 6.29356 17.2853 6.1451 16.9138 6.3291C16.5433 6.5146 16.3938 6.96494 16.5788 7.33594C16.8343 7.84594 17.4007 8.38297 18.2497 8.48047V8.75C18.2497 9.1645 18.5857 9.5 18.9997 9.5C19.4137 9.5 19.7497 9.1645 19.7497 8.75V8.46191C20.7427 8.28391 21.4997 7.4185 21.4997 6.375C21.4997 5.2035 20.5467 4.25 19.3747 4.25H18.7595C18.415 4.25 18.1345 3.9695 18.1345 3.625C18.1345 3.292 18.4489 3 18.8074 3H19.2312C19.6102 3 19.7418 3.16144 19.8288 3.33594C20.0143 3.70694 20.4647 3.8559 20.8357 3.6709C21.2062 3.4854 21.3566 3.03506 21.1716 2.66406C20.8741 2.06956 20.3782 1.69064 19.7507 1.55664V1.25C19.7507 0.8355 19.4147 0.5 19.0007 0.5ZM18.2419 11.4922C18.0927 11.4922 17.9468 11.5368 17.823 11.6202C17.6992 11.7036 17.6031 11.822 17.547 11.9603C17.4909 12.0986 17.4774 12.2506 17.5081 12.3966C17.5388 12.5427 17.6124 12.6763 17.7195 12.7803L18.9392 14H13.6433C13.5375 13.5947 13.353 13.2063 13.0603 12.877C12.5895 12.3473 11.8539 12 10.9997 12C10.1456 12 9.40998 12.3473 8.9392 12.877C8.64647 13.2063 8.46201 13.5947 8.35619 14H5.8933C5.78747 13.5947 5.60301 13.2063 5.31029 12.877C4.8395 12.3473 4.10391 12 3.24974 12C2.39558 12 1.65998 12.3473 1.1892 12.877C0.718408 13.4066 0.499743 14.0833 0.499743 14.75C0.499743 15.4167 0.718408 16.0934 1.1892 16.623C1.65998 17.1527 2.39558 17.5 3.24974 17.5C4.10391 17.5 4.8395 17.1527 5.31029 16.623C5.60301 16.2937 5.78747 15.9053 5.8933 15.5H8.35619C8.46201 15.9053 8.64647 16.2937 8.9392 16.623C9.40998 17.1527 10.1456 17.5 10.9997 17.5C11.8539 17.5 12.5895 17.1527 13.0603 16.623C13.353 16.2937 13.5375 15.9053 13.6433 15.5H18.9392L17.7195 16.7197C17.6475 16.7888 17.59 16.8716 17.5504 16.9632C17.5109 17.0548 17.4899 17.1534 17.4889 17.2532C17.4879 17.3529 17.5068 17.4519 17.5445 17.5443C17.5822 17.6367 17.638 17.7206 17.7086 17.7912C17.7791 17.8617 17.8631 17.9175 17.9554 17.9552C18.0478 17.9929 18.1468 18.0118 18.2466 18.0108C18.3464 18.0098 18.4449 17.9889 18.5365 17.9493C18.6281 17.9097 18.7109 17.8523 18.78 17.7803L21.2156 15.3447C21.3072 15.2744 21.3814 15.1839 21.4323 15.0803C21.4832 14.9766 21.5095 14.8626 21.5092 14.7471C21.5088 14.6316 21.4817 14.5177 21.4301 14.4144C21.3785 14.3111 21.3038 14.2211 21.2117 14.1514L18.78 11.7197C18.7101 11.6477 18.6265 11.5905 18.534 11.5514C18.4416 11.5123 18.3423 11.4922 18.2419 11.4922ZM3.24974 13.5C3.72891 13.5 3.99332 13.6527 4.1892 13.873C4.37018 14.0767 4.47795 14.3687 4.49388 14.6748C4.48839 14.7254 4.48806 14.7765 4.49291 14.8271C4.47658 15.1325 4.36978 15.4238 4.1892 15.627C3.99332 15.8473 3.72891 16 3.24974 16C2.77058 16 2.50617 15.8473 2.31029 15.627C2.11441 15.4066 1.99974 15.0833 1.99974 14.75C1.99974 14.4167 2.11441 14.0934 2.31029 13.873C2.50617 13.6527 2.77058 13.5 3.24974 13.5ZM10.9997 13.5C11.4789 13.5 11.7433 13.6527 11.9392 13.873C12.1202 14.0767 12.2279 14.3687 12.2439 14.6748C12.2384 14.7254 12.2381 14.7765 12.2429 14.8271C12.2266 15.1325 12.1198 15.4238 11.9392 15.627C11.7433 15.8473 11.4789 16 10.9997 16C10.5206 16 10.2562 15.8473 10.0603 15.627C9.87931 15.4233 9.77154 15.1313 9.7556 14.8252C9.7611 14.7746 9.76142 14.7235 9.75658 14.6729C9.7729 14.3675 9.87971 14.0762 10.0603 13.873C10.2562 13.6527 10.5206 13.5 10.9997 13.5Z" fill="#C83E93"/>
</svg>
