<svg width="25" height="24" viewBox="0 0 25 24" fill="none" xmlns="http://www.w3.org/2000/svg">
<path d="M12.4883 2.4893C12.4519 2.49025 12.4157 2.49384 12.3799 2.50004H9.74901C8.11571 2.50004 6.82728 3.94881 7.01757 5.57133L7.44042 9.16508C6.32835 9.51813 5.49999 10.5267 5.49999 11.75V14.5H3.74999C3.60008 14.5001 3.45363 14.545 3.32952 14.6291C3.20541 14.7132 3.10934 14.8325 3.0537 14.9717L2.0537 17.4717C1.9823 17.6504 1.9823 17.8497 2.0537 18.0284L3.0537 20.5284C3.10934 20.6676 3.20541 20.7869 3.32952 20.871C3.45363 20.955 3.60008 21 3.74999 21H21.25C21.3999 21 21.5463 20.955 21.6705 20.871C21.7946 20.7869 21.8906 20.6676 21.9463 20.5284L22.9463 18.0284C23.0177 17.8497 23.0177 17.6504 22.9463 17.4717L21.9463 14.9717C21.8906 14.8325 21.7946 14.7132 21.6705 14.6291C21.5463 14.545 21.3999 14.5001 21.25 14.5H19.5V11.75C19.5 11.0232 19.203 10.3764 18.7324 9.8936L21.6269 6.00004H22.75C22.8494 6.00145 22.948 5.98309 23.0403 5.94603C23.1325 5.90897 23.2164 5.85395 23.2872 5.78416C23.358 5.71438 23.4142 5.63123 23.4526 5.53953C23.4909 5.44784 23.5107 5.34944 23.5107 5.25004C23.5107 5.15065 23.4909 5.05225 23.4526 4.96055C23.4142 4.86886 23.358 4.78571 23.2872 4.71592C23.2164 4.64614 23.1325 4.59112 23.0403 4.55406C22.948 4.517 22.8494 4.49864 22.75 4.50004H21.25C21.1331 4.50012 21.0178 4.52754 20.9133 4.5801C20.8089 4.63267 20.7182 4.70892 20.6484 4.80278L17.5889 8.91899L17.9824 5.57133C18.1727 3.94911 16.8843 2.50004 15.251 2.50004H12.623C12.5785 2.49241 12.5334 2.48882 12.4883 2.4893ZM9.74901 4.00004H11.75V9.00004H8.93163L8.5078 5.39653C8.41909 4.64005 8.98831 4.00004 9.74901 4.00004ZM13.25 4.00004H15.251C16.0117 4.00004 16.5808 4.64075 16.4922 5.39653L16.0693 9.00004H13.25V4.00004ZM8.24999 10.5H16.75C16.9368 10.5 17.1116 10.5414 17.2695 10.6123C17.3258 10.6536 17.3876 10.6868 17.4531 10.711C17.4534 10.7113 17.4538 10.7116 17.4541 10.712C17.7855 10.9349 18 11.3136 18 11.75V14.5H6.99999V11.75C6.99999 11.0509 7.55088 10.5 8.24999 10.5ZM9.49999 11.5C9.23477 11.5 8.98042 11.6054 8.79288 11.7929C8.60535 11.9805 8.49999 12.2348 8.49999 12.5C8.49999 12.7653 8.60535 13.0196 8.79288 13.2071C8.98042 13.3947 9.23477 13.5 9.49999 13.5C9.76521 13.5 10.0196 13.3947 10.2071 13.2071C10.3946 13.0196 10.5 12.7653 10.5 12.5C10.5 12.2348 10.3946 11.9805 10.2071 11.7929C10.0196 11.6054 9.76521 11.5 9.49999 11.5ZM15.5 11.5C15.2348 11.5 14.9804 11.6054 14.7929 11.7929C14.6053 11.9805 14.5 12.2348 14.5 12.5C14.5 12.7653 14.6053 13.0196 14.7929 13.2071C14.9804 13.3947 15.2348 13.5 15.5 13.5C15.7652 13.5 16.0196 13.3947 16.2071 13.2071C16.3946 13.0196 16.5 12.7653 16.5 12.5C16.5 12.2348 16.3946 11.9805 16.2071 11.7929C16.0196 11.6054 15.7652 11.5 15.5 11.5ZM4.2578 16H6.12694C6.20746 16.0133 6.28959 16.0133 6.37011 16H18.6269C18.7075 16.0133 18.7896 16.0133 18.8701 16H20.7422L21.1426 17H3.85741L4.2578 16ZM3.85741 18.5H21.1426L20.7422 19.5H4.2578L3.85741 18.5Z" fill="#1B1B1B"/>
</svg>
