<svg width="21" height="20" viewBox="0 0 21 20" fill="none" xmlns="http://www.w3.org/2000/svg">
<g clip-path="url(#clip0_9315_62465)">
<path d="M13.22 17.8001C12.74 17.8001 12.26 17.7201 11.86 17.6401C11.34 17.7201 10.86 17.8001 10.42 17.8001C9.94 17.8001 9.46 17.7201 9.06 17.6401C8.54 17.7201 8.06 17.8001 7.62 17.8001C3.7 17.8001 0.5 14.6001 0.5 10.7201C0.5 6.8401 3.7 3.6001 7.62 3.6001C8.06 3.6001 8.54 3.6401 9.02 3.7601H9.1C9.5 3.6801 9.94 3.6001 10.46 3.6001C10.9 3.6001 11.38 3.6401 11.86 3.7601H11.94C12.34 3.6801 12.78 3.6001 13.3 3.6001C17.22 3.6001 20.42 6.8001 20.42 10.7201C20.42 14.6401 17.1 17.8001 13.22 17.8001ZM7.62 4.2001C4.02 4.2001 1.14 7.1201 1.14 10.6801C1.14 14.2401 4.02 17.2001 7.62 17.2001C8.06 17.2001 8.46 17.1601 8.86 17.0801C8.94 17.0401 8.98 17.0401 9.02 17.0401C12.02 16.3601 14.1 13.7601 14.1 10.7201C14.1 7.6801 12.02 5.0801 9.06 4.4001H9.02C8.98 4.4001 8.94 4.4001 8.86 4.3601C8.42 4.2401 8.02 4.2001 7.62 4.2001ZM10.9 4.4401C13.26 5.6801 14.7 8.0801 14.7 10.7201C14.7 13.3601 13.26 15.7601 10.9 17.0001L10.34 17.2001L10.98 17.1601H11.06C11.26 17.1601 11.46 17.1201 11.66 17.0801C11.74 17.0401 11.78 17.0401 11.82 17.0401C14.82 16.3601 16.9 13.7601 16.9 10.7201C16.9 7.6801 14.82 5.0801 11.86 4.4001H11.82C11.78 4.4001 11.74 4.4001 11.66 4.3601C11.42 4.3201 11.22 4.2801 11.06 4.2801H10.46L10.9 4.4401ZM13.7 4.4401C16.06 5.6801 17.5 8.0801 17.5 10.7201C17.5 13.3601 16.06 15.7601 13.7 17.0001L13.22 17.2001L13.78 17.1601C17.14 16.8801 19.7 14.0801 19.7 10.7201C19.7 7.3601 17.14 4.5201 13.74 4.2401L13.14 4.2001L13.7 4.4401Z" fill="#1B1B1B"/>
<path fill-rule="evenodd" clip-rule="evenodd" d="M9.34 13.4001C7.86 13.4001 6.62 12.2001 6.62 10.6801C6.62 9.1601 7.82 7.9601 9.34 7.9601C10.86 7.9601 12.06 9.1601 12.06 10.6801C12.06 12.2001 10.86 13.4001 9.34 13.4001ZM9.34 8.6001C8.18 8.6001 7.26 9.5601 7.26 10.6801C7.26 11.8001 8.22 12.7601 9.34 12.7601C10.46 12.7601 11.42 11.8001 11.42 10.6801C11.42 9.5601 10.5 8.6001 9.34 8.6001Z" fill="#1B1B1B"/>
<path fill-rule="evenodd" clip-rule="evenodd" d="M6.14 13.4001C4.66 13.4001 3.42 12.2001 3.42 10.6801C3.42 9.1601 4.62 7.9601 6.14 7.9601C7.66 7.9601 8.86 9.1601 8.86 10.6801C8.86 12.2001 7.66 13.4001 6.14 13.4001ZM6.14 8.6001C4.98 8.6001 4.06 9.5601 4.06 10.6801C4.06 11.8001 5.02 12.7601 6.14 12.7601C7.26 12.7601 8.22 11.8001 8.22 10.6801C8.22 9.5601 7.3 8.6001 6.14 8.6001Z" fill="#1B1B1B"/>
</g>
<defs>
<clipPath id="clip0_9315_62465">
<rect width="20" height="20" fill="white" transform="translate(0.5)"/>
</clipPath>
</defs>
</svg>
