<svg width="18" height="18" viewBox="0 0 18 18" fill="none" xmlns="http://www.w3.org/2000/svg">
<path d="M1.75 0C0.792523 0 0 0.792523 0 1.75V5.25C0 6.20748 0.792523 7 1.75 7H2V7.75C1.99859 7.84938 2.01696 7.94806 2.05402 8.04028C2.09108 8.13251 2.1461 8.21645 2.21588 8.28723C2.28566 8.358 2.36882 8.41421 2.46051 8.45257C2.5522 8.49093 2.65061 8.51068 2.75 8.51068C2.84939 8.51068 2.9478 8.49093 3.03949 8.45257C3.13118 8.41421 3.21434 8.358 3.28412 8.28723C3.3539 8.21645 3.40892 8.13251 3.44598 8.04028C3.48304 7.94806 3.50141 7.84938 3.5 7.75V7H5.25C6.20748 7 7 6.20748 7 5.25V3.5H7.75C7.84938 3.50141 7.94806 3.48304 8.04028 3.44598C8.13251 3.40892 8.21645 3.3539 8.28723 3.28412C8.358 3.21434 8.41421 3.13118 8.45257 3.03949C8.49093 2.9478 8.51068 2.84939 8.51068 2.75C8.51068 2.65061 8.49093 2.5522 8.45257 2.46051C8.41421 2.36882 8.358 2.28566 8.28723 2.21588C8.21645 2.1461 8.13251 2.09108 8.04028 2.05402C7.94806 2.01696 7.84938 1.99859 7.75 2H7V1.75C7 0.792523 6.20748 0 5.25 0H1.75ZM12.75 0C11.7925 0 11 0.792523 11 1.75V2H10.25C10.1506 1.99859 10.0519 2.01696 9.95972 2.05402C9.86749 2.09108 9.78355 2.1461 9.71277 2.21588C9.642 2.28566 9.58579 2.36882 9.54743 2.46051C9.50907 2.5522 9.48932 2.65061 9.48932 2.75C9.48932 2.84939 9.50907 2.9478 9.54743 3.03949C9.58579 3.13118 9.642 3.21434 9.71277 3.28412C9.78355 3.3539 9.86749 3.40892 9.95972 3.44598C10.0519 3.48304 10.1506 3.50141 10.25 3.5H11V5.25C11 6.20748 11.7925 7 12.75 7H14.5V7.75C14.4986 7.84938 14.517 7.94806 14.554 8.04028C14.5911 8.13251 14.6461 8.21645 14.7159 8.28723C14.7857 8.358 14.8688 8.41421 14.9605 8.45257C15.0522 8.49093 15.1506 8.51068 15.25 8.51068C15.3494 8.51068 15.4478 8.49093 15.5395 8.45257C15.6312 8.41421 15.7143 8.358 15.7841 8.28723C15.8539 8.21645 15.9089 8.13251 15.946 8.04028C15.983 7.94806 16.0014 7.84938 16 7.75V7H16.25C17.2075 7 18 6.20748 18 5.25V1.75C18 0.792523 17.2075 0 16.25 0H12.75ZM1.75 1.5H5.25C5.39752 1.5 5.5 1.60248 5.5 1.75V2.62695C5.48677 2.70747 5.48677 2.7896 5.5 2.87012V5.25C5.5 5.39752 5.39752 5.5 5.25 5.5H2.87305C2.82854 5.49237 2.78343 5.48877 2.73828 5.48926C2.70161 5.49016 2.66505 5.49375 2.62891 5.5H1.75C1.60248 5.5 1.5 5.39752 1.5 5.25V1.75C1.5 1.60248 1.60248 1.5 1.75 1.5ZM12.75 1.5H16.25C16.3975 1.5 16.5 1.60248 16.5 1.75V5.25C16.5 5.39752 16.3975 5.5 16.25 5.5H15.373C15.3285 5.49237 15.2834 5.48877 15.2383 5.48926C15.2016 5.49016 15.1651 5.49375 15.1289 5.5H12.75C12.6025 5.5 12.5 5.39752 12.5 5.25V2.87305C12.5132 2.79253 12.5132 2.7104 12.5 2.62988V1.75C12.5 1.60248 12.6025 1.5 12.75 1.5ZM2.73828 9.48926C2.53954 9.49236 2.35016 9.57423 2.21173 9.71686C2.0733 9.8595 1.99715 10.0513 2 10.25V11H1.75C0.792523 11 0 11.7925 0 12.75V16.25C0 17.2075 0.792523 18 1.75 18H5.25C6.20748 18 7 17.2075 7 16.25V16H7.75C7.84938 16.0014 7.94806 15.983 8.04028 15.946C8.13251 15.9089 8.21645 15.8539 8.28723 15.7841C8.358 15.7143 8.41421 15.6312 8.45257 15.5395C8.49093 15.4478 8.51068 15.3494 8.51068 15.25C8.51068 15.1506 8.49093 15.0522 8.45257 14.9605C8.41421 14.8688 8.358 14.7857 8.28723 14.7159C8.21645 14.6461 8.13251 14.5911 8.04028 14.554C7.94806 14.517 7.84938 14.4986 7.75 14.5H7V12.75C7 11.7925 6.20748 11 5.25 11H3.5V10.25C3.50144 10.1496 3.48271 10.05 3.44493 9.95695C3.40715 9.86394 3.35108 9.77946 3.28005 9.70852C3.20901 9.63757 3.12446 9.58161 3.0314 9.54395C2.93834 9.50629 2.83866 9.48769 2.73828 9.48926V9.48926ZM15.2383 9.48926C15.0395 9.49236 14.8502 9.57423 14.7117 9.71686C14.5733 9.8595 14.4971 10.0513 14.5 10.25V11H12.75C11.7925 11 11 11.7925 11 12.75V14.5H10.25C10.1506 14.4986 10.0519 14.517 9.95972 14.554C9.86749 14.5911 9.78355 14.6461 9.71277 14.7159C9.642 14.7857 9.58579 14.8688 9.54743 14.9605C9.50907 15.0522 9.48932 15.1506 9.48932 15.25C9.48932 15.3494 9.50907 15.4478 9.54743 15.5395C9.58579 15.6312 9.642 15.7143 9.71277 15.7841C9.78355 15.8539 9.86749 15.9089 9.95972 15.946C10.0519 15.983 10.1506 16.0014 10.25 16H11V16.25C11 17.2075 11.7925 18 12.75 18H16.25C17.2075 18 18 17.2075 18 16.25V12.75C18 11.7925 17.2075 11 16.25 11H16V10.25C16.0014 10.1496 15.9827 10.05 15.9449 9.95695C15.9071 9.86394 15.8511 9.77946 15.78 9.70852C15.709 9.63757 15.6245 9.58161 15.5314 9.54395C15.4383 9.50629 15.3387 9.48769 15.2383 9.48926V9.48926ZM1.75 12.5H2.62695C2.70747 12.5132 2.7896 12.5132 2.87012 12.5H5.25C5.39752 12.5 5.5 12.6025 5.5 12.75V15.127C5.48677 15.2075 5.48677 15.2896 5.5 15.3701V16.25C5.5 16.3975 5.39752 16.5 5.25 16.5H1.75C1.60248 16.5 1.5 16.3975 1.5 16.25V12.75C1.5 12.6025 1.60248 12.5 1.75 12.5ZM12.75 12.5H15.127C15.2075 12.5132 15.2896 12.5132 15.3701 12.5H16.25C16.3975 12.5 16.5 12.6025 16.5 12.75V16.25C16.5 16.3975 16.3975 16.5 16.25 16.5H12.75C12.6025 16.5 12.5 16.3975 12.5 16.25V15.373C12.5132 15.2925 12.5132 15.2104 12.5 15.1299V12.75C12.5 12.6025 12.6025 12.5 12.75 12.5Z" fill="#1B1B1B"/>
</svg>
