<svg width="16" height="22" viewBox="0 0 16 22" fill="none" xmlns="http://www.w3.org/2000/svg">
<path d="M8.01273 0.500017C7.9292 0.498596 7.84602 0.511139 7.76663 0.537126C5.52583 1.27079 4.00003 3.34464 4.00003 5.68068V9.6426C3.97707 9.66115 3.95522 9.68104 3.9346 9.70217L1.19632 12.4395C0.273753 13.362 0.273753 14.8802 1.19632 15.8028C1.75787 16.3643 2.56627 16.6093 3.34573 16.4531L4.2764 16.2676C4.57696 16.8421 5.10641 17.2791 5.74515 17.4346C5.58991 17.7514 5.50003 18.1059 5.50003 18.4844C5.50003 19.1833 5.83016 19.7029 6.16312 20.2383C6.49608 20.7737 6.87835 21.2688 7.13675 21.5889C7.56956 22.125 8.43136 22.124 8.86331 21.5889C9.12199 21.2685 9.50404 20.7727 9.83694 20.2373C10.1699 19.7019 10.5 19.1832 10.5 18.4844C10.5 18.1079 10.4075 17.7551 10.2559 17.4346C10.8942 17.2789 11.4232 16.8418 11.7237 16.2676L12.6553 16.4531C13.4345 16.6089 14.2424 16.3641 14.8037 15.8028C15.7263 14.8802 15.7263 13.362 14.8037 12.4395L12.0655 9.70217C12.0448 9.68104 12.023 9.66115 12 9.6426V5.68068C12 3.34464 10.4742 1.27079 8.23343 0.537126C8.16213 0.513789 8.08774 0.50128 8.01273 0.500017ZM8.00003 2.08205C9.49994 2.68411 10.5 4.0836 10.5 5.68068V15.25C10.5 15.6733 10.1733 16 9.75003 16H8.1973L8.18655 15.999H7.09671V16H6.25003C5.82678 16 5.50003 15.6733 5.50003 15.25V5.68068C5.50003 4.0836 6.50012 2.68411 8.00003 2.08205ZM8.00003 5.50002C7.73481 5.50002 7.48046 5.60537 7.29292 5.79291C7.10539 5.98045 7.00003 6.2348 7.00003 6.50002C7.00003 6.76523 7.10539 7.01959 7.29292 7.20712C7.48046 7.39466 7.73481 7.50002 8.00003 7.50002C8.26525 7.50002 8.5196 7.39466 8.70714 7.20712C8.89467 7.01959 9.00003 6.76523 9.00003 6.50002C9.00003 6.2348 8.89467 5.98045 8.70714 5.79291C8.5196 5.60537 8.26525 5.50002 8.00003 5.50002ZM4.00003 11.7578V14.793L3.05081 14.9824C2.76228 15.0403 2.4663 14.9507 2.25784 14.7422C1.90841 14.3928 1.90841 13.8495 2.25784 13.5L4.00003 11.7578ZM12 11.7578L13.7422 13.5C14.0917 13.8495 14.0917 14.3928 13.7422 14.7422C13.5338 14.9507 13.2378 15.0403 12.9492 14.9824L12 14.793V11.7578ZM7.90335 17.5H8.09671C8.60967 17.5501 9.00003 17.9583 9.00003 18.4844C9.00003 18.5071 8.84197 18.9975 8.56351 19.4453C8.3826 19.7363 8.19122 19.9735 8.00003 20.2256C7.80893 19.9736 7.61746 19.7372 7.43655 19.4463C7.15801 18.9984 7.00003 18.507 7.00003 18.4844C7.00003 17.9583 7.39039 17.5501 7.90335 17.5Z" fill="#9BB0CF"/>
</svg>
