<svg width="80" height="80" viewBox="0 0 80 80" fill="none" xmlns="http://www.w3.org/2000/svg">
<circle cx="40" cy="40" r="40" fill="#1B1B1B"/>
<path d="M54.2002 59.7V58.7H25.7002V59.7H21.2002V58.7H20.0002C17.9002 58.7 16.2002 57 16.2002 54.9V22.9C16.2002 20.9 17.9002 19.2 20.0002 19.2H60.0002C62.1002 19.2 63.8002 20.9 63.8002 23V55C63.8002 57.1 62.1002 58.8 60.0002 58.8H58.8002V59.8H54.2002V59.7ZM20.0002 20.7C18.7002 20.7 17.8002 21.7 17.8002 22.9V54.9C17.8002 56.2 18.8002 57.1 20.0002 57.1H60.0002C61.3002 57.1 62.2002 56.1 62.2002 54.9V22.9C62.2002 21.6 61.2002 20.7 60.0002 20.7H20.0002ZM22.0002 53.7C21.6002 53.7 21.2002 53.4 21.2002 52.9V41C21.2002 40.9 21.2002 40.9 21.2002 40.8V37.2C21.1002 37 21.1002 36.8 21.2002 36.7V25C21.2002 24.6 21.4002 24.3 21.8002 24.2H21.9002H57.9002C58.3002 24.2 58.7002 24.5 58.7002 25V53C58.7002 53.4 58.4002 53.8 57.9002 53.8H22.0002V53.7ZM22.7002 36.6L24.5002 38.4C24.6002 38.5 24.7002 38.7 24.7002 38.9C24.7002 39.1 24.6002 39.3 24.5002 39.4L22.7002 41.2V52.2H57.2002V25.7H22.7002V36.6ZM39.8002 49.7C37.1002 49.6 34.6002 48.6 32.7002 46.9H32.6002C32.3002 46.8 32.1002 46.6 32.1002 46.4V46.3C30.4002 44.5 29.4002 42.1 29.3002 39.5V39.4V39.3C29.2002 39.1 29.2002 38.8 29.3002 38.5V38.4V38.3C29.4002 35.8 30.4002 33.4 32.2002 31.5C32.3002 31.2 32.5002 31.1 32.7002 31C34.7002 29.2 37.2002 28.2 39.8002 28.1H39.9002H40.0002C40.1002 28.2 40.2002 28.2 40.2002 28.2C42.9002 28.3 45.4002 29.4 47.3002 31.2C47.4002 31.3 47.5002 31.4 47.6002 31.4V31.5C49.4002 33.4 50.5002 36 50.6002 38.6C50.6002 38.7 50.6002 38.7 50.6002 38.8V38.9C50.6002 39 50.6002 39 50.6002 39.1V39.2V39.3C50.5002 41.9 49.5002 44.3 47.8002 46.2V46.3C47.7002 46.6 47.5002 46.8 47.3002 46.9H47.2002C45.3002 48.6 42.9002 49.6 40.3002 49.7H40.2002H39.8002ZM40.0002 47.2C40.2002 47.2 40.4002 47.3 40.5002 47.4C40.7002 47.5 40.7002 47.7 40.7002 48V48.2H41.0002C42.7002 48 44.4002 47.3 45.8002 46.2L46.0002 46L45.8002 45.8C45.6002 45.6 45.5002 45.3 45.6002 45C45.7002 44.7 45.9002 44.5 46.2002 44.5H46.3002C46.5002 44.5 46.7002 44.6 46.8002 44.7L47.0002 44.9L47.2002 44.7C48.3002 43.3 49.0002 41.7 49.2002 39.9V39.6H48.9002C48.5002 39.6 48.2002 39.3 48.1002 38.9C48.1002 38.5 48.4002 38.1 48.8002 38.1H49.1002L49.2002 37.8C49.0002 36.1 48.3002 34.4 47.2002 33L47.0002 32.8L46.8002 33.2C46.7002 33.4 46.4002 33.5 46.2002 33.5C46.1002 33.5 46.1002 33.5 46.0002 33.5C45.7002 33.4 45.5002 33.2 45.4002 32.9C45.3002 32.6 45.4002 32.3 45.7002 32.1L45.9002 31.9L45.7002 31.7C44.3002 30.6 42.7002 29.9 40.9002 29.7H40.6002V30C40.6002 30.4 40.3002 30.7 39.8002 30.7C39.3002 30.7 39.2002 30.4 39.2002 30V29.7H38.9002C37.2002 29.9 35.5002 30.6 34.1002 31.7L33.9002 31.9L34.1002 32.1C34.3002 32.3 34.4002 32.6 34.4002 32.9C34.3002 33.2 34.1002 33.4 33.8002 33.5C33.7002 33.5 33.7002 33.5 33.6002 33.5C33.4002 33.5 33.2002 33.4 33.0002 33.2L32.8002 33L32.7002 33.2C31.6002 34.6 30.9002 36.2 30.7002 38V38.3H31.0002C31.4002 38.3 31.7002 38.6 31.7002 39.1C31.7002 39.6 31.4002 39.8 31.0002 39.9H30.7002V40.2C30.9002 41.9 31.6002 43.6 32.7002 45L32.9002 45.2L33.1002 45C33.2002 44.9 33.4002 44.8 33.5002 44.8C33.9002 44.8 34.1002 45 34.3002 45.2C34.4002 45.5 34.4002 45.8 34.2002 46L34.0002 46.2H34.2002C35.6002 47.3 37.2002 48 39.0002 48.2H39.3002V47.9C39.3002 47.5 39.5002 47.2 39.9002 47.2C39.8002 47.2 39.9002 47.2 40.0002 47.2ZM40.0002 43.7C37.4002 43.7 35.2002 41.6 35.2002 38.9C35.2002 36.2 37.3002 34.1 40.0002 34.1C42.7002 34.1 44.8002 36.2 44.8002 38.9C44.8002 41.6 42.6002 43.7 40.0002 43.7ZM40.0002 35.7C38.2002 35.7 36.8002 37.2 36.8002 38.9C36.8002 40.6 38.2002 42.2 40.0002 42.2C41.8002 42.2 43.2002 40.7 43.2002 39C43.2002 37.3 41.7002 35.7 40.0002 35.7Z" fill="#1FC1E8"/>
</svg>
