<svg width="47" height="46" viewBox="0 0 47 46" fill="none" xmlns="http://www.w3.org/2000/svg">
<path d="M31.7536 45.5C23.9536 45.5 17.5536 39.4 17.0536 31.7C17.0536 31.5 17.1536 31.3 17.2536 31.2C17.3536 31.1 17.5536 31 17.7536 30.9C18.1536 30.9 18.5536 31.2 18.5536 31.6C18.9536 38.5 24.7536 44 31.7536 44C39.0536 44 44.9536 38.1 44.9536 30.8C44.9536 23.8 39.4536 18 32.5536 17.6H32.4536C32.0536 17.6 31.7536 17.3 31.6536 16.9C31.6536 16.7 31.6536 16.5 31.8536 16.3C31.9536 16.1 32.1536 16 32.3536 16H32.5536C40.3536 16.5 46.4536 22.9 46.4536 30.7C46.4536 38.9 39.8536 45.5 31.7536 45.5ZM2.75355 44.5C2.35355 44.5 1.95355 44.2 1.95355 43.7C1.95355 43.2 2.25355 43 2.75355 43C3.25355 43 3.55355 43.3 3.55355 43.8C3.55355 44.3 3.15355 44.5 2.75355 44.5ZM5.75355 41.5C5.35355 41.5 4.95355 41.2 4.95355 40.7C4.95355 40.2 5.25355 40 5.75355 40C6.25355 40 6.55355 40.3 6.55355 40.8C6.55355 41.3 6.15355 41.5 5.75355 41.5ZM8.75355 38.5C8.35355 38.5 7.95355 38.2 7.95355 37.7C7.95355 37.2 8.25355 37 8.75355 37C9.25355 37 9.55355 37.3 9.55355 37.8C9.55355 38.3 9.15355 38.5 8.75355 38.5ZM30.9536 36.4V29.1H28.1536V27.9C29.9536 27.8 31.0536 26.4 31.3536 25.7H32.7536V36.4H30.9536ZM11.7536 35.5C11.3536 35.5 10.9536 35.2 10.9536 34.7C10.9536 34.2 11.2536 33.9 11.7536 33.9C12.2536 33.9 12.5536 34.2 12.5536 34.7C12.5536 35.2 12.1536 35.5 11.7536 35.5ZM14.7536 32.5C14.3536 32.5 13.9536 32.2 13.9536 31.7C13.9536 31.2 14.2536 30.9 14.7536 30.9C15.2536 30.9 15.5536 31.2 15.5536 31.7C15.5536 32.2 15.1536 32.5 14.7536 32.5ZM17.7536 29.5C17.3536 29.5 16.9536 29.2 16.9536 28.7C16.9536 28.2 17.2536 27.9 17.7536 27.9C18.2536 27.9 18.5536 28.2 18.5536 28.7C18.5536 29.2 18.1536 29.5 17.7536 29.5ZM14.7536 29.5C7.05355 29 0.953552 22.5 0.953552 14.8C0.953552 6.6 7.55355 0 15.7536 0C23.4536 0 29.9536 6.1 30.4536 13.8C30.4536 14 30.3536 14.2 30.2536 14.3C30.1536 14.4 29.9536 14.5 29.7536 14.6C29.3536 14.6 28.9536 14.3 28.9536 13.9C28.4536 7 22.6536 1.5 15.7536 1.5C8.35355 1.5 2.45355 7.4 2.45355 14.8C2.45355 21.8 7.95355 27.6 14.8536 28C15.2536 28 15.5536 28.4 15.5536 28.8C15.5536 29.2 15.2536 29.5 14.7536 29.5ZM20.7536 26.5C20.3536 26.5 19.9536 26.2 19.9536 25.7C19.9536 25.2 20.2536 24.9 20.7536 24.9C21.2536 24.9 21.5536 25.2 21.5536 25.7C21.5536 26.2 21.1536 26.5 20.7536 26.5ZM23.7536 23.5C23.3536 23.5 22.9536 23.2 22.9536 22.7C22.9536 22.2 23.2536 21.9 23.7536 21.9C24.2536 21.9 24.5536 22.2 24.5536 22.7C24.5536 23.2 24.1536 23.5 23.7536 23.5ZM26.7536 20.5C26.3536 20.5 25.9536 20.2 25.9536 19.7C25.9536 19.2 26.2536 18.9 26.7536 18.9C27.2536 18.9 27.5536 19.2 27.5536 19.7C27.5536 20.2 27.1536 20.5 26.7536 20.5ZM15.5536 20C14.2536 20 13.2536 19.6 12.5536 18.9C11.8536 18.2 11.6536 17.4 11.6536 16.9H13.4536C13.6536 17.6 14.1536 18.6 15.5536 18.6C17.1536 18.6 17.7536 17.1 17.7536 16.2C17.7536 13.9 15.7536 13.9 15.5536 13.9C14.4536 13.9 13.9536 14.5 13.7536 14.8H12.1536L13.1536 9.1H18.9536V10.5H14.3536L13.8536 13.4L14.1536 13.7L14.3536 13.6C14.6536 13.3 15.1536 12.8 16.3536 12.8C19.5536 12.8 19.5536 16.2 19.5536 16.4C19.4536 17.7 18.4536 20 15.5536 20ZM29.7536 17.5C29.3536 17.5 28.9536 17.2 28.9536 16.7C28.9536 16.2 29.2536 15.9 29.7536 15.9C30.2536 15.9 30.5536 16.2 30.5536 16.7C30.5536 17.2 30.1536 17.5 29.7536 17.5ZM32.7536 14.5C32.3536 14.5 31.9536 14.2 31.9536 13.7C31.9536 13.2 32.2536 12.9 32.7536 12.9C33.2536 12.9 33.5536 13.2 33.5536 13.7C33.5536 14.2 33.1536 14.5 32.7536 14.5ZM35.7536 11.5C35.3535 11.5 34.9536 11.2 34.9536 10.7C34.9536 10.2 35.2536 9.9 35.7536 9.9C36.2536 9.9 36.5536 10.2 36.5536 10.7C36.5536 11.2 36.1536 11.5 35.7536 11.5ZM38.7536 8.5C38.3535 8.5 37.9536 8.2 37.9536 7.7C37.9536 7.2 38.2536 7 38.7536 7C39.2536 7 39.5536 7.3 39.5536 7.8C39.5536 8.3 39.1536 8.5 38.7536 8.5ZM41.7536 5.5C41.3535 5.5 40.9536 5.2 40.9536 4.7C40.9536 4.2 41.2536 4 41.7536 4C42.2536 4 42.5536 4.3 42.5536 4.8C42.5536 5.3 42.1536 5.5 41.7536 5.5ZM44.7536 2.5C44.3535 2.5 43.9536 2.2 43.9536 1.7C43.9536 1.2 44.2536 1 44.7536 1C45.2536 1 45.5536 1.3 45.5536 1.8C45.5536 2.3 45.1536 2.5 44.7536 2.5Z" fill="#01CDFD"/>
</svg>
