<svg width="20" height="24" viewBox="0 0 20 24" fill="none" xmlns="http://www.w3.org/2000/svg">
<path d="M10.9817 0.868269L10.9818 0.868267C11.1579 0.863195 11.3314 0.911413 11.4797 1.00661C11.628 1.10181 11.7441 1.23955 11.8128 1.40182C11.8815 1.56408 11.8996 1.7433 11.8647 1.91603C11.83 2.08847 11.744 2.24642 11.6181 2.36927C11.6179 2.36947 11.6177 2.36967 11.6175 2.36987L11.0463 2.94103C15.5856 3.46233 19.125 7.3233 19.125 12.0001C19.125 15.0775 17.5921 17.8032 15.2547 19.4537C15.1608 19.52 15.0548 19.5672 14.9427 19.5925C14.8306 19.6178 14.7146 19.6208 14.6013 19.6013C14.4881 19.5818 14.3798 19.5401 14.2826 19.4788C14.1854 19.4174 14.1013 19.3375 14.035 19.2436C13.9687 19.1497 13.9216 19.0437 13.8963 18.9316C13.871 18.8194 13.868 18.7034 13.8875 18.5902C13.9071 18.4769 13.9487 18.3686 14.0101 18.2715C14.0715 18.1743 14.1514 18.0902 14.2453 18.0239M10.9817 0.868269L14.3174 18.126M10.9817 0.868269C10.7548 0.874883 10.5393 0.969437 10.3808 1.13194M10.9817 0.868269L10.3808 1.13194M14.2453 18.0239L14.3174 18.126M14.2453 18.0239C14.2453 18.0239 14.2453 18.0239 14.2453 18.0239L14.3174 18.126M14.2453 18.0239C16.138 16.6874 17.375 14.4955 17.375 12.0001C17.375 8.13803 14.4253 4.99113 10.6501 4.66284M14.3174 18.126C16.2416 16.7672 17.5 14.538 17.5 12.0001C17.5 8.02254 14.4232 4.79093 10.5143 4.52698L10.6501 4.66284M10.6501 4.66284L11.6178 5.63054M10.6501 4.66284C10.5867 4.65733 10.5231 4.65261 10.4592 4.6487L11.5303 5.71978M11.6178 5.63054L11.6187 5.63139L11.5303 5.71978M11.6178 5.63054C11.6175 5.63023 11.6172 5.62992 11.6168 5.62961L11.5303 5.71978M11.6178 5.63054L11.5303 5.71978M11.8687 20.6187L11.8687 20.6187L11.7015 20.7859C11.657 20.843 11.6056 20.8944 11.5485 20.9389L9.62044 22.8669C9.62013 22.8672 9.61982 22.8675 9.61951 22.8679C9.53907 22.9514 9.44283 23.0181 9.33638 23.0641C9.22952 23.1103 9.11452 23.1347 8.99811 23.1359C8.8817 23.137 8.76623 23.115 8.65845 23.071C8.55068 23.027 8.45276 22.9619 8.37045 22.8796C8.28813 22.7973 8.22306 22.6994 8.17906 22.5916C8.13506 22.4838 8.113 22.3683 8.11419 22.2519C8.11537 22.1355 8.13977 22.0205 8.18595 21.9137C8.23197 21.8072 8.29869 21.711 8.38222 21.6305C8.38253 21.6302 8.38284 21.6299 8.38315 21.6296L8.95365 21.0591C4.41436 20.5378 0.875 16.6768 0.875 12.0001C0.875 8.92285 2.4076 6.19743 4.74463 4.54684C4.90394 4.43136 5.09753 4.37293 5.29414 4.38101C5.29416 4.38101 5.29418 4.38102 5.2942 4.38102L5.28906 4.50591C5.44649 4.51232 5.5979 4.56813 5.72182 4.66544C5.84574 4.76274 5.93586 4.8966 5.97942 5.04801C6.02297 5.19943 6.01774 5.36072 5.96447 5.50899C5.91119 5.65727 5.81258 5.785 5.68262 5.87407L11.8687 20.6187ZM11.8687 20.6187C12.0327 20.4546 12.1249 20.2321 12.1249 20.0001C12.1249 19.768 12.0327 19.5455 11.8687 19.3814L11.8687 19.3814L9.61995 17.1327C9.61974 17.1325 9.61953 17.1323 9.61932 17.132C9.53789 17.0484 9.44053 16.9818 9.33298 16.9363C9.22515 16.8907 9.10927 16.8672 8.99219 16.8672H8.99216C8.81802 16.8673 8.64786 16.9193 8.50344 17.0166C8.35902 17.1139 8.24691 17.252 8.18146 17.4134C8.11601 17.5748 8.10019 17.752 8.13603 17.9224C8.17179 18.0925 8.2574 18.2481 8.38192 18.3693C8.38215 18.3695 8.38239 18.3698 8.38263 18.37L9.34988 19.3373C5.57471 19.009 2.625 15.8621 2.625 12.0001C2.625 9.50494 3.86173 7.31323 5.75404 5.97666L11.8687 20.6187ZM10.3808 1.13194C10.3806 1.13216 10.3804 1.13237 10.3802 1.13259M10.3808 1.13194L10.3802 1.13259M10.3802 1.13259L8.45149 3.06124C8.39436 3.10571 8.34297 3.1571 8.29849 3.21423L10.3802 1.13259ZM10.3805 6.86785L10.3813 6.86871L10.4697 6.78032L10.3796 6.8669C10.3799 6.86722 10.3802 6.86754 10.3805 6.86785ZM10.933 3.05439C10.8793 3.04882 10.8255 3.04373 10.7715 3.03911L10.8865 2.92409L10.933 3.05439Z" fill="#1B1B1B" stroke="#1B1B1B" stroke-width="0.25"/>
</svg>
