<svg width="9" height="9" viewBox="0 0 9 9" fill="blue" xmlns="http://www.w3.org/2000/svg">
<path fill-rule="evenodd" clip-rule="evenodd" d="M0.620692 3.91559C2.95285 2.8995 4.508 2.22964 5.28611 1.90599C7.5078 0.981919 7.96945 0.821397 8.27034 0.816097C8.33652 0.814931 8.48449 0.831332 8.58034 0.909107C8.66128 0.974779 8.68354 1.06349 8.6942 1.12576C8.70486 1.18802 8.71812 1.32986 8.70758 1.44069C8.58718 2.70568 8.06624 5.77547 7.80121 7.19228C7.68907 7.79178 7.46826 7.99279 7.25449 8.01246C6.78991 8.05521 6.43714 7.70544 5.98717 7.41048C5.28307 6.94894 4.88529 6.66162 4.20184 6.21123C3.41199 5.69073 3.92402 5.40466 4.37415 4.93713C4.49195 4.81478 6.53888 2.95294 6.5785 2.78404C6.58345 2.76292 6.58805 2.68418 6.54127 2.6426C6.4945 2.60103 6.42546 2.61525 6.37564 2.62655C6.30502 2.64258 5.1802 3.38604 3.00119 4.85693C2.68192 5.07617 2.39273 5.18299 2.13362 5.1774C1.84798 5.17122 1.29852 5.01589 0.890055 4.88311C0.389055 4.72026 -0.00913076 4.63416 0.0255422 4.35758C0.0436021 4.21352 0.241985 4.06619 0.620692 3.91559Z" fill="white"/>
</svg>
