<svg width="50" height="50" viewBox="0 0 50 50" fill="none" xmlns="http://www.w3.org/2000/svg">
<path d="M24.8 47.5C16.6 47.5 12 46.7 8.9 45C5.6 43.1 4 39.8 4 34.8C4 31.1 5.6 27.1 8.4 23.6C10.9 20.4 14 18.2 17.2 17.2L17.4 17.1V16.9C17.5 14.6 16.7 12.9 16.1 11.9C15.4 10.7 14.6 10 14.1 9.5L13.8 9.4C13.4 9 13.1 8.6 12.9 8.3C12.6 7.8 12.5 7.3 12.6 6.8L12.7 6.5C12.9 6.1 13.3 5.7 13.9 5.5C14.5 5.3 15.3 5.2 16.4 5.2C17.4 5.2 18.3 5.2 18.9 5C19.5 4.9 20 4.7 20.4 4.1C20.9 3.4 21.3 2.9 21.8 2.6C22.2 2.2 22.8 2 23.4 2C24.7 2 25.7 2.9 27 4.2C27.3 4.5 27.7 4.7 28.1 4.7C28.3 4.7 28.6 4.7 29 4.6C29.3 4.5 29.6 4.5 29.9 4.4C30.6 4.2 31.4 4 32.2 4C32.7 4 33.4 4.1 33.7 4.6C34.1 5 34.1 5.5 34 6C33.8 6.8 33.4 7.5 33 8L32.9 8.2C32.8 8.3 30.4 11.3 30.7 15.3V15.7L31.1 15.5C32.3 14.7 34.8 13 37.7 13C39.1 13 40.4 13.4 41.6 14.1C42 14.3 42.1 14.8 41.9 15.1C41.8 15.3 41.5 15.5 41.2 15.5C41.1 15.5 40.9 15.5 40.8 15.4C39.7 14.8 38.5 14.5 37.4 14.5C36.5 14.5 35.6 14.7 34.7 15.1L34.8 15.6C37.2 15.7 39.2 16.6 40.7 18.3C41 18.6 41 19.1 40.7 19.4C40.6 19.5 40.4 19.6 40.2 19.6C40 19.6 39.8 19.5 39.7 19.4C38.3 17.9 36.6 17.2 34.5 17.1H34.3C33.9 17.1 33.5 17.1 33 17.2L32.1 17.3L32.9 17.7C39 20.4 45.5 26.9 45.5 35C45.5 40 43.9 43.3 40.6 45.1C37.5 46.7 32.9 47.5 24.8 47.5ZM18.2 18.4C15.3 19.1 12 21.4 9.6 24.5C7 27.8 5.5 31.5 5.5 34.8C5.5 39.4 6.7 42 9.6 43.6C12.4 45.2 17.1 45.9 24.7 45.9C32.3 45.9 37 45.2 39.8 43.6C42.7 41.9 43.9 39.4 43.9 34.8C43.9 27.1 36.7 19.9 29.9 17.9H29.8H29.7C27.7 18.9 25.6 19.4 23.5 19.4C21 19.4 19.2 18.7 18.2 18.3V18.4ZM17.7 11.9C18.5 13.5 18.9 15.1 18.9 16.9V17.1L19 17.2C19.8 17.6 21.3 18.1 23.5 18.1C25.4 18.1 27.2 17.7 29 16.8L29.2 16.7V16.5C28.9 14.5 29.1 12.4 30 10.3L29.6 10L29.5 10.1C29.4 10.2 29.4 10.2 29.3 10.3C28.6 11 27.7 11.4 26.9 11.5C26.8 11.5 26.7 11.5 26.5 11.5C25.6 11.5 24.8 11.1 24.3 10.5C23.9 10 23.5 9.6 23.2 9.4C23 9.3 22.9 9.2 22.7 9.2H22.6C22.1 9.3 21.1 10.2 20.7 10.6C20.1 11.2 19.3 11.5 18.4 11.5C18.3 11.5 18.2 11.5 18 11.5H17.5L17.7 11.9ZM16.3 6.7C15.6 6.7 15.1 6.8 14.6 6.9L14.2 7L14.4 7.3C15.3 8.6 16.3 9.5 17.2 9.9C17.6 10.1 18 10.2 18.3 10.2C18.8 10.2 19.2 10 19.6 9.7L19.8 9.5C20.6 8.7 21.3 8.1 22.3 7.9C22.4 7.9 22.5 7.9 22.6 7.9C23 7.9 23.5 8 23.9 8.3C24.4 8.6 24.8 9 25.4 9.7C25.7 9.9 26 10 26.4 10C26.5 10 26.6 10 26.7 10C27.2 9.9 27.8 9.6 28.3 9.2C29 8.5 29.8 8 30.3 7.5C30.6 7.2 30.9 7 31.2 6.8C31.5 6.5 31.8 6.3 31.9 6.1C32 5.9 32 5.9 32 5.7V5.5H31.8C31.4 5.6 31 5.6 30.6 5.7C30.1 5.9 29.7 6 29.3 6C28.9 6.1 28.6 6.1 28.2 6.1C27.2 6.1 26.5 5.8 25.9 5.2C24.8 4.1 23.9 3.5 23.4 3.4C23.1 3.4 22.9 3.5 22.6 3.7C22.3 4 21.9 4.4 21.6 5C20.9 6 19.9 6.4 19.2 6.5C18.4 6.7 17.6 6.7 16.7 6.7H16.3Z" fill="#31C5F4"/>
<path fill-rule="evenodd" clip-rule="evenodd" d="M28.7 39.6C25 39.6 21.9 36.6 21.9 32.8C21.9 29 24.9 26 28.7 26C32.5 26 35.5 29 35.5 32.8C35.5 36.6 32.5 39.6 28.7 39.6ZM28.7 27.6C25.8 27.6 23.5 30 23.5 32.8C23.5 35.6 25.9 38 28.7 38C31.5 38 33.9 35.6 33.9 32.8C33.9 30 31.6 27.6 28.7 27.6Z" fill="#31C5F4"/>
<path fill-rule="evenodd" clip-rule="evenodd" d="M20.7 39.6C17 39.6 13.9 36.6 13.9 32.8C13.9 29 16.9 26 20.7 26C24.5 26 27.5 29 27.5 32.8C27.5 36.6 24.5 39.6 20.7 39.6ZM20.7 27.6C17.8 27.6 15.5 30 15.5 32.8C15.5 35.6 17.9 38 20.7 38C23.5 38 25.9 35.6 25.9 32.8C25.9 30 23.6 27.6 20.7 27.6Z" fill="#31C5F4"/>
</svg>
