<svg width="48" height="48" viewBox="0 0 48 48" fill="none" xmlns="http://www.w3.org/2000/svg">
<path d="M23.8 47.5C10.7 47.5 0 36.8 0 23.8C0 10.8 10.7 0 23.8 0C36.9 0 47.6 10.7 47.6 23.8C47.6 36.9 36.8 47.5 23.8 47.5ZM21.5 45.9H21.7C22.4 46 23.1 46 23.7 46C24.3 46 25 46 25.7 45.9H25.9V38.3H25.6C24.9 38.4 24.2 38.4 23.6 38.4C23 38.4 22.4 38.4 21.6 38.3H21.3V45.9H21.5ZM6.6 38L6.8 38.2C10.1 42.1 14.7 44.7 19.7 45.6L20 45.7V38L19.8 37.9C17.4 37.2 15.2 36 13.4 34.2L13.3 34.1L6.6 38ZM34.1 34.2C32.3 36 30.1 37.2 27.7 37.9L27.5 38V45.7L27.8 45.6C32.8 44.7 37.4 42 40.7 38.1L40.9 37.9L34.3 34L34.1 34.2ZM23.8 10.5C16.5 10.5 10.6 16.4 10.6 23.7C10.6 31 16.4 37 23.8 37C31.2 37 37 31.1 37 23.8C37 16.5 31.1 10.5 23.8 10.5ZM3.5 32.9L3.6 33.1C4.2 34.3 4.9 35.5 5.6 36.6L5.7 36.8L12.3 33L12.1 32.8C11.3 31.7 10.6 30.6 10.1 29.4L10 29.1L3.5 32.9ZM37.4 29.3C36.9 30.5 36.2 31.6 35.4 32.7L35.2 32.9L41.8 36.7L41.9 36.5C42.7 35.4 43.4 34.2 43.9 33L44 32.8L37.5 29L37.4 29.3ZM2.8 16.3C1.9 18.7 1.5 21.2 1.5 23.8C1.5 26.4 1.9 28.9 2.8 31.3L2.9 31.6L9.6 27.7V27.5C9.2 26.2 9 25 9 23.8C9 22.6 9.2 21.3 9.5 20.1V19.9L2.9 16L2.8 16.3ZM38 19.9V20.1C38.3 21.3 38.5 22.6 38.5 23.8C38.5 25 38.3 26.2 38 27.5V27.7L44.7 31.6L44.8 31.3C45.6 28.9 46.1 26.4 46.1 23.9C46.1 21.4 45.7 18.9 44.8 16.5L44.7 16.2L38 19.9ZM35.2 14.6L35.4 14.8C36.2 15.9 36.9 17 37.4 18.2L37.5 18.5L44.1 14.7L44 14.4C43.4 13.2 42.8 12 42 10.9L41.9 10.7L35.2 14.6ZM5.6 10.9C4.8 12 4.1 13.2 3.6 14.4L3.5 14.6L10 18.4L10.1 18.1C10.6 16.9 11.3 15.8 12.1 14.7L12.3 14.5L5.7 10.7L5.6 10.9ZM27.5 9.5L27.7 9.6C30.1 10.3 32.3 11.6 34.1 13.3L34.2 13.4L40.8 9.5L40.6 9.3C37.3 5.4 32.7 2.8 27.7 1.8L27.4 1.7V9.5H27.5ZM19.7 1.9C14.7 2.8 10.2 5.4 6.8 9.3L6.6 9.5L13.3 13.4L13.4 13.3C15.2 11.6 17.4 10.3 19.8 9.6L20 9.5V1.8L19.7 1.9ZM23.8 9C24.4 9 25 9 25.8 9.1H26.1V1.6H25.9C25.2 1.5 24.5 1.5 23.9 1.5C23.3 1.5 22.6 1.5 21.9 1.6H21.7V9.2H22C22.5 9 23.2 9 23.8 9Z" fill="#01CDFD"/>
</svg>
