<svg width="38" height="48" viewBox="0 0 38 48" fill="none" xmlns="http://www.w3.org/2000/svg">
<path d="M14.3 47.5C13.9 47.5 13.6 47.2 13.6 46.9L11.7 37.5H11.3C10.9 37.5 10.5 37.2 10.5 36.7V32.7C10.5 32.3 10.8 31.9 11.3 31.9H20.6L20.5 31.6C20.2 30.4 19 26.5 14.9 24.3C13.4 23.5 11.7 23.1 9.9 23.1C9.1 23.1 8.2 23.2 7.4 23.4C7.3 23.4 7.3 23.4 7.2 23.4C6.8 23.4 6.5 23.1 6.5 22.8C6.4 22.4 6.7 22 7.1 21.9C8 21.7 8.9 21.6 9.9 21.6C11.3 21.6 12.7 21.8 13.9 22.3L14.3 22.4L14.2 22C13.8 20.2 12.2 18.8 10.8 18.3C10.3 18.1 9.7 18 9.1 18C6.5 18 3.6 19.8 1.7 22.7L1.6 22.8L1.8 23C3.8 25.9 6.6 27.6 9.2 27.6C9.8 27.6 10.4 27.5 10.9 27.3C11.5 27.1 12.2 26.6 12.7 26.1C12.8 26 13 25.9 13.2 25.9C13.4 25.9 13.6 26 13.7 26.1C13.8 26.2 13.9 26.4 13.9 26.6C13.9 26.8 13.8 27 13.7 27.1C13 27.7 12.2 28.3 11.4 28.6C10.7 28.9 9.9 29 9 29C5.7 29 2.2 26.7 0 23.1C0 23 0 22.8 0.1 22.5C2.1 19.1 5.3 16.8 8.5 16.5C8.7 16.5 8.9 16.5 9.1 16.5C9.9 16.5 10.7 16.6 11.4 16.9C13.6 17.7 15.8 19.9 15.8 22.8C15.8 22.9 15.8 22.9 15.8 23V23.2L16 23.3C17.7 24.2 19 25.5 20.1 27.3L20.6 28V19.6L20.4 19.5C15.5 19 11.6 14.7 11.6 9.8C11.6 4.4 16 0 21.4 0C26.8 0 31 4.4 31 9.8C31 14.7 27.1 19 22.2 19.5H22V19.7V28.3L22.5 27.7C22.9 27.2 23.3 26.7 23.8 26.2C24.2 25.9 24.5 25.5 25 25.2L25.1 25.1V25C25 22.9 26.2 21.3 27.4 20.4C28 20 28.8 19.7 29.6 19.5C29.9 19.4 30.3 19.4 30.7 19.4C32.9 19.4 35.3 20.5 37.2 22.3C37.4 22.5 37.5 22.8 37.4 23.1C36.3 26.9 33.4 29.5 30.4 29.5C30.2 29.5 30 29.5 29.8 29.5C29.2 29.4 28.6 29.2 28 29C27.8 28.9 27.7 28.8 27.6 28.6C27.5 28.4 27.5 28.2 27.6 28C27.7 27.7 28 27.6 28.3 27.6C28.4 27.6 28.5 27.6 28.6 27.7C29 27.9 29.5 28.1 29.9 28.1C30 28.1 30.1 28.1 30.2 28.1C32.3 28.1 34.5 26.2 35.5 23.4L35.6 23.2L35.5 23C34 21.7 32.2 21 30.5 21C29.6 21 28.8 21.2 28.2 21.6C27.6 22 27 22.8 26.7 23.6L26.5 24.2L27 24C28.2 23.4 29.3 23.2 30 23.1H30.1C30.5 23.1 30.8 23.4 30.8 23.7C30.8 23.9 30.8 24.1 30.7 24.3C30.6 24.5 30.4 24.6 30.2 24.6C29 24.8 26.6 25.4 24.6 27.4C23.3 28.6 22.4 30.1 21.9 31.8L22 32H31.3C31.7 32 32 32.3 32 32.8V36.8C32 37.2 31.7 37.6 31.3 37.6H30.9L29 46.9C28.9 47.2 28.6 47.5 28.3 47.5H14.3ZM14.9 46H27.7L29.4 37.5H13.2L14.9 46ZM12 36H30.5V33.5H12V36ZM21.3 1.5C16.8 1.5 13.1 5.2 13.1 9.7C13.1 14.2 16.8 17.9 21.3 17.9C25.8 17.9 29.5 14.2 29.5 9.7C29.5 5.2 25.8 1.5 21.3 1.5Z" fill="#01CDFD"/>
</svg>
