<svg width="12" height="10" viewBox="0 0 12 10" fill="none" xmlns="http://www.w3.org/2000/svg">
<path d="M3.77376 10C8.30208 10 10.7789 6.15237 10.7789 2.81572C10.7789 2.70644 10.7789 2.59764 10.7717 2.48934C11.2535 2.13191 11.6695 1.68933 12 1.18235C11.5507 1.38664 11.074 1.52056 10.5859 1.57962C11.0999 1.26409 11.4846 0.767762 11.6683 0.183028C11.185 0.477168 10.6563 0.684446 10.105 0.795912C9.73376 0.391106 9.24281 0.123053 8.7081 0.0332352C8.17338 -0.0565831 7.62471 0.0368402 7.14698 0.299048C6.66926 0.561256 6.28911 0.977631 6.06537 1.48374C5.84163 1.98985 5.78677 2.55747 5.90928 3.09878C4.93045 3.04842 3.97288 2.78753 3.09873 2.33305C2.22458 1.87856 1.45338 1.24063 0.8352 0.460672C0.520364 1.01653 0.423936 1.67456 0.56555 2.30077C0.707163 2.92698 1.07617 3.4743 1.59744 3.83129C1.20562 3.81951 0.822324 3.71111 0.48 3.51525V3.54724C0.480156 4.13021 0.676926 4.69517 1.03694 5.1463C1.39695 5.59744 1.89803 5.90697 2.4552 6.02241C2.09274 6.12381 1.71244 6.13862 1.34352 6.06573C1.50091 6.5674 1.80721 7.0061 2.21962 7.32049C2.63202 7.63488 3.12991 7.80925 3.64368 7.81922C3.13322 8.23072 2.54866 8.53496 1.92344 8.71454C1.29822 8.89413 0.644607 8.94552 0 8.8658C1.12592 9.60678 2.43596 9.99983 3.77376 9.99803" fill="#1DA1F2"/>
</svg>
