<svg width="80" height="80" viewBox="0 0 80 80" fill="none" xmlns="http://www.w3.org/2000/svg">
<circle cx="40" cy="40" r="40" fill="#1B1B1B"/>
<path d="M22 62.7002C20.5 62.7002 19.2 61.5002 19.2 59.9002V49.9002C19.2 48.4002 20.4 47.2002 22 47.2002H25.2V41.0002C25.2 40.8002 25.3 40.6002 25.4 40.5002C25.6 40.3002 25.7 40.2002 25.9 40.2002C26 40.2002 26.1 40.2002 26.2 40.2002C26.3 40.2002 26.4 40.3002 26.4 40.4002C26.5 40.5002 26.5 40.6002 26.6 40.6002C26.6 40.7002 26.7 40.8002 26.7 40.9002V47.2002H31.9C33.4 47.2002 34.7 48.4002 34.7 50.0002V54.2002H38C38.1 54.2002 38.2 54.2002 38.3 54.3002C38.4 54.3002 38.5 54.4002 38.5 54.5002C38.6 54.6002 38.6 54.7002 38.7 54.7002C38.7 54.8002 38.8 54.9002 38.8 55.0002C38.8 55.1002 38.8 55.2002 38.7 55.3002C38.7 55.4002 38.6 55.5002 38.5 55.5002C38.4 55.6002 38.3 55.6002 38.3 55.7002C38.2 55.7002 38.1 55.8002 38 55.8002H34.7V60.0002C34.7 61.5002 33.5 62.8002 31.9 62.8002H22V62.7002ZM22 48.7002C21.3 48.7002 20.8 49.2002 20.8 49.9002V59.9002C20.7 60.7002 21.2 61.2002 22 61.2002H32C32.7 61.2002 33.2 60.7002 33.2 60.0002V50.0002C33.2 49.3002 32.7 48.8002 32 48.8002H22V48.7002ZM50 61.7002C48.5 61.7002 47.2 60.5002 47.2 58.9002V55.7002H41.9C41.8 55.7002 41.7 55.7002 41.6 55.6002C41.5 55.6002 41.4 55.5002 41.4 55.4002C41.3 55.3002 41.3 55.2002 41.2 55.2002C41.2 55.1002 41.1 55.0002 41.1 54.9002C41.1 54.8002 41.1 54.7002 41.2 54.6002C41.2 54.5002 41.3 54.4002 41.4 54.4002C41.5 54.3002 41.6 54.3002 41.6 54.2002C41.7 54.2002 41.8 54.1002 41.9 54.1002H47.2V48.9002C47.2 47.4002 48.4 46.1002 50 46.1002H54.2V43.9002C54.2 43.7002 54.3 43.5002 54.4 43.4002C54.5 43.3002 54.7 43.2002 54.9 43.2002C55 43.2002 55.1 43.2002 55.2 43.3002C55.2999 43.3002 55.4 43.4002 55.4 43.5002C55.5 43.6002 55.5 43.7002 55.6 43.7002C55.6 43.8002 55.7 43.9002 55.7 44.0002V46.2002H59.9C61.4 46.2002 62.7 47.4002 62.7 49.0002V59.0002C62.7 60.5002 61.5 61.8002 59.9 61.8002H50V61.7002ZM50 47.7002C49.2999 47.7002 48.8 48.2002 48.8 48.9002V54.7002C48.8 54.8002 48.8 54.9002 48.8 55.0002V58.9002C48.8 59.6002 49.2999 60.1002 50 60.1002H60C60.7 60.1002 61.2 59.6002 61.2 58.9002V48.9002C61.2 48.2002 60.7 47.7002 60 47.7002H55.2C55.1 47.7002 55.0999 47.7002 55 47.7002C54.9 47.7002 54.9 47.7002 54.9 47.7002H50ZM55 40.7002C54.9 40.7002 54.7999 40.7002 54.7 40.6002C54.6 40.6002 54.5 40.5002 54.5 40.4002C54.4 40.3002 54.3999 40.2002 54.2999 40.2002C54.2999 40.1002 54.2 40.0002 54.2 39.9002V34.6002H50C48.5 34.6002 47.2 33.4002 47.2 31.8002V27.7002H43.9C43.8 27.7002 43.7 27.7002 43.6 27.6002C43.5 27.6002 43.4 27.5002 43.4 27.4002C43.3 27.4002 43.3 27.3002 43.2 27.2002C43.2 27.1002 43.2 27.0002 43.2 27.0002C43.2 26.9002 43.2 26.8002 43.3 26.7002C43.3 26.6002 43.4 26.5002 43.5 26.5002C43.6 26.4002 43.7 26.4002 43.7 26.3002C43.7 26.2002 43.8 26.2002 43.9 26.2002H47.2V22.0002C47.2 20.4002 48.4 19.2002 50 19.2002H60C61.5 19.2002 62.7999 20.4002 62.7999 22.0002V32.0002C62.7999 33.5002 61.5999 34.8002 60 34.8002H55.7999V40.0002C55.7999 40.1002 55.7999 40.2002 55.7 40.3002C55.7 40.4002 55.5999 40.5002 55.5 40.5002C55.4 40.6002 55.2999 40.6002 55.2999 40.7002C55.0999 40.7002 55 40.7002 55 40.7002ZM54.9 33.2002H55H59.9C60.6 33.2002 61.1 32.7002 61.1 32.0002V22.0002C61.1 21.3002 60.6 20.8002 59.9 20.8002H49.9C49.2 20.8002 48.7 21.3002 48.7 22.0002V32.0002C48.7 32.7002 49.2 33.2002 49.9 33.2002H54.7C54.9 33.2002 54.9 33.2002 54.9 33.2002ZM26 37.7002C25.9 37.7002 25.8 37.7002 25.7 37.6002C25.6 37.6002 25.5 37.5002 25.5 37.4002C25.4 37.3002 25.4 37.2002 25.3 37.2002C25.2 37.2002 25.2 37.1002 25.2 37.0002V34.7002H22C20.5 34.7002 19.2 33.5002 19.2 31.9002V21.9002C19.2 20.4002 20.4 19.2002 22 19.2002H32C33.5 19.2002 34.8 20.4002 34.8 22.0002V26.2002H40C40.1 26.2002 40.2 26.2002 40.2 26.3002C40.3 26.3002 40.4 26.4002 40.4 26.5002C40.5 26.6002 40.5 26.7002 40.6 26.7002C40.6 26.8002 40.7 26.9002 40.7 27.0002C40.7 27.1002 40.7 27.2002 40.6 27.3002C40.6 27.4002 40.5 27.5002 40.4 27.5002C40.3 27.6002 40.2 27.6002 40.2 27.7002C40.1 27.7002 40 27.8002 39.9 27.8002H34.6V32.0002C34.6 33.5002 33.4 34.8002 31.8 34.8002H26.7V37.0002C26.7 37.1002 26.7 37.2002 26.6 37.3002C26.6 37.4002 26.5 37.5002 26.4 37.5002C26.3 37.6002 26.2 37.6002 26.2 37.7002C26.1 37.7002 26 37.7002 26 37.7002ZM25.9 33.2002H26H31.9C32.6 33.2002 33.1 32.7002 33.1 32.0002V27.1002C33.1 27.0002 33.1 26.9002 33.1 26.8002V21.9002C33.1 21.2002 32.6 20.7002 31.9 20.7002H21.9C21.2 20.7002 20.7 21.2002 20.7 22.0002V32.0002C20.7 32.7002 21.2 33.2002 22 33.2002H25.8C25.9 33.2002 25.9 33.2002 25.9 33.2002Z" fill="#01CDFD"/>
</svg>
