<svg width="50" height="26" viewBox="0 0 50 26" fill="none" xmlns="http://www.w3.org/2000/svg">
<path d="M0.7 25.5C0.5 25.5 0.2 25.4 0.1 25.2C0 25 0 24.7 0 24.5L3 16.5C3.1 16.2 3.3 16.1 3.6 16H3.7H8.2L11 8.5C11.1 8.2 11.4 8 11.7 8H16.3L19 0.5C19.1 0.2 19.3 0.1 19.6 0H19.7H29.7C30 0 30.3 0.2 30.4 0.5L33.3 8H37.8C38.1 8 38.4 8.2 38.5 8.5L41.3 16H45.8C46.1 16 46.4 16.2 46.5 16.5L49.5 24.5C49.6 24.7 49.6 25 49.4 25.2C49.2 25.4 49 25.5 48.8 25.5H0.7ZM33.8 24H47.6L45.2 17.5H36.2L33.8 24ZM17.8 24H31.6L29.2 17.5H20.2L17.8 24ZM1.8 24H15.6L13.2 17.5H4.2L1.8 24ZM32.7 22.6L34.6 17.5H30.8L32.7 22.6ZM16.7 22.6L18.6 17.5H14.8L16.7 22.6ZM25.8 16H39.6L37.2 9.5H28.2L25.8 16ZM9.8 16H23.6L21.2 9.5H12.2L9.8 16ZM24.7 14.6L26.6 9.5H22.8L24.7 14.6ZM17.8 8H31.6L29.2 1.5H20.2L17.8 8Z" fill="#01CDFD"/>
</svg>
