<svg width="46" height="43" viewBox="0 0 46 43" fill="none" xmlns="http://www.w3.org/2000/svg">
<path d="M14 43C13.7 43 13.4 42.9 13.1 42.8L10 41.7L9.8 41.6C8.5 41.1 7.9 39.7 8.4 38.4V38.3C8.4 38.3 9 37 9.3 36.1C9.4 35.9 9.4 35.7 9.3 35.6C9.2 35.5 9.2 35.4 9 35.3V35.2C7 33.7 3.8 30.4 3.7 26C3.6 24.3 3.8 22.7 4.1 21.2L4.2 21L4 20.9C3.4 20.7 2.9 20.4 2.3 20.1C1.6 19.6 0 18.3 0 16C0 14.2 0.9 12.7 2.4 12C2.5 12 2.6 11.9 2.7 11.9C3.1 11.9 3.4 12.1 3.5 12.5C3.6 12.9 3.4 13.2 3 13.4C2.1 13.8 1.5 14.8 1.5 16C1.5 17.6 2.3 18.3 3.1 18.8C3.5 19.1 3.9 19.3 4.3 19.4L4.5 19.5L4.6 19.3C5.5 17 6.8 15.2 8.6 13.8C12.4 10.9 16.9 9.4 22 9.4C23.6 9.4 25.3 9.6 27.4 10.1H27.6L27.7 9.9C29.2 7.1 31.6 5.2 34.8 4.4H34.9C34.9 4.4 34.9 4.4 35 4.4C35.3 4.4 35.5 4.5 35.6 4.7C35.8 4.9 35.8 5.2 35.7 5.4C34.7 8 34.2 9.7 34.2 11.9V12.1L34.4 12.2C39.6 14.4 40.7 19 41 20.3V20.4L41.1 20.5C41.2 20.5 41.3 20.6 41.6 20.6H43.2C44.5 20.6 45.6 21.7 45.6 23V27.9C45.6 29.2 44.5 30.3 43.2 30.3H41.6C41.3 30.3 41.1 30.4 41 30.5C40.9 30.6 40.8 30.8 40.7 31C39.5 33.5 37.7 35.4 35.3 36.7C35.2 36.7 35.2 36.8 35.1 36.8H34.7L34.9 37.1L35 37.2L35.5 38.5C35.7 39.1 35.7 39.8 35.4 40.4C35.1 41 34.6 41.5 34 41.7L33.8 41.8L30.7 42.9C30.5 43 30.2 43 30 43C29 43 28.1 42.4 27.7 41.5V41.4C27.6 41.1 27.3 40.4 27 39.7V39.6C27 39.5 27 39.5 26.9 39.4L26.8 39.3H26.5H26.4C26.2 39.3 26 39.3 25.8 39.4C25 39.5 23.8 39.6 22 39.6C20.1 39.6 18.8 39.3 18 39.2C17.8 39.2 17.7 39.1 17.6 39.1C17.5 39.1 17.5 39.1 17.5 39.1H17.4L17.3 39.2C17.2 39.3 17.2 39.3 17.1 39.5C16.7 40.4 16.3 41.6 16.3 41.6C16 42.4 15.1 43 14 43ZM29 40.9C29.1 41.3 29.5 41.5 29.9 41.5C30 41.5 30.1 41.5 30.2 41.4L33.4 40.2C33.6 40.1 33.8 39.9 33.9 39.7C34 39.5 34 39.2 33.9 38.9L33.5 37.9H33.6L33.4 37.5C33.3 37.4 33.2 37.1 33.2 36.7C33.2 36.2 33.6 35.5 34.3 35.1C36.4 34 37.9 32.3 39 30.1C39.1 29.8 39.3 29.4 39.7 29.1C40.1 28.7 40.7 28.5 41.3 28.5H42.9C43.4 28.5 43.8 28.1 43.8 27.6V22.7C43.8 22.2 43.4 21.8 42.9 21.8H41.3C40.2 21.8 39.4 21.2 39.2 20.4C38.9 18.7 37.8 14.7 32.9 13C32.6 12.9 32.4 12.6 32.4 12.3C32.4 10.4 32.8 8.8 33.4 6.8L33.6 6.3L33.1 6.5C31.5 7.2 29.7 8.3 28.5 10.9C28.4 11.2 28.1 11.3 27.8 11.3C27.7 11.3 27.7 11.3 27.6 11.3C25.7 10.8 23.8 10.6 21.8 10.6C16.9 10.6 12.8 11.9 9.3 14.7C6.3 17.1 4.8 20.8 5 25.6C5.3 30 8.6 33 10 34.1C10.2 34.2 10.5 34.5 10.7 34.8C11 35.3 11 35.9 10.8 36.5C10.7 36.9 10.4 37.7 9.9 38.8C9.8 39.1 9.8 39.4 9.9 39.6C10 39.8 10.2 40 10.4 40.1L13.6 41.3C13.7 41.3 13.8 41.4 13.9 41.4C14.3 41.4 14.7 41.1 14.8 40.8C14.8 40.8 15.2 39.7 15.6 38.8C15.8 38.3 16 37.9 16.4 37.6C16.6 37.5 16.9 37.4 17.2 37.4C17.4 37.4 17.6 37.4 17.8 37.5C18 37.5 18.1 37.6 18.3 37.6C19.1 37.8 20.1 38 21.9 38C23.5 38 24.6 37.9 25.4 37.8C25.7 37.8 26 37.7 26.2 37.7C26.3 37.7 26.4 37.7 26.6 37.7C27 37.7 27.2 37.8 27.5 37.9C27.9 38.2 28.1 38.6 28.2 39C28.6 39.9 28.9 40.7 29 40.9ZM34.2 23.9C33.3 23.9 32.5 23.1 32.5 22.2C32.5 21.3 33.2 20.5 34.2 20.5C35.2 20.5 35.9 21.2 35.9 22.2C35.9 23.1 35.1 23.9 34.2 23.9ZM9.6 10.2C9.2 9.3 9 8.2 9 7.2C9 3.2 12.3 0 16.2 0C20.1 0 23.3 3.1 23.4 7H22C21.9 3.9 19.3 1.5 16.3 1.5C13.1 1.5 10.5 4.1 10.5 7.3C10.5 8.1 10.7 8.9 11 9.6L9.6 10.2Z" fill="#01CDFD"/>
</svg>
