<svg width="42" height="46" viewBox="0 0 42 46" fill="none" xmlns="http://www.w3.org/2000/svg">
<path d="M20.8 45.5C12.7 45.5 8.1 44.8 4.9 43C1.6 41.1 0 37.8 0 32.8C0 29.1 1.6 25.2 4.4 21.6C6.9 18.4 10 16.1 13.2 15.2L13.4 15.1V14.9C13.5 12.6 12.7 10.9 12.1 9.9C11.4 8.7 10.6 8 10.1 7.5L9.8 7.4C9.4 7 9.1 6.6 8.8 6.3C8.5 5.8 8.4 5.3 8.5 4.8L8.6 4.7V4.6C8.8 4.1 9.3 3.7 9.8 3.6C10.4 3.4 11.2 3.3 12.3 3.3H12.7C13.6 3.3 14.2 3.3 14.8 3.2C15.5 3 15.9 2.8 16.3 2.3C16.8 1.6 17.2 1.2 17.7 0.8C18.3 0.2 18.8 0 19.4 0C20.7 0 21.7 0.8 23 2.2V2.3L23.4 2.7V2.5C23.6 2.6 23.9 2.7 24.1 2.7C24.3 2.7 24.6 2.7 25 2.6C25.3 2.5 25.6 2.5 25.9 2.4C26.6 2.2 27.4 2 28.2 2C28.7 2 29.4 2.1 29.7 2.6C30.1 3.1 30 3.6 29.9 4C29.7 4.8 29.2 5.5 28.9 6L28.8 6.2C28.7 6.3 26.4 9.3 26.6 13.3V13.7L27 13.5C28.2 12.7 30.7 11 33.6 11C35 11 36.3 11.4 37.5 12.1C37.8 12.2 38 12.5 38 12.8C38 13.1 37.9 13.4 37.6 13.5C37.5 13.6 37.4 13.6 37.2 13.6C37 13.6 36.9 13.6 36.8 13.5C35.6 12.9 34.5 12.6 33.4 12.6C32.5 12.6 31.7 12.8 30.7 13.2L30.8 13.7C32.4 13.8 34.7 14.4 36.6 16.4C36.8 16.6 36.9 16.9 36.9 17.2C36.8 17.5 36.6 17.7 36.3 17.8C36.3 17.8 36.2 17.8 36.1 17.8C35.9 17.8 35.6 17.7 35.5 17.5C34.1 16 32.4 15.3 30.3 15.2H30.1C29.6 15.2 29.1 15.3 28.8 15.3L27.9 15.4L28.7 15.8C34.8 18.5 41.3 25 41.3 33.1C41.3 38 39.7 41.4 36.4 43.2C33.5 44.7 28.9 45.5 20.8 45.5ZM14.2 16.4C11.3 17.1 8 19.4 5.6 22.5C3 25.7 1.5 29.6 1.5 32.8C1.5 37.4 2.7 40 5.6 41.6C8.4 43.2 13.1 43.9 20.8 43.9C28.5 43.9 33.1 43.2 36 41.6C38.9 39.9 40.1 37.4 40.1 32.8C40.1 25.2 32.9 17.9 26.2 16H26H25.9C23.9 17 21.8 17.5 19.7 17.5C17.2 17.5 15.3 16.8 14.4 16.4H14.2ZM13.7 9.9C14.6 11.5 15 13.2 15 14.9V15.1L15.1 15.2C15.9 15.5 17.4 16.1 19.5 16.1C21.4 16.1 23.2 15.7 25 14.8L25.2 14.7V14.5C24.9 12.5 25.1 10.4 26 8.4L25.6 8L25.5 8.1C25.4 8.1 25.4 8.2 25.3 8.3C24.6 9 23.7 9.4 22.8 9.5C22.7 9.5 22.6 9.5 22.4 9.5C21.6 9.5 20.8 9.1 20.2 8.5L20.1 8.4C19.7 7.9 19.4 7.6 19.1 7.4C18.9 7.3 18.8 7.3 18.7 7.3C18.6 7.3 18.6 7.3 18.6 7.3C18.1 7.4 17.1 8.3 16.7 8.7C16.1 9.3 15.3 9.6 14.4 9.6C14.3 9.6 14.1 9.6 14 9.6H13.5L13.7 9.9ZM12.3 4.7C11.6 4.7 11.1 4.8 10.6 4.9L10.3 5L10.5 5.3C11.4 6.6 12.4 7.5 13.3 7.9C13.7 8.1 14 8.1 14.3 8.1C14.7 8.1 15.1 8 15.5 7.7L15.6 7.6L16 7.3C16.8 6.6 17.4 5.9 18.4 5.8C18.5 5.8 18.6 5.8 18.7 5.8C19.1 5.8 19.6 5.9 20 6.2C20.5 6.5 20.9 6.9 21.4 7.6L21.5 7.7C21.8 7.9 22 8 22.4 8C22.5 8 22.6 8 22.6 8C23.1 7.9 23.7 7.6 24.2 7.2C24.9 6.5 25.6 6 26.2 5.6C26.5 5.3 26.9 5.1 27.1 4.9C27.4 4.6 27.6 4.4 27.8 4.2C27.9 4.1 27.9 4 27.9 3.8V3.6H27.7C27.3 3.7 26.9 3.7 26.5 3.8C26 3.9 25.7 3.9 25.3 4C24.9 4.1 24.5 4.1 24.2 4.1C23.3 4.1 22.6 3.8 22 3.3V3.2H21.8C20.8 2.2 19.9 1.6 19.3 1.5C19 1.5 18.9 1.5 18.6 1.8C18.3 2 18 2.4 17.6 2.9L17.5 3C16.8 4 15.8 4.4 15.1 4.5C14.4 4.7 13.6 4.7 12.8 4.7H12.3Z" fill="#01CDFD"/>
</svg>
