<svg width="50" height="50" viewBox="0 0 50 50" fill="none" xmlns="http://www.w3.org/2000/svg">
<path d="M33.9499 49.75C25.2499 49.75 18.1499 42.65 18.1499 33.95C18.1499 33.35 18.2499 32.65 18.3499 31.85V31.55H18.0499C17.3499 31.65 16.6499 31.65 15.9499 31.65C7.2499 31.75 0.149902 24.65 0.149902 16.05C0.149902 7.45 7.2499 0.25 15.9499 0.25C24.6499 0.25 31.7499 7.35 31.7499 16.05C31.7499 16.75 31.7499 17.45 31.6499 18.15V18.45H31.9499C32.7499 18.35 33.4499 18.25 34.0499 18.25C42.7499 18.25 49.8499 25.35 49.8499 34.05C49.8499 42.75 42.5499 49.75 33.9499 49.75ZM33.9499 19.75C26.0499 19.75 19.7499 26.15 19.7499 33.95C19.7499 41.75 26.0499 48.25 33.9499 48.25C41.8499 48.25 48.1499 41.85 48.1499 34.05C48.1499 26.25 41.7499 19.75 33.9499 19.75ZM15.9499 1.75C8.0499 1.75 1.6499 8.15 1.6499 16.05C1.6499 23.95 8.0499 30.25 15.9499 30.25C16.9499 30.25 17.7499 30.15 18.5499 30.05H18.6499V29.95C20.1499 24.65 24.3499 20.45 29.6499 18.95H29.7499V18.85C29.9499 18.05 29.9499 17.25 29.9499 16.25C30.1499 8.15 23.7499 1.75 15.9499 1.75ZM8.5499 48.25L12.0499 44.75H7.9499C4.2499 44.75 1.1499 41.75 1.1499 37.95V32.25H2.6499V38.05C2.6499 40.95 5.0499 43.25 7.8499 43.25H12.0499L8.5499 39.75L9.6499 38.65L15.0499 44.05L9.6499 49.45L8.5499 48.25ZM15.9499 25.75C15.8499 25.75 15.7499 25.75 15.6499 25.65C15.5499 25.65 15.4499 25.55 15.4499 25.45C15.3499 25.35 15.3499 25.25 15.2499 25.25C15.2499 25.15 15.1499 25.05 15.1499 24.95V23.05H14.9499C13.7499 22.85 12.7499 22.35 12.0499 21.65C11.2499 20.85 10.7499 19.75 10.6499 18.35H12.0499C12.0499 19.55 12.5499 20.35 12.9499 20.65C13.4499 21.15 14.0499 21.45 14.8499 21.75L15.1499 21.85V15.45H14.9499C14.2499 15.25 13.7499 15.15 13.3499 14.95C12.7499 14.75 12.3499 14.45 12.0499 14.15C11.6499 13.85 11.4499 13.55 11.3499 13.15C11.1499 12.65 11.0499 12.15 11.0499 11.45C11.0499 10.75 11.1499 10.15 11.4499 9.75C11.5499 9.25 11.8499 8.95 12.1499 8.55L12.3499 8.25C12.7499 7.85 13.2499 7.55 13.7499 7.35C14.1499 7.25 14.5499 7.15 14.8499 7.05H15.0499V5.05C15.0499 4.85 15.1499 4.65 15.2499 4.55C15.5499 4.35 15.6499 4.25 15.8499 4.25C15.9499 4.25 16.0499 4.25 16.1499 4.25C16.2499 4.25 16.3499 4.35 16.3499 4.45C16.4499 4.55 16.4499 4.65 16.5499 4.65C16.5499 4.75 16.6499 4.85 16.6499 4.95V6.95H16.8499C17.8499 7.05 18.7499 7.45 19.4499 8.15C20.0499 8.75 20.5499 9.65 20.8499 10.85H19.4499C19.1499 9.45 18.3499 8.65 17.0499 8.35L16.6499 8.25V14.25L17.9499 14.65C18.2499 14.75 18.5499 14.85 18.9499 15.05C19.3499 15.25 19.7499 15.45 20.0499 15.85C20.4499 16.15 20.7499 16.55 20.8499 16.95C21.1499 17.45 21.2499 17.95 21.2499 18.65C21.2499 19.45 21.1499 20.05 20.8499 20.45C20.6499 20.95 20.3499 21.45 19.8499 21.95C19.5499 22.25 19.0499 22.55 18.4499 22.95C17.9499 23.15 17.4499 23.25 16.8499 23.35H16.6499V25.25C16.6499 25.35 16.6499 25.45 16.5499 25.55C16.5499 25.65 16.4499 25.75 16.3499 25.75C16.2499 25.85 16.1499 25.85 16.1499 25.95C16.0499 25.75 15.9499 25.75 15.9499 25.75ZM16.6499 21.95L17.0499 21.85C17.2499 21.75 17.5499 21.75 17.7499 21.65C18.0499 21.55 18.5499 21.35 18.7499 21.05C19.0499 20.85 19.3499 20.45 19.4499 20.05C19.5499 19.75 19.6499 19.25 19.6499 18.75C19.6499 18.35 19.5499 17.85 19.4499 17.55C19.3499 17.15 19.0499 16.95 18.7499 16.75C18.4499 16.55 18.1499 16.35 17.7499 16.25C17.5499 16.15 17.3499 16.15 17.1499 16.05L16.6499 15.85V21.95ZM14.8499 8.35C14.4499 8.45 13.8499 8.55 13.3499 9.05C12.8499 9.45 12.5499 10.15 12.5499 11.15C12.5499 11.55 12.6499 11.95 12.7499 12.25C12.8499 12.65 13.1499 12.85 13.3499 13.05C13.4499 13.15 13.6499 13.25 13.8499 13.35C13.9499 13.45 14.0499 13.45 14.1499 13.55C14.3499 13.65 14.5499 13.75 14.7499 13.75L15.0499 13.85L15.1499 13.55V8.35H14.8499ZM47.1499 17.75V11.95C47.1499 9.05 44.7499 6.75 41.9499 6.75H36.7499L40.2499 10.25L39.1499 11.35L33.7499 5.95L39.1499 0.65L40.2499 1.75L36.7499 5.25H41.9499C45.6499 5.25 48.7499 8.25 48.7499 12.05V17.85H47.1499V17.75Z" fill="#01CDFD"/>
</svg>
