<svg width="47" height="46" viewBox="0 0 47 46" fill="none" xmlns="http://www.w3.org/2000/svg">
<path d="M25.3 45.5C13.8 45.5 4.5 36.2 4.5 24.8C4.5 24.6 4.5 24.4 4.5 24.2V24H6C6 24.2 6 24.5 6 24.7C6 35.4 14.6 44 25.3 44C36 44 44.5 35.4 44.5 24.8C44.5 14.2 35.9 5.5 25.3 5.5C25.1 5.5 24.8 5.5 24.6 5.5V4H24.7C24.9 4 25.1 4 25.3 4C36.7 4 46.1 13.3 46.1 24.8C46.1 36.3 36.7 45.5 25.3 45.5ZM0.5 21.5V20.7C0.5 9.3 9.8 0 21.3 0H22.1V21.5H0.5ZM20.2 1.6C10.4 2.1 2.6 9.9 2.1 19.7V20H20.5V1.6H20.2Z" fill="#01CDFD"/>
</svg>
