<svg width="38" height="38" viewBox="0 0 38 38" fill="none" xmlns="http://www.w3.org/2000/svg">
<path d="M18.1213 -0.000248924C17.9284 0.0383449 17.7592 0.148189 17.6463 0.308501L12.2551 7.69475C12.0206 8.03022 12.0918 8.49334 12.4213 8.73975L19.8076 14.1073C19.8224 14.1251 19.8373 14.1399 19.8551 14.1547C20.1935 14.3507 20.624 14.2587 20.8526 13.941L26.2438 6.5785C26.3656 6.41522 26.416 6.21038 26.3834 6.0085C26.3537 5.80959 26.2438 5.6285 26.0776 5.50975L18.6913 0.142251C18.5459 0.0383449 18.3707 -0.0121239 18.1926 -0.000248924C18.1688 -0.000248924 18.1451 -0.000248924 18.1213 -0.000248924ZM27.9776 -0.000248924C27.6154 0.0680324 27.3542 0.388657 27.3601 0.759751V9.87975C27.3601 10.2983 27.7015 10.6397 28.1201 10.6397H37.2401C37.6587 10.6397 38.0001 10.2983 38.0001 9.87975V0.759751C38.0001 0.341157 37.6587 -0.000248924 37.2401 -0.000248924H28.1201C28.0963 -0.000248924 28.0726 -0.000248924 28.0488 -0.000248924C28.0251 -0.000248924 28.0013 -0.000248924 27.9776 -0.000248924ZM28.8801 1.51975H36.4801V9.11975H28.8801V1.51975ZM18.4301 1.8285L24.5576 6.2935L20.0926 12.4448L13.9413 7.956L18.4301 1.8285ZM0.617599 9.11975C0.255412 9.18803 -0.00583831 9.50866 9.91874e-05 9.87975V18.9285C9.91874e-05 18.9522 9.91874e-05 18.976 9.91874e-05 18.9998C9.91874e-05 19.0235 9.91874e-05 19.0473 9.91874e-05 19.071V28.0485C9.91874e-05 28.0722 9.91874e-05 28.096 9.91874e-05 28.1197C9.91874e-05 28.1435 9.91874e-05 28.1672 9.91874e-05 28.191V37.2397C9.91874e-05 37.6583 0.341506 37.9997 0.760099 37.9997H28.1201C28.5387 37.9997 28.8801 37.6583 28.8801 37.2397V28.1197C28.8801 27.7012 28.5387 27.3597 28.1201 27.3597H19.7601V18.9998C19.7601 18.5812 19.4187 18.2397 19.0001 18.2397H10.6401V9.87975C10.6401 9.46116 10.2987 9.11975 9.8801 9.11975H0.760099C0.736349 9.11975 0.712599 9.11975 0.688849 9.11975C0.665099 9.11975 0.641349 9.11975 0.617599 9.11975ZM1.5201 10.6397H9.1201V18.2397H1.5201V10.6397ZM33.1551 11.7323C33.1135 11.7382 33.0749 11.7441 33.0363 11.756L24.3913 14.6535C24.1984 14.7188 24.0381 14.8583 23.949 15.0394C23.8599 15.2235 23.8481 15.4343 23.9163 15.6272L26.7901 24.2722C26.796 24.2871 26.8049 24.3049 26.8138 24.3197C26.9682 24.6908 27.3838 24.8779 27.7638 24.7472L36.4088 21.8498C36.7978 21.7162 37.0085 21.2916 36.8838 20.8997L33.9863 12.2548C33.8735 11.9015 33.5232 11.6788 33.1551 11.7323ZM32.7988 13.4423L35.1976 20.6623L28.0013 23.061L25.6026 15.8647L32.7988 13.4423ZM1.5201 19.7598H9.1201V27.3597H1.5201V19.7598ZM10.6401 19.7598H18.2401V27.3597H10.6401V19.7598ZM1.5201 28.8797H9.1201V36.4797H1.5201V28.8797ZM10.6401 28.8797H18.2401V36.4797H10.6401V28.8797ZM19.7601 28.8797H27.3601V36.4797H19.7601V28.8797Z" fill="#01CDFD"/>
</svg>
