<svg width="50" height="50" viewBox="0 0 50 50" fill="none" xmlns="http://www.w3.org/2000/svg">
<path d="M39.2002 45.7002V44.7002H10.7002V45.7002H6.2002V44.7002H5.0002C2.9002 44.7002 1.2002 43.0002 1.2002 40.9002V8.9002C1.2002 6.9002 2.9002 5.2002 5.0002 5.2002H45.0002C47.1002 5.2002 48.8002 6.9002 48.8002 9.0002V41.0002C48.8002 43.1002 47.1002 44.8002 45.0002 44.8002H43.8002V45.8002H39.2002V45.7002ZM5.0002 6.7002C3.7002 6.7002 2.8002 7.7002 2.8002 8.9002V40.9002C2.8002 42.2002 3.8002 43.1002 5.0002 43.1002H45.0002C46.3002 43.1002 47.2002 42.1002 47.2002 40.9002V8.9002C47.2002 7.6002 46.2002 6.7002 45.0002 6.7002H5.0002ZM7.0002 39.7002C6.6002 39.7002 6.2002 39.4002 6.2002 38.9002V27.0002C6.2002 26.9002 6.2002 26.9002 6.2002 26.8002V23.2002C6.1002 23.0002 6.1002 22.8002 6.2002 22.7002V11.0002C6.2002 10.6002 6.4002 10.3002 6.8002 10.2002H6.9002H42.9002C43.3002 10.2002 43.7002 10.5002 43.7002 11.0002V39.0002C43.7002 39.4002 43.4002 39.8002 42.9002 39.8002H7.0002V39.7002ZM7.7002 22.6002L9.5002 24.4002C9.6002 24.5002 9.7002 24.7002 9.7002 24.9002C9.7002 25.1002 9.6002 25.3002 9.5002 25.4002L7.7002 27.2002V38.2002H42.2002V11.7002H7.7002V22.6002ZM24.8002 35.7002C22.1002 35.6002 19.6002 34.6002 17.7002 32.9002H17.6002C17.3002 32.8002 17.1002 32.6002 17.1002 32.4002V32.3002C15.4002 30.5002 14.4002 28.1002 14.3002 25.5002V25.4002V25.3002C14.2002 25.1002 14.2002 24.8002 14.3002 24.5002V24.4002V24.3002C14.4002 21.8002 15.4002 19.4002 17.2002 17.5002C17.3002 17.2002 17.5002 17.1002 17.7002 17.0002C19.7002 15.2002 22.2002 14.2002 24.8002 14.1002H24.9002H25.0002C25.1002 14.2002 25.2002 14.2002 25.2002 14.2002C27.9002 14.3002 30.4002 15.4002 32.3002 17.2002C32.4002 17.3002 32.5002 17.4002 32.6002 17.4002V17.5002C34.4002 19.4002 35.5002 22.0002 35.6002 24.6002C35.6002 24.7002 35.6002 24.7002 35.6002 24.8002V24.9002C35.6002 25.0002 35.6002 25.0002 35.6002 25.1002V25.2002V25.3002C35.5002 27.9002 34.5002 30.3002 32.8002 32.2002V32.3002C32.7002 32.6002 32.5002 32.8002 32.3002 32.9002H32.2002C30.3002 34.6002 27.9002 35.6002 25.3002 35.7002H25.2002H24.8002ZM25.0002 33.2002C25.2002 33.2002 25.4002 33.3002 25.5002 33.4002C25.7002 33.5002 25.7002 33.7002 25.7002 34.0002V34.2002H26.0002C27.7002 34.0002 29.4002 33.3002 30.8002 32.2002L31.0002 32.0002L30.8002 31.8002C30.6002 31.6002 30.5002 31.3002 30.6002 31.0002C30.7002 30.7002 30.9002 30.5002 31.2002 30.5002H31.3002C31.5002 30.5002 31.7002 30.6002 31.8002 30.7002L32.0002 30.9002L32.2002 30.7002C33.3002 29.3002 34.0002 27.7002 34.2002 25.9002V25.6002H33.9002C33.5002 25.6002 33.2002 25.3002 33.1002 24.9002C33.1002 24.5002 33.4002 24.1002 33.8002 24.1002H34.1002L34.2002 23.8002C34.0002 22.1002 33.3002 20.4002 32.2002 19.0002L32.0002 18.8002L31.8002 19.2002C31.7002 19.4002 31.4002 19.5002 31.2002 19.5002C31.1002 19.5002 31.1002 19.5002 31.0002 19.5002C30.7002 19.4002 30.5002 19.2002 30.4002 18.9002C30.3002 18.6002 30.4002 18.3002 30.7002 18.1002L30.9002 17.9002L30.7002 17.7002C29.3002 16.6002 27.7002 15.9002 25.9002 15.7002H25.6002V16.0002C25.6002 16.4002 25.3002 16.7002 24.8002 16.7002C24.3002 16.7002 24.2002 16.4002 24.2002 16.0002V15.7002H23.9002C22.2002 15.9002 20.5002 16.6002 19.1002 17.7002L18.9002 17.9002L19.1002 18.1002C19.3002 18.3002 19.4002 18.6002 19.4002 18.9002C19.3002 19.2002 19.1002 19.4002 18.8002 19.5002C18.7002 19.5002 18.7002 19.5002 18.6002 19.5002C18.4002 19.5002 18.2002 19.4002 18.0002 19.2002L17.8002 19.0002L17.7002 19.2002C16.6002 20.6002 15.9002 22.2002 15.7002 24.0002V24.3002H16.0002C16.4002 24.3002 16.7002 24.6002 16.7002 25.1002C16.7002 25.6002 16.4002 25.8002 16.0002 25.9002H15.7002V26.2002C15.9002 27.9002 16.6002 29.6002 17.7002 31.0002L17.9002 31.2002L18.1002 31.0002C18.2002 30.9002 18.4002 30.8002 18.5002 30.8002C18.9002 30.8002 19.1002 31.0002 19.3002 31.2002C19.4002 31.5002 19.4002 31.8002 19.2002 32.0002L19.0002 32.2002H19.2002C20.6002 33.3002 22.2002 34.0002 24.0002 34.2002H24.3002V33.9002C24.3002 33.5002 24.5002 33.2002 24.9002 33.2002C24.8002 33.2002 24.9002 33.2002 25.0002 33.2002ZM25.0002 29.7002C22.4002 29.7002 20.2002 27.6002 20.2002 24.9002C20.2002 22.2002 22.3002 20.1002 25.0002 20.1002C27.7002 20.1002 29.8002 22.2002 29.8002 24.9002C29.8002 27.6002 27.6002 29.7002 25.0002 29.7002ZM25.0002 21.7002C23.2002 21.7002 21.8002 23.2002 21.8002 24.9002C21.8002 26.6002 23.2002 28.2002 25.0002 28.2002C26.8002 28.2002 28.2002 26.7002 28.2002 25.0002C28.2002 23.3002 26.7002 21.7002 25.0002 21.7002Z" fill="#01CDFD"/>
</svg>
