<svg width="84" height="80" viewBox="0 0 84 80" fill="none" xmlns="http://www.w3.org/2000/svg">
<circle cx="44" cy="40" r="40" fill="#1B1B1B"/>
<path d="M45.3 61.5C33.8 61.5 24.5 52.2 24.5 40.8C24.5 40.6 24.5 40.4 24.5 40.2V40H26C26 40.2 26 40.5 26 40.7C26 51.4 34.6 60 45.3 60C56 60 64.5 51.4 64.5 40.8C64.5 30.2 55.9 21.5 45.3 21.5C45.1 21.5 44.8 21.5 44.6 21.5V20H44.7C44.9 20 45.1 20 45.3 20C56.7 20 66.1 29.3 66.1 40.8C66.1 52.3 56.7 61.5 45.3 61.5ZM20.5 37.5V36.7C20.5 25.3 29.8 16 41.3 16H42.1V37.5H20.5ZM40.2 17.6C30.4 18.1 22.6 25.9 22.1 35.7V36H40.5V17.6H40.2Z" fill="#01CDFD"/>
</svg>
