<svg width="80" height="80" viewBox="0 0 80 80" fill="none" xmlns="http://www.w3.org/2000/svg">
<circle cx="40" cy="40" r="40" fill="#1B1B1B"/>
<g clip-path="url(#clip0_5331_19759)">
<path d="M15.7 49.5C15.5 49.5 15.2 49.4 15.1 49.2C15 49 15 48.7 15 48.5L18 40.5C18.1 40.2 18.3 40.1 18.6 40H18.7H23.2L26 32.5C26.1 32.2 26.4 32 26.7 32H31.3L34 24.5C34.1 24.2 34.3 24.1 34.6 24H34.7H44.7C45 24 45.3 24.2 45.4 24.5L48.3 32H52.8C53.1 32 53.4 32.2 53.5 32.5L56.3 40H60.8C61.1 40 61.4 40.2 61.5 40.5L64.5 48.5C64.6 48.7 64.6 49 64.4 49.2C64.2 49.4 64 49.5 63.8 49.5H15.7ZM48.8 48H62.6L60.2 41.5H51.2L48.8 48ZM32.8 48H46.6L44.2 41.5H35.2L32.8 48ZM16.8 48H30.6L28.2 41.5H19.2L16.8 48ZM47.7 46.6L49.6 41.5H45.8L47.7 46.6ZM31.7 46.6L33.6 41.5H29.8L31.7 46.6ZM40.8 40H54.6L52.2 33.5H43.2L40.8 40ZM24.8 40H38.6L36.2 33.5H27.2L24.8 40ZM39.7 38.6L41.6 33.5H37.8L39.7 38.6ZM32.8 32H46.6L44.2 25.5H35.2L32.8 32Z" fill="#01CDFD"/>
</g>
<defs>
<clipPath id="clip0_5331_19759">
<rect width="49.5" height="25.5" fill="white" transform="translate(15 24)"/>
</clipPath>
</defs>
</svg>
