<svg width="80" height="80" viewBox="0 0 80 80" fill="none" xmlns="http://www.w3.org/2000/svg">
<circle cx="40" cy="40" r="40" fill="#1B1B1B"/>
<path d="M46.8 59.5C45.6 59.5 44.4 59.3 43.4 59.1C42.1 59.3 40.9 59.5 39.8 59.5C38.6 59.5 37.4 59.3 36.4 59.1C35.1 59.3 33.9 59.5 32.8 59.5C23 59.5 15 51.5 15 41.8C15 32.1 23 24 32.8 24C33.9 24 35.1 24.1 36.3 24.4H36.5C37.5 24.2 38.6 24 39.9 24C41 24 42.2 24.1 43.4 24.4H43.6C44.6 24.2 45.7 24 47 24C56.8 24 64.8 32 64.8 41.8C64.8 51.6 56.5 59.5 46.8 59.5ZM32.8 25.5C23.8 25.5 16.6 32.8 16.6 41.7C16.6 50.6 23.8 58 32.8 58C33.9 58 34.9 57.9 35.9 57.7C36.1 57.6 36.2 57.6 36.3 57.6C43.8 55.9 49 49.4 49 41.8C49 34.2 43.8 27.7 36.4 26H36.3C36.2 26 36.1 26 35.9 25.9C34.8 25.6 33.8 25.5 32.8 25.5ZM41 26.1C46.9 29.2 50.5 35.2 50.5 41.8C50.5 48.4 46.9 54.4 41 57.5L39.6 58L41.2 57.9H41.4C41.9 57.9 42.4 57.8 42.9 57.7C43.1 57.6 43.2 57.6 43.3 57.6C50.8 55.9 56 49.4 56 41.8C56 34.2 50.8 27.7 43.4 26H43.3C43.2 26 43.1 26 42.9 25.9C42.3 25.8 41.8 25.7 41.4 25.7H39.9L41 26.1ZM48 26.1C53.9 29.2 57.5 35.2 57.5 41.8C57.5 48.4 53.9 54.4 48 57.5L46.8 58L48.2 57.9C56.6 57.2 63 50.2 63 41.8C63 33.4 56.6 26.3 48.1 25.6L46.6 25.5L48 26.1Z" fill="#01CDFD"/>
<path fill-rule="evenodd" clip-rule="evenodd" d="M37.1 48.5C33.4 48.5 30.3 45.5 30.3 41.7C30.3 37.9 33.3 34.9 37.1 34.9C40.9 34.9 43.9 37.9 43.9 41.7C43.9 45.5 40.9 48.5 37.1 48.5ZM37.1 36.5C34.2 36.5 31.9 38.9 31.9 41.7C31.9 44.5 34.3 46.9 37.1 46.9C39.9 46.9 42.3 44.5 42.3 41.7C42.3 38.9 40 36.5 37.1 36.5Z" fill="#01CDFD"/>
<path fill-rule="evenodd" clip-rule="evenodd" d="M29.1 48.5C25.4 48.5 22.3 45.5 22.3 41.7C22.3 37.9 25.3 34.9 29.1 34.9C32.9 34.9 35.9 37.9 35.9 41.7C35.9 45.5 32.9 48.5 29.1 48.5ZM29.1 36.5C26.2 36.5 23.9 38.9 23.9 41.7C23.9 44.5 26.3 46.9 29.1 46.9C31.9 46.9 34.3 44.5 34.3 41.7C34.3 38.9 32 36.5 29.1 36.5Z" fill="#01CDFD"/>
</svg>
