<svg width="83" height="80" viewBox="0 0 83 80" fill="none" xmlns="http://www.w3.org/2000/svg">
<circle cx="43" cy="40" r="40" fill="#1B1B1B"/>
<path d="M57.2 60.7002V59.7002H28.7V60.7002H24.2V59.7002H23C20.9 59.7002 19.2 58.0002 19.2 55.9002V23.9002C19.2 21.9002 20.9 20.2002 23 20.2002H63C65.0999 20.2002 66.7999 21.9002 66.7999 24.0002V56.0002C66.7999 58.1002 65.0999 59.8002 63 59.8002H61.7999V60.8002H57.2V60.7002ZM23 21.7002C21.7 21.7002 20.8 22.7002 20.8 23.9002V55.9002C20.8 57.2002 21.8 58.1002 23 58.1002H63C64.2999 58.1002 65.2 57.1002 65.2 55.9002V23.9002C65.2 22.6002 64.2 21.7002 63 21.7002H23ZM25 54.7002C24.6 54.7002 24.2 54.4002 24.2 53.9002V42.0002C24.2 41.9002 24.2 41.9002 24.2 41.8002V38.2002C24.1 38.0002 24.1 37.8002 24.2 37.7002V26.0002C24.2 25.6002 24.4 25.3002 24.8 25.2002H24.9H60.9C61.3 25.2002 61.7 25.5002 61.7 26.0002V54.0002C61.7 54.4002 61.4 54.8002 60.9 54.8002H25V54.7002ZM25.7 37.6002L27.5 39.4002C27.6 39.5002 27.7 39.7002 27.7 39.9002C27.7 40.1002 27.6 40.3002 27.5 40.4002L25.7 42.2002V53.2002H60.2V26.7002H25.7V37.6002ZM42.8 50.7002C40.1 50.6002 37.6 49.6002 35.7 47.9002H35.6C35.3 47.8002 35.1 47.6002 35.1 47.4002V47.3002C33.4 45.5002 32.4 43.1002 32.3 40.5002V40.4002V40.3002C32.2 40.1002 32.2 39.8002 32.3 39.5002V39.4002V39.3002C32.4 36.8002 33.4 34.4002 35.2 32.5002C35.3 32.2002 35.5 32.1002 35.7 32.0002C37.7 30.2002 40.2 29.2002 42.8 29.1002H42.9H43C43.1 29.2002 43.2 29.2002 43.2 29.2002C45.9 29.3002 48.4 30.4002 50.3 32.2002C50.4 32.3002 50.5 32.4002 50.6 32.4002V32.5002C52.4 34.4002 53.5 37.0002 53.6 39.6002C53.6 39.7002 53.6 39.7002 53.6 39.8002V39.9002C53.6 40.0002 53.6 40.0002 53.6 40.1002V40.2002V40.3002C53.5 42.9002 52.5 45.3002 50.8 47.2002V47.3002C50.7 47.6002 50.5 47.8002 50.3 47.9002H50.2C48.3 49.6002 45.9 50.6002 43.3 50.7002H43.2H42.8ZM43 48.2002C43.2 48.2002 43.4 48.3002 43.5 48.4002C43.7 48.5002 43.7 48.7002 43.7 49.0002V49.2002H44C45.7 49.0002 47.4 48.3002 48.8 47.2002L49 47.0002L48.8 46.8002C48.6 46.6002 48.5 46.3002 48.6 46.0002C48.7 45.7002 48.9 45.5002 49.2 45.5002H49.3C49.5 45.5002 49.7 45.6002 49.8 45.7002L50 45.9002L50.2 45.7002C51.2999 44.3002 52 42.7002 52.2 40.9002V40.6002H51.9C51.5 40.6002 51.2 40.3002 51.1 39.9002C51.1 39.5002 51.3999 39.1002 51.7999 39.1002H52.1L52.2 38.8002C52 37.1002 51.2999 35.4002 50.2 34.0002L50 33.8002L49.8 34.2002C49.7 34.4002 49.4 34.5002 49.2 34.5002C49.1 34.5002 49.1 34.5002 49 34.5002C48.7 34.4002 48.5 34.2002 48.4 33.9002C48.3 33.6002 48.4 33.3002 48.7 33.1002L48.9 32.9002L48.7 32.7002C47.3 31.6002 45.7 30.9002 43.9 30.7002H43.6V31.0002C43.6 31.4002 43.3 31.7002 42.8 31.7002C42.3 31.7002 42.2 31.4002 42.2 31.0002V30.7002H41.9C40.2 30.9002 38.5 31.6002 37.1 32.7002L36.9 32.9002L37.1 33.1002C37.3 33.3002 37.4 33.6002 37.4 33.9002C37.3 34.2002 37.1 34.4002 36.8 34.5002C36.7 34.5002 36.7 34.5002 36.6 34.5002C36.4 34.5002 36.2 34.4002 36 34.2002L35.8 34.0002L35.7 34.2002C34.6 35.6002 33.9 37.2002 33.7 39.0002V39.3002H34C34.4 39.3002 34.7 39.6002 34.7 40.1002C34.7 40.6002 34.4 40.8002 34 40.9002H33.7V41.2002C33.9 42.9002 34.6 44.6002 35.7 46.0002L35.9 46.2002L36.1 46.0002C36.2 45.9002 36.4 45.8002 36.5 45.8002C36.9 45.8002 37.1 46.0002 37.3 46.2002C37.4 46.5002 37.4 46.8002 37.2 47.0002L37 47.2002H37.2C38.6 48.3002 40.2 49.0002 42 49.2002H42.3V48.9002C42.3 48.5002 42.5 48.2002 42.9 48.2002C42.8 48.2002 42.9 48.2002 43 48.2002ZM43 44.7002C40.4 44.7002 38.2 42.6002 38.2 39.9002C38.2 37.2002 40.2999 35.1002 43 35.1002C45.7 35.1002 47.8 37.2002 47.8 39.9002C47.8 42.6002 45.6 44.7002 43 44.7002ZM43 36.7002C41.2 36.7002 39.8 38.2002 39.8 39.9002C39.8 41.6002 41.2 43.2002 43 43.2002C44.7999 43.2002 46.2 41.7002 46.2 40.0002C46.2 38.3002 44.7 36.7002 43 36.7002Z" fill="#01CDFD"/>
</svg>
