<svg width="80" height="80" viewBox="0 0 80 80" fill="none" xmlns="http://www.w3.org/2000/svg">
<circle cx="40" cy="40" r="40" fill="#1B1B1B"/>
<path d="M48.9499 64.75C40.2499 64.75 33.1499 57.65 33.1499 48.95C33.1499 48.35 33.2499 47.65 33.3499 46.85V46.55H33.0499C32.3499 46.65 31.6499 46.65 30.9499 46.65C22.2499 46.75 15.1499 39.65 15.1499 31.05C15.1499 22.45 22.2499 15.25 30.9499 15.25C39.6499 15.25 46.7499 22.35 46.7499 31.05C46.7499 31.75 46.7499 32.45 46.6499 33.15V33.45H46.9499C47.7499 33.35 48.4499 33.25 49.0499 33.25C57.7499 33.25 64.8499 40.35 64.8499 49.05C64.8499 57.75 57.5499 64.75 48.9499 64.75ZM48.9499 34.75C41.0499 34.75 34.7499 41.15 34.7499 48.95C34.7499 56.75 41.0499 63.25 48.9499 63.25C56.8499 63.25 63.1499 56.85 63.1499 49.05C63.1499 41.25 56.7499 34.75 48.9499 34.75ZM30.9499 16.75C23.0499 16.75 16.6499 23.15 16.6499 31.05C16.6499 38.95 23.0499 45.25 30.9499 45.25C31.9499 45.25 32.7499 45.15 33.5499 45.05H33.6499V44.95C35.1499 39.65 39.3499 35.45 44.6499 33.95H44.7499V33.85C44.9499 33.05 44.9499 32.25 44.9499 31.25C45.1499 23.15 38.7499 16.75 30.9499 16.75ZM23.5499 63.25L27.0499 59.75H22.9499C19.2499 59.75 16.1499 56.75 16.1499 52.95V47.25H17.6499V53.05C17.6499 55.95 20.0499 58.25 22.8499 58.25H27.0499L23.5499 54.75L24.6499 53.65L30.0499 59.05L24.6499 64.45L23.5499 63.25ZM30.9499 40.75C30.8499 40.75 30.7499 40.75 30.6499 40.65C30.5499 40.65 30.4499 40.55 30.4499 40.45C30.3499 40.35 30.3499 40.25 30.2499 40.25C30.2499 40.15 30.1499 40.05 30.1499 39.95V38.05H29.9499C28.7499 37.85 27.7499 37.35 27.0499 36.65C26.2499 35.85 25.7499 34.75 25.6499 33.35H27.0499C27.0499 34.55 27.5499 35.35 27.9499 35.65C28.4499 36.15 29.0499 36.45 29.8499 36.75L30.1499 36.85V30.45H29.9499C29.2499 30.25 28.7499 30.15 28.3499 29.95C27.7499 29.75 27.3499 29.45 27.0499 29.15C26.6499 28.85 26.4499 28.55 26.3499 28.15C26.1499 27.65 26.0499 27.15 26.0499 26.45C26.0499 25.75 26.1499 25.15 26.4499 24.75C26.5499 24.25 26.8499 23.95 27.1499 23.55L27.3499 23.25C27.7499 22.85 28.2499 22.55 28.7499 22.35C29.1499 22.25 29.5499 22.15 29.8499 22.05H30.0499V20.05C30.0499 19.85 30.1499 19.65 30.2499 19.55C30.5499 19.35 30.6499 19.25 30.8499 19.25C30.9499 19.25 31.0499 19.25 31.1499 19.25C31.2499 19.25 31.3499 19.35 31.3499 19.45C31.4499 19.55 31.4499 19.65 31.5499 19.65C31.5499 19.75 31.6499 19.85 31.6499 19.95V21.95H31.8499C32.8499 22.05 33.7499 22.45 34.4499 23.15C35.0499 23.75 35.5499 24.65 35.8499 25.85H34.4499C34.1499 24.45 33.3499 23.65 32.0499 23.35L31.6499 23.25V29.25L32.9499 29.65C33.2499 29.75 33.5499 29.85 33.9499 30.05C34.3499 30.25 34.7499 30.45 35.0499 30.85C35.4499 31.15 35.7499 31.55 35.8499 31.95C36.1499 32.45 36.2499 32.95 36.2499 33.65C36.2499 34.45 36.1499 35.05 35.8499 35.45C35.6499 35.95 35.3499 36.45 34.8499 36.95C34.5499 37.25 34.0499 37.55 33.4499 37.95C32.9499 38.15 32.4499 38.25 31.8499 38.35H31.6499V40.25C31.6499 40.35 31.6499 40.45 31.5499 40.55C31.5499 40.65 31.4499 40.75 31.3499 40.75C31.2499 40.85 31.1499 40.85 31.1499 40.95C31.0499 40.75 30.9499 40.75 30.9499 40.75ZM31.6499 36.95L32.0499 36.85C32.2499 36.75 32.5499 36.75 32.7499 36.65C33.0499 36.55 33.5499 36.35 33.7499 36.05C34.0499 35.85 34.3499 35.45 34.4499 35.05C34.5499 34.75 34.6499 34.25 34.6499 33.75C34.6499 33.35 34.5499 32.85 34.4499 32.55C34.3499 32.15 34.0499 31.95 33.7499 31.75C33.4499 31.55 33.1499 31.35 32.7499 31.25C32.5499 31.15 32.3499 31.15 32.1499 31.05L31.6499 30.85V36.95ZM29.8499 23.35C29.4499 23.45 28.8499 23.55 28.3499 24.05C27.8499 24.45 27.5499 25.15 27.5499 26.15C27.5499 26.55 27.6499 26.95 27.7499 27.25C27.8499 27.65 28.1499 27.85 28.3499 28.05C28.4499 28.15 28.6499 28.25 28.8499 28.35C28.9499 28.45 29.0499 28.45 29.1499 28.55C29.3499 28.65 29.5499 28.75 29.7499 28.75L30.0499 28.85L30.1499 28.55V23.35H29.8499ZM62.1499 32.75V26.95C62.1499 24.05 59.7499 21.75 56.9499 21.75H51.7499L55.2499 25.25L54.1499 26.35L48.7499 20.95L54.1499 15.65L55.2499 16.75L51.7499 20.25H56.9499C60.6499 20.25 63.7499 23.25 63.7499 27.05V32.85H62.1499V32.75Z" fill="#01CDFD"/>
<path fill-rule="evenodd" clip-rule="evenodd" d="M52.1919 43.9639C51.077 43.9639 50.0495 44.2935 49.2 44.8623C48.3504 44.2935 47.3229 43.9639 46.208 43.9639C43.2275 43.9639 40.8716 46.3198 40.8716 49.3003C40.8716 52.2831 43.3047 54.6366 46.208 54.6366C47.3301 54.6366 48.3637 54.3027 49.2164 53.7271C50.0717 54.3028 51.0985 54.6366 52.1919 54.6366C55.1724 54.6366 57.5283 52.2807 57.5283 49.3003C57.5283 46.3198 55.1724 43.9639 52.1919 43.9639ZM52.1919 52.9398C51.5879 52.9398 51.0099 52.7794 50.4995 52.5C51.1577 51.6126 51.5443 50.5077 51.5443 49.3003C51.5443 48.0871 51.154 46.9773 50.4901 46.0879C50.9964 45.8162 51.5749 45.6607 52.1919 45.6607C54.22 45.6607 55.8315 47.3408 55.8315 49.3003C55.8315 51.2566 54.1483 52.9398 52.1919 52.9398ZM46.208 45.6607C46.825 45.6607 47.4036 45.8162 47.9099 46.0879C47.2459 46.9773 46.8556 48.0871 46.8556 49.3003C46.8556 50.5043 47.252 51.6059 47.9159 52.4915C47.4016 52.7761 46.8181 52.9398 46.208 52.9398C44.2516 52.9398 42.5684 51.2566 42.5684 49.3003C42.5684 47.3408 44.18 45.6607 46.208 45.6607ZM49.8476 49.3003C49.8476 50.0411 49.6062 50.7428 49.2 51.3287C48.7938 50.7428 48.5524 50.0411 48.5524 49.3003C48.5524 48.5464 48.7909 47.8338 49.2 47.2424C49.609 47.8338 49.8476 48.5464 49.8476 49.3003Z" fill="#01CDFD"/>
</svg>
